<?xml version="1.0" encoding="UTF-8"?>
<svg width="46px" height="46px" viewBox="0 0 46 46" version="1.1" xmlns="http://www.w3.org/2000/svg" xmlns:xlink="http://www.w3.org/1999/xlink">
    <!-- Generator: Sketch 47.1 (45422) - http://www.bohemiancoding.com/sketch -->
    <title>doc</title>
    <desc>Created with Sketch.</desc>
    <defs></defs>
    <g id="Page-2" stroke="none" stroke-width="1" fill="none" fill-rule="evenodd">
        <g id="inscape-desktop" transform="translate(-899.000000, -2243.000000)" fill-rule="nonzero" fill="#3D3B37">
            <g id="Group-7" transform="translate(411.000000, 2243.000000)">
                <g id="doc" transform="translate(488.000000, 0.000000)">
                    <path d="M4,42 L4,45 C4,45.552 4.447,46 5,46 L41,46 C41.553,46 42,45.552 42,45 L42,42 L4,42 Z" id="Shape"></path>
                    <path d="M42,20 L42,13 L30,13 C29.447,13 29,12.552 29,12 L29,0 L5,0 C4.447,0 4,0.448 4,1 L4,20 L42,20 Z" id="Shape"></path>
                    <polygon id="Shape" points="31 1.586 31 11 40.414 11"></polygon>
                    <path d="M23.473,28.764 C22.41,28.764 21.877,29.531 21.877,31.063 C21.877,32.582 22.406,33.34 23.462,33.34 C23.999,33.34 24.398,33.156 24.656,32.787 C24.916,32.418 25.047,31.844 25.047,31.062 C25.047,30.279 24.914,29.699 24.652,29.325 C24.389,28.951 23.996,28.764 23.473,28.764 Z" id="Shape"></path>
                    <path d="M14.6,28.861 L13.983,28.861 L13.983,33.259 L14.456,33.259 C15.101,33.259 15.573,33.071 15.874,32.697 C16.175,32.323 16.325,31.751 16.325,30.981 C16.325,30.261 16.182,29.728 15.897,29.38 C15.612,29.034 15.18,28.861 14.6,28.861 Z" id="Shape"></path>
                    <path d="M45,22 L1,22 C0.448,22 0,22.448 0,23 L0,39 C0,39.552 0.448,40 1,40 L45,40 C45.552,40 46,39.552 46,39 L46,23 C46,22.448 45.552,22 45,22 Z M17.443,33.937 C16.723,34.646 15.708,35 14.4,35 L11.86,35 L11.86,27.147 L14.578,27.147 C15.838,27.147 16.811,27.469 17.497,28.114 C18.184,28.759 18.525,29.689 18.525,30.907 C18.525,32.218 18.165,33.228 17.443,33.937 Z M26.309,34.076 C25.661,34.764 24.711,35.107 23.462,35.107 C22.231,35.107 21.285,34.761 20.629,34.07 C19.972,33.38 19.643,32.373 19.643,31.052 C19.643,29.744 19.97,28.746 20.623,28.057 C21.277,27.368 22.227,27.023 23.473,27.023 C24.723,27.023 25.67,27.366 26.315,28.049 C26.96,28.732 27.282,29.737 27.282,31.062 C27.281,32.385 26.957,33.389 26.309,34.076 Z M32.313,33.373 C32.66,33.373 32.998,33.324 33.323,33.227 C33.648,33.13 33.976,33.014 34.306,32.878 L34.306,34.671 C33.65,34.962 32.91,35.107 32.081,35.107 C30.896,35.107 29.987,34.763 29.356,34.076 C28.723,33.388 28.407,32.394 28.407,31.096 C28.407,30.283 28.561,29.569 28.866,28.952 C29.173,28.336 29.614,27.862 30.188,27.531 C30.762,27.2 31.438,27.035 32.215,27.035 C33.064,27.035 33.875,27.219 34.649,27.588 L34,29.258 C33.71,29.122 33.42,29.008 33.13,28.914 C32.84,28.821 32.528,28.775 32.195,28.775 C31.69,28.775 31.297,28.981 31.013,29.395 C30.73,29.808 30.589,30.378 30.589,31.105 C30.59,32.617 31.164,33.373 32.313,33.373 Z" id="Shape"></path>
                </g>
            </g>
        </g>
    </g>
</svg>