<?xml version="1.0" encoding="UTF-8"?>
<svg width="46px" height="45px" viewBox="0 0 46 45" version="1.1" xmlns="http://www.w3.org/2000/svg" xmlns:xlink="http://www.w3.org/1999/xlink">
    <!-- Generator: Sketch 47.1 (45422) - http://www.bohemiancoding.com/sketch -->
    <title>jpeg</title>
    <desc>Created with Sketch.</desc>
    <defs></defs>
    <g id="Page-2" stroke="none" stroke-width="1" fill="none" fill-rule="evenodd">
        <g id="inscape-desktop" transform="translate(-984.000000, -2243.000000)" fill-rule="nonzero" fill="#3D3B37">
            <g id="Group-7" transform="translate(411.000000, 2243.000000)">
                <g id="jpeg" transform="translate(573.000000, 0.000000)">
                    <path d="M42,25.4347826 L4,25.4347826 L4,1 C4,0.44771525 4.44771525,-1.35542901e-14 5,-1.36557432e-14 L5,0 L41,0 C41.5522847,-1.01453063e-16 42,0.44771525 42,1 L42,1 L42,25.4347826 Z M19,4.89130435 C17.8952,4.89130435 17,5.76704348 17,6.84782609 C17,7.9286087 17.8952,8.80434783 19,8.80434783 C20.1048,8.80434783 21,7.9286087 21,6.84782609 C21,5.76704348 20.1048,4.89130435 19,4.89130435 Z M34.8956469,20.1007216 C35.0495701,19.827353 35.0318778,19.4969626 34.851416,19.240365 L27.7744844,9.17771448 C27.616138,8.95298195 27.3542916,8.8146205 27.0703297,8.80455785 C26.7899063,8.79868797 26.5139059,8.91608556 26.3405211,9.12823978 L20.6984373,16.0043843 L16.9759713,13.1809723 C16.7751634,13.0275169 16.5124323,12.967141 16.2576627,13.0115843 C16.0037778,13.0568663 15.7835083,13.2061289 15.6552389,13.4191217 L12.1167731,19.2890012 C11.960196,19.548953 11.9610806,19.8676036 12.1194269,20.1258783 C12.2777733,20.384153 12.5696967,20.5434783 12.8846202,20.5434783 L34.1154151,20.5434783 C34.4418386,20.5434783 34.7417236,20.3732518 34.8956469,20.1007216 Z" id="Combined-Shape"></path>
                    <path d="M20.548,34.2391304 L20,34.2391304 L20,36.0048913 L20.387,36.0048913 C20.706,36.0048913 20.959,35.9168478 21.147,35.7407609 C21.335,35.5656522 21.429,35.3240217 21.429,35.0168478 C21.429,34.4983696 21.135,34.2391304 20.548,34.2391304 Z" id="Shape"></path>
                    <path d="M45,27.3913043 L1,27.3913043 C0.448,27.3913043 0,27.8295652 0,28.3695652 L0,44.0217391 C0,44.5617391 0.448,45 1,45 L45,45 C45.552,45 46,44.5617391 46,44.0217391 L46,28.3695652 C46,27.8295652 45.552,27.3913043 45,27.3913043 Z M16.541,39.3573913 C16.541,40.3963043 16.308,41.1847826 15.843,41.718913 C15.378,42.2530435 14.679,42.5191304 13.748,42.5191304 C13.361,42.5191304 12.994,42.4829348 12.647,42.4095652 L12.647,40.796413 C12.762,40.8169565 12.883,40.841413 13.012,40.8678261 C13.141,40.8932609 13.281,40.9069565 13.431,40.9069565 C13.782,40.9069565 14.033,40.8042391 14.183,40.5978261 C14.333,40.3904348 14.409,40.0372826 14.409,39.5354348 L14.409,32.426413 L16.541,32.426413 L16.541,39.3573913 Z M23.161,36.858913 C22.643,37.3275 21.909,37.5603261 20.956,37.5603261 L20.36,37.5603261 L20.36,40.1086957 L18.238,40.1086957 L18.238,32.426413 L20.956,32.426413 C21.948,32.426413 22.693,32.6386957 23.19,33.0613043 C23.688,33.4858696 23.937,34.0884783 23.937,34.8691304 C23.937,35.7280435 23.678,36.3913043 23.161,36.858913 Z M31.73,39.7516304 C30.81,40.0597826 29.798,40.2143478 28.695,40.2143478 C27.485,40.2143478 26.549,39.8709783 25.889,39.1842391 C25.228,38.4975 24.898,37.5182609 24.898,36.2475 C24.898,35.0070652 25.26,34.0415217 25.983,33.3518478 C26.706,32.6621739 27.72,32.3168478 29.023,32.3168478 C29.517,32.3168478 29.983,32.3618478 30.422,32.4528261 C30.86,32.5447826 31.243,32.6602174 31.568,32.8001087 L30.897,34.4279348 C30.331,34.155 29.71,34.0190217 29.033,34.0190217 C28.413,34.0190217 27.934,34.2156522 27.596,34.6098913 C27.257,35.0041304 27.088,35.5676087 27.088,36.2993478 C27.088,37.0173913 27.241,37.5652174 27.547,37.9418478 C27.854,38.3184783 28.295,38.5063043 28.871,38.5063043 C29.186,38.5063043 29.476,38.4769565 29.741,38.4172826 L29.741,37.215 L28.339,37.215 L28.339,35.6116304 L31.728,35.6116304 L31.728,39.7516304 L31.73,39.7516304 Z" id="Shape"></path>
                </g>
            </g>
        </g>
    </g>
</svg>