<?xml version="1.0" encoding="UTF-8"?>
<svg width="40px" height="46px" viewBox="0 0 40 46" version="1.1" xmlns="http://www.w3.org/2000/svg" xmlns:xlink="http://www.w3.org/1999/xlink">
    <!-- Generator: Sketch 47.1 (45422) - http://www.bohemiancoding.com/sketch -->
    <title>page</title>
    <desc>Created with Sketch.</desc>
    <defs></defs>
    <g id="Page-2" stroke="none" stroke-width="1" fill="none" fill-rule="evenodd">
        <g id="inscape-desktop" transform="translate(-568.000000, -2243.000000)" fill-rule="nonzero" fill="#3D3B37">
            <g id="Group-7" transform="translate(411.000000, 2243.000000)">
                <g id="page" transform="translate(157.000000, 0.000000)">
                    <path d="M39,0 L5,0 C4.448,0 4,0.448 4,1 L4,3 L37,3 L37,42 L39,42 C39.552,42 40,41.552 40,41 L40,1 C40,0.448 39.552,0 39,0 Z" id="Shape"></path>
                    <path d="M34,5 L1,5 C0.448,5 0,5.448 0,6 L0,45 C0,45.552 0.448,46 1,46 L34,46 C34.552,46 35,45.552 35,45 L35,6 C35,5.448 34.552,5 34,5 Z M17,35 L8,35 C7.448,35 7,34.552 7,34 C7,33.448 7.448,33 8,33 L17,33 C17.552,33 18,33.448 18,34 C18,34.552 17.552,35 17,35 Z M26,26 L8,26 C7.448,26 7,25.552 7,25 C7,24.448 7.448,24 8,24 L26,24 C26.552,24 27,24.448 27,25 C27,25.552 26.552,26 26,26 Z M27,17 L8,17 C7.448,17 7,16.552 7,16 C7,15.448 7.448,15 8,15 L27,15 C27.552,15 28,15.448 28,16 C28,16.552 27.552,17 27,17 Z" id="Shape"></path>
                </g>
            </g>
        </g>
    </g>
</svg>