<?xml version="1.0" encoding="UTF-8"?>
<svg width="46px" height="44px" viewBox="0 0 46 44" version="1.1" xmlns="http://www.w3.org/2000/svg" xmlns:xlink="http://www.w3.org/1999/xlink">
    <!-- Generator: Sketch 47.1 (45422) - http://www.bohemiancoding.com/sketch -->
    <title>pallete</title>
    <desc>Created with Sketch.</desc>
    <defs></defs>
    <g id="Page-2" stroke="none" stroke-width="1" fill="none" fill-rule="evenodd">
        <g id="inscape-desktop" transform="translate(-647.000000, -2244.000000)" fill-rule="nonzero" fill="#3D3B37">
            <g id="Group-7" transform="translate(411.000000, 2243.000000)">
                <g id="pallete" transform="translate(236.000000, 1.000000)">
                    <path d="M39.4,10.1 C37.4,9.1 35.3,8.7 33.1,8.7 C30,8.7 27.3,9.6 24.8,10.4 C23,11 21.4,11.5 20.1,11.5 C19.1,11.5 18.4,11.2 17.8,10.5 C17.4,10 17.7,8.9 18,7.8 C18.5,6.2 19.1,4.2 17.8,2.5 C17,1.5 15.7,0.9 14.1,0.9 C12.6,0.9 11,1.4 9.7,2.3 C3.7,6.5 0,13.5 0,21 C0,33.7 10.3,44 23,44 C33.2,44 42.3,37.1 45.1,27.2 C45.5,25.9 48.1,14.4 39.4,10.1 Z M6,21 C6,19.3 7.3,18 9,18 C10.7,18 12,19.3 12,21 C12,22.7 10.7,24 9,24 C7.3,24 6,22.7 6,21 Z M14,34 C12.3,34 11,32.7 11,31 C11,29.3 12.3,28 14,28 C15.7,28 17,29.3 17,31 C17,32.7 15.7,34 14,34 Z M25,38 C23.3,38 22,36.7 22,35 C22,33.3 23.3,32 25,32 C26.7,32 28,33.3 28,35 C28,36.7 26.7,38 25,38 Z M33,26 C30.2,26 28,23.8 28,21 C28,18.2 30.2,16 33,16 C35.8,16 38,18.2 38,21 C38,23.8 35.8,26 33,26 Z" id="Shape"></path>
                </g>
            </g>
        </g>
    </g>
</svg>