<?xml version="1.0" encoding="UTF-8"?>
<svg width="37px" height="36px" viewBox="0 0 37 36" version="1.1" xmlns="http://www.w3.org/2000/svg" xmlns:xlink="http://www.w3.org/1999/xlink">
    <!-- Generator: Sketch 47.1 (45422) - http://www.bohemiancoding.com/sketch -->
    <title>pen</title>
    <desc>Created with Sketch.</desc>
    <defs></defs>
    <g id="Page-2" stroke="none" stroke-width="1" fill="none" fill-rule="evenodd">
        <g id="inscape-desktop" transform="translate(-493.000000, -2248.000000)" fill-rule="nonzero" fill="#3D3B37">
            <g id="Group-7" transform="translate(411.000000, 2243.000000)">
                <g id="pen" transform="translate(82.000000, 5.000000)">
                    <path d="M12.2,18.4 L2.3,28.3 C1.1,29.5 0.9,31.4 1.7,32.9 L0.3,34.3 C-0.1,34.7 -0.1,35.3 0.3,35.7 C0.5,35.9 0.7,36 1,36 C1.3,36 1.5,35.9 1.7,35.7 L3.1,34.3 C3.7,34.6 4.3,34.8 5,34.8 C6,34.8 7,34.4 7.7,33.7 L17.6,23.8 L12.2,18.4 Z" id="Shape"></path>
                    <path d="M36.7,13.3 L34.3,10.9 C36.2,8.3 36,4.6 33.7,2.3 C32.5,1 30.8,0.3 29,0.3 C27.2,0.3 25.5,1 24.3,2.3 L12.3,14.3 C11.9,14.7 11.9,15.3 12.3,15.7 L20.3,23.7 C20.5,23.9 20.8,24 21,24 C21.2,24 21.5,23.9 21.7,23.7 L33,12.4 L34.6,14 L27.3,21.3 C26.9,21.7 26.9,22.3 27.3,22.7 C27.5,22.9 27.8,23 28,23 C28.2,23 28.5,22.9 28.7,22.7 L36.7,14.7 C37.1,14.3 37.1,13.7 36.7,13.3 Z" id="Shape"></path>
                </g>
            </g>
        </g>
    </g>
</svg>