<?xml version="1.0" encoding="UTF-8"?>
<svg width="43px" height="42px" viewBox="0 0 43 42" version="1.1" xmlns="http://www.w3.org/2000/svg" xmlns:xlink="http://www.w3.org/1999/xlink">
    <!-- Generator: Sketch 47.1 (45422) - http://www.bohemiancoding.com/sketch -->
    <title>quill</title>
    <desc>Created with Sketch.</desc>
    <defs></defs>
    <g id="Page-2" stroke="none" stroke-width="1" fill="none" fill-rule="evenodd">
        <g id="inscape-desktop" transform="translate(-411.000000, -2245.000000)" fill-rule="nonzero" fill="#3D3B37">
            <g id="Group-7" transform="translate(411.000000, 2243.000000)">
                <g id="quill" transform="translate(0.000000, 2.000000)">
                    <path d="M41.7,0.3 C41.5,0.1 41.2,0 40.8,0 C39.9,0.1 18.9,3.7 10.3,12.3 C3.6,19 4.1,26.4 5.3,30.8 L15.1,24.1 C15.6,23.8 16.2,24.4 15.7,24.9 L0.3,40.3 C-0.1,40.7 -0.1,41.3 0.3,41.7 C0.5,41.9 0.7,42 1,42 C1.3,42 1.5,41.9 1.7,41.7 L7.9,35.5 C9.2,36.1 12.4,37.4 16.5,37.4 C21.5,37.4 26,35.5 29.8,31.7 C30.1,31.4 30.2,31 30,30.6 L27,23 L32.9,25.9 C33.4,26.1 34,25.9 34.2,25.5 C39,16.1 42,1.8 42.1,1.2 C42,0.9 41.9,0.5 41.7,0.3 Z" id="Shape"></path>
                </g>
            </g>
        </g>
    </g>
</svg>