<?xml version="1.0" encoding="UTF-8"?>
<svg width="46px" height="46px" viewBox="0 0 46 46" version="1.1" xmlns="http://www.w3.org/2000/svg" xmlns:xlink="http://www.w3.org/1999/xlink">
    <!-- Generator: Sketch 47.1 (45422) - http://www.bohemiancoding.com/sketch -->
    <title>shapes</title>
    <desc>Created with Sketch.</desc>
    <defs></defs>
    <g id="Page-2" stroke="none" stroke-width="1" fill="none" fill-rule="evenodd">
        <g id="inscape-desktop" transform="translate(-815.000000, -2243.000000)" fill-rule="nonzero" fill="#3D3B37">
            <g id="Group-7" transform="translate(411.000000, 2243.000000)">
                <g id="shapes" transform="translate(404.000000, 0.000000)">
                    <path d="M44,0 L2,0 C0.895,0 0,0.895 0,2 L0,44 C0,45.105 0.895,46 2,46 L44,46 C45.105,46 46,45.105 46,44 L46,2 C46,0.895 45.105,0 44,0 Z M19,34 L14,34 L14,39 C14,39.552 13.552,40 13,40 C12.448,40 12,39.552 12,39 L12,34 L7,34 C6.448,34 6,33.552 6,33 C6,32.448 6.448,32 7,32 L12,32 L12,27 C12,26.448 12.448,26 13,26 C13.552,26 14,26.448 14,27 L14,32 L19,32 C19.552,32 20,32.448 20,33 C20,33.552 19.552,34 19,34 Z M13,20 C9.14,20 6,16.86 6,13 C6,9.14 9.14,6 13,6 C16.86,6 20,9.14 20,13 C20,16.86 16.86,20 13,20 Z M39.87,39.493 C39.693,39.806 39.36,40 39,40 L27,40 C26.64,40 26.307,39.806 26.13,39.493 C25.952,39.18 25.957,38.795 26.143,38.486 L32.143,28.486 C32.504,27.883 33.497,27.883 33.858,28.486 L39.858,38.486 C40.043,38.794 40.048,39.179 39.87,39.493 Z M40,19 C40,19.552 39.552,20 39,20 L27,20 C26.448,20 26,19.552 26,19 L26,7 C26,6.448 26.448,6 27,6 L39,6 C39.552,6 40,6.448 40,7 L40,19 Z" id="Shape"></path>
                </g>
            </g>
        </g>
    </g>
</svg>