<svg xmlns="http://www.w3.org/2000/svg" xmlns:xlink="http://www.w3.org/1999/xlink" x="0px" y="0px" width="32px" height="32px" viewBox="0 0 32 32"><g >
<path data-color="color-2" fill="#292b33" d="M30,13H2c-0.6,0-1,0.4-1,1v4c0,0.6,0.4,1,1,1h28c0.6,0,1-0.4,1-1v-4C31,13.4,30.6,13,30,13z"/>
<path fill="#292b33" d="M30,3H2C1.4,3,1,3.4,1,4v4c0,0.6,0.4,1,1,1h28c0.6,0,1-0.4,1-1V4C31,3.4,30.6,3,30,3z"/>
<path fill="#292b33" d="M30,23H2c-0.6,0-1,0.4-1,1v4c0,0.6,0.4,1,1,1h28c0.6,0,1-0.4,1-1v-4C31,23.4,30.6,23,30,23z"/>
</g></svg>