<svg width="46" height="46" xmlns="http://www.w3.org/2000/svg"><g fill="#3D3B37"><path d="M4 42v3a1 1 0 0 0 1 1h36a1 1 0 0 0 1-1v-3H4zm38-22v-7H30a1 1 0 0 1-1-1V0H5a1 1 0 0 0-1 1v19h38z"/><path d="M31 1.586V11h9.414zm-7.527 27.178c-1.063 0-1.596.767-1.596 2.299 0 1.519.529 2.277 1.585 2.277.537 0 .936-.184 1.194-.553.26-.369.391-.943.391-1.725 0-.783-.133-1.363-.395-1.737-.263-.374-.656-.561-1.179-.561zm-8.873.097h-.617v4.398h.473c.645 0 1.117-.188 1.418-.562.301-.374.451-.946.451-1.716 0-.72-.143-1.253-.428-1.601-.285-.346-.717-.519-1.297-.519z"/><path d="M45 22H1a1 1 0 0 0-1 1v16a1 1 0 0 0 1 1h44a1 1 0 0 0 1-1V23a1 1 0 0 0-1-1zM17.443 33.937C16.723 34.646 15.708 35 14.4 35h-2.54v-7.853h2.718c1.26 0 2.233.322 2.919.967.687.645 1.028 1.575 1.028 2.793 0 1.311-.36 2.321-1.082 3.03zm8.866.139c-.648.688-1.598 1.031-2.847 1.031-1.231 0-2.177-.346-2.833-1.037-.657-.69-.986-1.697-.986-3.018 0-1.308.327-2.306.98-2.995.654-.689 1.604-1.034 2.85-1.034 1.25 0 2.197.343 2.842 1.026s.967 1.688.967 3.013c-.001 1.323-.325 2.327-.973 3.014zm6.004-.703a3.52 3.52 0 0 0 1.01-.146c.325-.097.653-.213.983-.349v1.793c-.656.291-1.396.436-2.225.436-1.185 0-2.094-.344-2.725-1.031-.633-.688-.949-1.682-.949-2.98 0-.813.154-1.527.459-2.144a3.296 3.296 0 0 1 1.322-1.421c.574-.331 1.25-.496 2.027-.496.849 0 1.66.184 2.434.553L34 29.258c-.29-.136-.58-.25-.87-.344a3.046 3.046 0 0 0-.935-.139c-.505 0-.898.206-1.182.62-.283.413-.424.983-.424 1.71.001 1.512.575 2.268 1.724 2.268z"/></g></svg>