<svg width="618" height="85" xmlns="http://www.w3.org/2000/svg"><g transform="translate(0 -3)" fill="none" fill-rule="evenodd"><path d="M184.14 38l3.64-9.52h2.058l3.612 9.408-2.156.252-.77-2.198h-3.458L186.324 38h-2.184zm3.542-3.794h2.198l-1.12-2.954-1.078 2.954zm9.128-1.33c-.27 0-.579.042-.924.126a4.937 4.937 0 0 0-.91.308l-.588-1.68c.308-.168.733-.315 1.274-.441a6.494 6.494 0 0 1 1.456-.189c.57 0 1.073.112 1.512.336.439.224.777.539 1.015.945.238.406.357.87.357 1.393V38h-1.218l-.518-.714c-.504.579-1.06.868-1.666.868-.821 0-1.442-.203-1.862-.609-.42-.406-.63-.959-.63-1.659 0-.69.233-1.209.7-1.554.467-.345 1.106-.518 1.918-.518h1.064c-.019-.299-.114-.53-.287-.693-.173-.163-.404-.245-.693-.245zm-.07 2.254a.781.781 0 0 0-.567.21.709.709 0 0 0-.217.532c0 .168.06.313.182.434.121.121.28.182.476.182.41 0 .807-.177 1.19-.532v-.826h-1.064zm15.652.042c0 .943-.345 1.65-1.036 2.121-.69.471-1.582.707-2.674.707h-3.752v-9.52h3.514c1.055 0 1.906.222 2.555.665.649.443.973 1.122.973 2.037 0 .579-.317 1.148-.952 1.708.42.261.754.583 1.001.966.247.383.371.821.371 1.316zm-2.702-3.906c0-.681-.476-1.022-1.428-1.022h-1.148v1.974h.952c.476 0 .866-.08 1.169-.238.303-.159.455-.397.455-.714zm.434 3.892c0-.373-.128-.665-.385-.875-.257-.21-.604-.315-1.043-.315h-1.582v2.282h1.526c.448 0 .807-.096 1.078-.287a.93.93 0 0 0 .406-.805zm10.22-.616c0 1.13-.315 2.014-.945 2.653-.63.64-1.491.959-2.583.959-.588 0-1.167-.2-1.736-.602l-.392.448h-1.12v-9.73l2.184-.154v3.122A2.842 2.842 0 0 1 216.9 31c1.055 0 1.892.308 2.513.924.62.616.931 1.489.931 2.618zm-2.254.014c0-.56-.126-.999-.378-1.316-.252-.317-.602-.476-1.05-.476-.29 0-.593.107-.91.322v3.024c.327.196.649.294.966.294.41 0 .742-.17.994-.511.252-.34.378-.786.378-1.337zm10.878-6.258c.41 0 .863.06 1.358.182.495.121.929.294 1.302.518l-.658 1.512c-.504-.159-.88-.266-1.127-.322a4.079 4.079 0 0 0-.889-.084c-.439 0-.847.13-1.225.392-.378.261-.679.632-.903 1.113-.224.48-.336 1.034-.336 1.659 0 .597.107 1.132.322 1.603.215.471.509.84.882 1.106a2.12 2.12 0 0 0 1.26.399 4.31 4.31 0 0 0 1.946-.476l.826 1.624c-.355.205-.791.366-1.309.483a6.618 6.618 0 0 1-1.449.175c-.99 0-1.841-.21-2.555-.63a4.14 4.14 0 0 1-1.631-1.743c-.373-.742-.56-1.584-.56-2.527 0-.961.2-1.82.602-2.576a4.42 4.42 0 0 1 1.68-1.771c.719-.425 1.54-.637 2.464-.637zM235.87 31c.355 0 .751.056 1.19.168.439.112.821.29 1.148.532l-.616 1.526a4.89 4.89 0 0 0-.826-.315 2.997 2.997 0 0 0-.756-.091 1.4 1.4 0 0 0-1.099.504c-.294.336-.441.765-.441 1.288s.147.943.441 1.26c.294.317.66.476 1.099.476.261 0 .513-.033.756-.098s.518-.173.826-.322l.616 1.54c-.317.252-.693.43-1.127.532a5.28 5.28 0 0 1-1.211.154c-.728 0-1.37-.14-1.925-.42a2.996 2.996 0 0 1-1.288-1.225c-.303-.537-.455-1.169-.455-1.897s.152-1.365.455-1.911a3.104 3.104 0 0 1 1.288-1.26c.555-.294 1.197-.441 1.925-.441zm15.19 2.184c0 .98-.182 1.832-.546 2.555a3.936 3.936 0 0 1-1.554 1.673c-.672.392-1.46.588-2.366.588h-3.948v-9.52h3.976c.952 0 1.762.2 2.429.602a3.807 3.807 0 0 1 1.505 1.659c.336.705.504 1.519.504 2.443zm-2.268 0c0-.905-.187-1.62-.56-2.142-.373-.523-.92-.784-1.638-.784h-1.764v5.978h1.666c.71 0 1.27-.252 1.68-.756.41-.504.616-1.27.616-2.296zM258.718 38h-1.12l-.406-.546c-.28.215-.583.385-.91.511a2.778 2.778 0 0 1-1.008.189c-1.055 0-1.895-.308-2.52-.924-.625-.616-.938-1.489-.938-2.618 0-1.13.317-2.014.952-2.653.635-.64 1.498-.959 2.59-.959.383 0 .77.093 1.162.28v-3.01l2.198-.154V38zm-3.206-1.596c.308 0 .644-.13 1.008-.392v-2.898a1.835 1.835 0 0 0-1.064-.35c-.41 0-.742.168-.994.504-.252.336-.378.78-.378 1.33 0 .56.126 1.001.378 1.323.252.322.602.483 1.05.483zm14.91-.112l.266 1.708h-6.832v-9.52h6.566l.266 1.722h-4.648v2.142h3.024l.266 1.722h-3.29v2.226h4.382zM274.818 31c.69 0 1.274.159 1.75.476.476.317.833.742 1.071 1.274s.357 1.13.357 1.792v.658h-4.354c.205.793.803 1.19 1.792 1.19.644 0 1.283-.177 1.918-.532l.616 1.526a3.84 3.84 0 0 1-1.169.56 5.22 5.22 0 0 1-1.519.21c-1.241 0-2.219-.313-2.933-.938s-1.071-1.493-1.071-2.604c0-.728.15-1.365.448-1.911a3.103 3.103 0 0 1 1.253-1.26c.537-.294 1.15-.441 1.841-.441zm-.056 1.806c-.308 0-.567.105-.777.315-.21.21-.334.488-.371.833h2.296c-.056-.345-.18-.623-.371-.833-.191-.21-.45-.315-.777-.315zm9.982-.336h2.954l.252 1.722h-3.206V38h-2.184v-9.506h5.796l.252 1.708h-3.864v2.268zm5.39.602h-1.092v-1.708h1.092v-.574c0-.821.273-1.465.819-1.932.546-.467 1.244-.7 2.093-.7.27 0 .567.054.889.161.322.107.567.231.735.371l-.63 1.526a1.878 1.878 0 0 0-.868-.224c-.27 0-.48.096-.63.287-.15.191-.224.45-.224.777v.308h1.582l.406 1.708h-1.988v8.148h-2.184v-8.148zm14.154 1.218h-1.806l.182-1.638h3.598v4.83c-.364.215-.838.385-1.421.511a8.047 8.047 0 0 1-1.701.189c-.99 0-1.855-.205-2.597-.616a4.26 4.26 0 0 1-1.715-1.722c-.401-.737-.602-1.591-.602-2.562 0-.98.222-1.848.665-2.604a4.596 4.596 0 0 1 1.827-1.757c.775-.415 1.633-.623 2.576-.623.43 0 .92.06 1.47.182.55.121 1.008.294 1.372.518l-.658 1.512c-.485-.15-.877-.254-1.176-.315a4.928 4.928 0 0 0-.98-.091c-.485 0-.945.119-1.379.357-.434.238-.784.597-1.05 1.078-.266.48-.399 1.057-.399 1.729 0 .663.121 1.227.364 1.694.243.467.565.819.966 1.057s.845.357 1.33.357c.327 0 .705-.037 1.134-.112V34.29zm9.772 3.976c0 .597-.152 1.12-.455 1.568-.303.448-.733.791-1.288 1.029-.555.238-1.197.357-1.925.357-.373 0-.868-.07-1.484-.21-.616-.14-1.106-.331-1.47-.574l.658-1.54c.756.373 1.48.56 2.17.56.476 0 .861-.11 1.155-.329.294-.22.441-.511.441-.875v-.378a3.05 3.05 0 0 1-1.246.28c-1.055 0-1.895-.308-2.52-.924-.625-.616-.938-1.489-.938-2.618 0-1.13.317-2.014.952-2.653.635-.64 1.498-.959 2.59-.959.317 0 .64.063.966.189.327.126.63.306.91.539l.364-.504h1.12v7.042zm-2.198-2.254v-2.898a1.835 1.835 0 0 0-1.064-.35c-.41 0-.742.168-.994.504-.252.336-.378.78-.378 1.33 0 .56.126 1.001.378 1.323.252.322.602.483 1.05.483.308 0 .644-.13 1.008-.392zm15.19-7.532V38h-2.184v-3.878h-3.542V38h-2.184v-9.52l2.184-.084v3.99h3.542V28.48h2.184zm8.848 5.194V38h-2.184v-4.158c0-.327-.072-.586-.217-.777-.145-.191-.357-.287-.637-.287-.392 0-.924.196-1.596.588V38h-2.184v-9.73l2.184-.154v3.528c.364-.196.74-.355 1.127-.476a3.72 3.72 0 0 1 1.113-.182c1.596 0 2.394.896 2.394 2.688zm7.126-5.194V38h-2.184v-9.52h2.184zm4.2.588c0 .327-.119.609-.357.847a1.173 1.173 0 0 1-.861.357c-.327 0-.609-.119-.847-.357a1.157 1.157 0 0 1-.357-.847c0-.336.119-.623.357-.861s.52-.357.847-.357c.336 0 .623.119.861.357s.357.525.357.861zm-.112 2.142V38h-2.198v-6.79h2.198zm3.976 6.566c.327-.121.572-.245.735-.371a.914.914 0 0 0 .322-.406 1.73 1.73 0 0 0 .077-.567V28.48h2.198v8.456c0 .457-.077.833-.231 1.127-.154.294-.406.548-.756.763-.35.215-.838.425-1.463.63l-.882-1.68zm5.18-8.708c0-.336.119-.623.357-.861s.52-.357.847-.357c.336 0 .623.119.861.357s.357.525.357.861c0 .327-.119.609-.357.847a1.173 1.173 0 0 1-.861.357c-.317 0-.597-.119-.84-.357a1.146 1.146 0 0 1-.364-.847zm2.31 2.142v10.01h-2.198V31.21h2.198zm7.252 3.878V38h-2.198v-9.52h2.198v3.64l3.976-3.85 1.666 1.232-3.262 3.22L372.076 38h-2.758l-2.646-3.752-.84.84zm9.436.714V38h-2.184v-9.73l2.184-.154v5.306l2.73-2.408 1.274 1.526-1.848 1.512 2.38 3.948h-2.408l-1.526-2.702-.602.504zm-187.936 23.49h4.13l.252 1.708h-6.566v-9.52h2.184v7.812zm7.574-8.176V61h-2.184v-9.73l2.184-.154zm11.62 4.844L205 58.074l-.868.126-1.904-2.394V61h-2.184v-9.52h1.456l3.052 4.004 2.772-4.004h1.4V61h-2.198v-5.04zm15.12.588V61h-2.184v-4.158c0-.345-.054-.609-.161-.791-.107-.182-.306-.273-.595-.273a1.65 1.65 0 0 0-.658.161c-.243.107-.513.25-.812.427V61h-2.184v-4.158c0-.345-.054-.609-.161-.791-.107-.182-.306-.273-.595-.273-.196 0-.418.054-.665.161-.247.107-.52.25-.819.427V61h-2.198v-6.79h1.358l.378.714c.41-.28.845-.506 1.302-.679a3.656 3.656 0 0 1 1.288-.259c.915 0 1.554.294 1.918.882a6.39 6.39 0 0 1 1.26-.637 3.575 3.575 0 0 1 1.246-.245c.812 0 1.395.222 1.75.665.355.443.532 1.076.532 1.897zm7.126-1.232V61h-2.184v-9.52h2.1l4.032 5.754V51.48h2.184V61h-2.1l-4.032-5.684zm11.816.462c-.392 0-.924.196-1.596.588V61h-2.198v-6.79h1.358l.378.714a5.9 5.9 0 0 1 1.337-.679c.48-.173.936-.259 1.365-.259.84 0 1.449.24 1.827.721.378.48.567 1.136.567 1.967V61h-2.198v-4.158c0-.327-.07-.586-.21-.777-.14-.191-.35-.287-.63-.287zm10.15 3.514h4.13L255.12 61h-6.566v-9.52h2.184v7.812zm7.574-8.176V61h-2.184v-9.73l2.184-.154zm4.438 5.166c0-.961.203-1.82.609-2.576a4.488 4.488 0 0 1 1.701-1.778c.728-.43 1.559-.649 2.492-.658.99 0 1.846.217 2.569.651a4.332 4.332 0 0 1 1.659 1.771c.383.747.574 1.577.574 2.492 0 .97-.203 1.834-.609 2.59a4.44 4.44 0 0 1-1.701 1.771c-.728.425-1.559.642-2.492.651-.98 0-1.832-.217-2.555-.651a4.38 4.38 0 0 1-1.666-1.771c-.387-.747-.581-1.577-.581-2.492zm4.83-3.178c-.467 0-.894.13-1.281.392-.387.261-.698.632-.931 1.113-.233.48-.35 1.034-.35 1.659 0 .915.226 1.659.679 2.233.453.574 1.066.861 1.841.861.476 0 .908-.119 1.295-.357.387-.238.693-.595.917-1.071.224-.476.336-1.06.336-1.75 0-.588-.103-1.115-.308-1.582a2.576 2.576 0 0 0-.875-1.099 2.24 2.24 0 0 0-1.323-.399zm9.254 8.05c-.737 0-1.386-.138-1.946-.413a3.03 3.03 0 0 1-1.309-1.218c-.313-.537-.469-1.183-.469-1.939 0-.728.161-1.363.483-1.904a3.23 3.23 0 0 1 1.33-1.246c.565-.29 1.211-.434 1.939-.434.737 0 1.388.142 1.953.427a3.096 3.096 0 0 1 1.316 1.239c.313.541.469 1.19.469 1.946 0 .728-.161 1.358-.483 1.89-.322.532-.768.94-1.337 1.225-.57.285-1.218.427-1.946.427zm1.498-3.542c0-.523-.133-.952-.399-1.288a1.281 1.281 0 0 0-1.057-.504c-.457 0-.821.161-1.092.483-.27.322-.406.749-.406 1.281 0 .532.133.959.399 1.281.266.322.623.483 1.071.483.448 0 .807-.159 1.078-.476.27-.317.406-.737.406-1.26zm9.016.35V61h-2.184v-9.52h3.514c.719 0 1.367.119 1.946.357s1.038.6 1.379 1.085c.34.485.511 1.087.511 1.806 0 .71-.182 1.307-.546 1.792a3.27 3.27 0 0 1-1.449 1.085 5.303 5.303 0 0 1-1.967.357h-1.204zm2.884-3.178c0-.504-.142-.887-.427-1.148-.285-.261-.684-.392-1.197-.392h-1.26v2.968h1.288c.467 0 .847-.128 1.141-.385.294-.257.446-.604.455-1.043zm10.192 2.758c0 1.13-.315 2.014-.945 2.653-.63.64-1.491.959-2.583.959-.336 0-.69-.075-1.064-.224v3.29h-2.184v-9.996h1.106l.378.42c.588-.43 1.204-.644 1.848-.644 1.055 0 1.892.308 2.513.924.62.616.931 1.489.931 2.618zm-2.254.014c0-.56-.126-.999-.378-1.316-.252-.317-.602-.476-1.05-.476-.29 0-.593.107-.91.322v3.024c.327.196.649.294.966.294.41 0 .742-.17.994-.511.252-.34.378-.786.378-1.337zm14.616 1.988l.882.924-1.33 1.148-.952-.952c-.681.345-1.442.523-2.282.532-.98 0-1.832-.217-2.555-.651a4.38 4.38 0 0 1-1.666-1.771c-.387-.747-.581-1.577-.581-2.492 0-.961.203-1.82.609-2.576a4.488 4.488 0 0 1 1.701-1.778c.728-.43 1.559-.649 2.492-.658.99 0 1.846.217 2.569.651a4.332 4.332 0 0 1 1.659 1.771c.383.747.574 1.577.574 2.492a5.83 5.83 0 0 1-.287 1.855 4.5 4.5 0 0 1-.833 1.505zm-2.856-.322l-1.162-1.148 1.47-1.19 1.05 1.092c.233-.495.35-1.092.35-1.792 0-.588-.103-1.115-.308-1.582a2.576 2.576 0 0 0-.875-1.099 2.24 2.24 0 0 0-1.323-.399c-.467 0-.894.13-1.281.392-.387.261-.698.632-.931 1.113-.233.48-.35 1.034-.35 1.659 0 .915.226 1.659.679 2.233.453.574 1.066.861 1.841.861.308 0 .588-.047.84-.14zm11.634 4.998h-2.198v-3.346a3.05 3.05 0 0 1-1.246.28c-1.055 0-1.895-.308-2.52-.924-.625-.616-.938-1.489-.938-2.618 0-1.13.317-2.014.952-2.653.635-.64 1.498-.959 2.59-.959.317 0 .637.063.959.189.322.126.618.301.889.525l.392-.49h1.12v9.996zm-2.198-5.208v-2.898a1.835 1.835 0 0 0-1.064-.35c-.41 0-.742.168-.994.504-.252.336-.378.78-.378 1.33 0 .56.126 1.001.378 1.323.252.322.602.483 1.05.483.308 0 .644-.13 1.008-.392zm7.28 1.988v-9.52h3.514c1.12 0 2.04.259 2.758.777.719.518 1.078 1.29 1.078 2.317 0 .56-.13 1.055-.392 1.484-.261.43-.616.77-1.064 1.022l2.226 3.92h-2.45l-1.778-3.304h-1.708V61h-2.184zm5.068-6.384c0-.467-.14-.812-.42-1.036-.28-.224-.681-.336-1.204-.336h-1.26v2.716h1.288c.476 0 .861-.119 1.155-.357.294-.238.441-.567.441-.987zm8.386 1.344c-.327 0-.702.091-1.127.273a4.38 4.38 0 0 0-1.141.707V61h-2.198v-6.776h1.12l.616.966a6.028 6.028 0 0 1 1.134-.679c.43-.2.817-.301 1.162-.301l.434 1.75zm6.776 5.222c-.439 0-.959-.08-1.561-.238-.602-.159-1.071-.34-1.407-.546l.63-1.708c.299.159.67.306 1.113.441.443.135.838.203 1.183.203.467 0 .826-.082 1.078-.245.252-.163.378-.38.378-.651 0-.177-.096-.34-.287-.49a9.248 9.248 0 0 0-.931-.602 6.954 6.954 0 0 1-.42-.238c-.635-.383-1.132-.7-1.491-.952a4.008 4.008 0 0 1-.952-.952 2.152 2.152 0 0 1-.413-1.288c.01-.504.152-.954.427-1.351s.67-.71 1.183-.938c.513-.229 1.115-.343 1.806-.343.467 0 .947.068 1.442.203s.929.315 1.302.539l-.672 1.596a8.618 8.618 0 0 0-1.106-.392 3.745 3.745 0 0 0-.938-.112c-.345 0-.628.072-.847.217a.677.677 0 0 0-.329.595c0 .205.091.385.273.539.182.154.474.338.875.553.15.065.303.15.462.252a23.92 23.92 0 0 1 1.54.959c.355.247.667.56.938.938.27.378.406.81.406 1.295 0 .523-.147.99-.441 1.4-.294.41-.719.733-1.274.966-.555.233-1.211.35-1.967.35zm6.958-.028c-.373 0-.826-.06-1.358-.182-.532-.121-.957-.308-1.274-.56l.644-1.428c.29.14.609.254.959.343.35.089.646.133.889.133.224 0 .422-.04.595-.119.173-.08.259-.189.259-.329 0-.121-.082-.238-.245-.35a2.666 2.666 0 0 0-.679-.308c-.681-.233-1.241-.523-1.68-.868-.439-.345-.658-.784-.658-1.316 0-.672.252-1.202.756-1.589s1.195-.581 2.072-.581c.355 0 .768.058 1.239.175.471.117.87.296 1.197.539l-.63 1.428c-.653-.29-1.232-.434-1.736-.434a1.02 1.02 0 0 0-.532.126c-.14.084-.21.191-.21.322 0 .15.294.327.882.532 1.559.541 2.338 1.297 2.338 2.268 0 .7-.24 1.241-.721 1.624-.48.383-1.183.574-2.107.574zm6.398-9.674h7.924l.266 1.722h-3.15V61h-2.198v-7.798h-2.842V51.48zm11.634 2.884h1.512l.392 1.708h-1.904v2.268c0 .317.08.574.238.77.159.196.378.294.658.294.29 0 .579-.075.868-.224l.63 1.526c-.159.13-.401.247-.728.35a3.04 3.04 0 0 1-.91.154c-.859 0-1.563-.224-2.114-.672-.55-.448-.826-1.083-.826-1.904v-2.562h-.98v-1.708h.98v-1.722l2.184-.336v2.058zM185.008 74.48h2.198v5.838c0 .672.173 1.18.518 1.526.345.345.807.518 1.386.518.579 0 1.04-.175 1.386-.525.345-.35.518-.856.518-1.519V74.48h2.198v5.964c0 .756-.17 1.414-.511 1.974-.34.56-.821.994-1.442 1.302-.62.308-1.337.462-2.149.462s-1.528-.154-2.149-.462a3.382 3.382 0 0 1-1.435-1.302c-.336-.56-.504-1.218-.504-1.974l-.014-5.964zm12.936 7.966c.42 0 .947-.2 1.582-.602v-4.62h2.198v6.79h-1.218l-.518-.714c-.42.27-.866.495-1.337.672a3.835 3.835 0 0 1-1.351.266c-.85 0-1.463-.243-1.841-.728-.378-.485-.567-1.143-.567-1.974v-4.312h2.198v4.144c0 .336.07.6.21.791.14.191.355.287.644.287zm7.756-7.854l2.17-.252 2.52 6.888 2.45-6.748h2.17L211.384 84h-2.058l-3.626-9.408zm16.814 2.618L219.84 84h-1.988l-2.492-6.44 2.072-.602 1.456 4.228 1.4-3.976h2.226zM234.26 84l-1.75-6.454L230.816 84h-2.058l-2.856-9.408 2.17-.252 1.75 6.888 1.61-6.748h2.184l1.708 6.748 1.596-6.748h2.184l-2.8 9.52h-2.044zm8.834-7c.69 0 1.274.159 1.75.476.476.317.833.742 1.071 1.274s.357 1.13.357 1.792v.658h-4.354c.205.793.803 1.19 1.792 1.19.644 0 1.283-.177 1.918-.532l.616 1.526a3.84 3.84 0 0 1-1.169.56 5.22 5.22 0 0 1-1.519.21c-1.241 0-2.219-.313-2.933-.938s-1.071-1.493-1.071-2.604c0-.728.15-1.365.448-1.911a3.103 3.103 0 0 1 1.253-1.26c.537-.294 1.15-.441 1.841-.441zm-.056 1.806c-.308 0-.567.105-.777.315-.21.21-.334.488-.371.833h2.296c-.056-.345-.18-.623-.371-.833-.191-.21-.45-.315-.777-.315zm6.51 5.348c-.373 0-.826-.06-1.358-.182-.532-.121-.957-.308-1.274-.56l.644-1.428c.29.14.609.254.959.343.35.089.646.133.889.133.224 0 .422-.04.595-.119.173-.08.259-.189.259-.329 0-.121-.082-.238-.245-.35a2.666 2.666 0 0 0-.679-.308c-.681-.233-1.241-.523-1.68-.868-.439-.345-.658-.784-.658-1.316 0-.672.252-1.202.756-1.589s1.195-.581 2.072-.581c.355 0 .768.058 1.239.175.471.117.87.296 1.197.539l-.63 1.428c-.653-.29-1.232-.434-1.736-.434a1.02 1.02 0 0 0-.532.126c-.14.084-.21.191-.21.322 0 .15.294.327.882.532 1.559.541 2.338 1.297 2.338 2.268 0 .7-.24 1.241-.721 1.624-.48.383-1.183.574-2.107.574zm6.454-6.79h1.512l.392 1.708h-1.904v2.268c0 .317.08.574.238.77.159.196.378.294.658.294.29 0 .579-.075.868-.224l.63 1.526c-.159.13-.401.247-.728.35a3.04 3.04 0 0 1-.91.154c-.859 0-1.563-.224-2.114-.672-.55-.448-.826-1.083-.826-1.904v-2.562h-.98v-1.708h.98v-1.722l2.184-.336v2.058zM270.17 84l-1.75-6.454L266.726 84h-2.058l-2.856-9.408 2.17-.252 1.75 6.888 1.61-6.748h2.184l1.708 6.748 1.596-6.748h2.184l-2.8 9.52h-2.044zm8.022-8.932c0 .327-.119.609-.357.847a1.173 1.173 0 0 1-.861.357c-.327 0-.609-.119-.847-.357a1.157 1.157 0 0 1-.357-.847c0-.336.119-.623.357-.861s.52-.357.847-.357c.336 0 .623.119.861.357s.357.525.357.861zm-.112 2.142V84h-2.198v-6.79h2.198zm5.25 1.568c-.392 0-.924.196-1.596.588V84h-2.198v-6.79h1.358l.378.714a5.9 5.9 0 0 1 1.337-.679c.48-.173.936-.259 1.365-.259.84 0 1.449.24 1.827.721.378.48.567 1.136.567 1.967V84h-2.198v-4.158c0-.327-.07-.586-.21-.777-.14-.191-.35-.287-.63-.287zm10.92 5.488c0 .597-.152 1.12-.455 1.568-.303.448-.733.791-1.288 1.029-.555.238-1.197.357-1.925.357-.373 0-.868-.07-1.484-.21-.616-.14-1.106-.331-1.47-.574l.658-1.54c.756.373 1.48.56 2.17.56.476 0 .861-.11 1.155-.329.294-.22.441-.511.441-.875v-.378a3.05 3.05 0 0 1-1.246.28c-1.055 0-1.895-.308-2.52-.924-.625-.616-.938-1.489-.938-2.618 0-1.13.317-2.014.952-2.653.635-.64 1.498-.959 2.59-.959.317 0 .64.063.966.189.327.126.63.306.91.539l.364-.504h1.12v7.042zm-2.198-2.254v-2.898a1.835 1.835 0 0 0-1.064-.35c-.41 0-.742.168-.994.504-.252.336-.378.78-.378 1.33 0 .56.126 1.001.378 1.323.252.322.602.483 1.05.483.308 0 .644-.13 1.008-.392zm10.864-1.092L300.774 84h-2.45l3.318-4.774-3.094-4.354 2.17-.714L303 77.504l1.974-3.024h2.534l-3.248 4.732L307.424 84h-2.59l-1.918-3.08zm8.456 1.33l-1.12 1.75h-2.45l2.254-3.416-2.128-3.038 2.086-.546 1.358 2.114 1.218-1.904h2.408l-2.31 3.57 2.198 3.22h-2.436l-1.078-1.75zm12.264-1.932V84h-2.184v-3.738l-3.066-5.376 2.114-.602 2.03 3.892 2.142-3.696h2.268l-3.304 5.838zm10.808-3.108l-2.66 6.762v3.248h-2.002V84l-2.492-6.44 2.072-.602 1.456 4.228 1.4-3.976h2.226zm5.838 5.082h5.082l.224 1.708h-7.518l-.252-1.61 5.152-6.188h-4.522l-.224-1.722h7.084l.238 1.624-5.264 6.188zm5.894-5.082h5.418l.112 1.232-3.066 3.822h3.08l.182 1.736h-5.698l-.28-1.148 3.08-3.892h-2.548l-.28-1.75zM.13 84L29.51 7.16h16.611l29.154 75.936-17.402 2.034-6.215-17.741H23.747L17.758 84H.13zm28.589-30.623H46.46l-9.04-23.843-8.701 23.843zm73.676-10.735c-2.185 0-4.67.339-7.458 1.017-2.787.678-5.236 1.507-7.345 2.486l-4.746-13.56c2.486-1.356 5.914-2.542 10.283-3.56 4.37-1.017 8.287-1.525 11.752-1.525 4.595 0 8.663.904 12.204 2.712 3.54 1.808 6.271 4.35 8.193 7.628 1.92 3.277 2.881 7.024 2.881 11.243V84h-9.831l-4.181-5.763c-4.068 4.67-8.55 7.006-13.447 7.006-6.63 0-11.639-1.638-15.029-4.915-3.39-3.278-5.085-7.741-5.085-13.391 0-5.575 1.883-9.756 5.65-12.543 3.767-2.787 8.927-4.181 15.481-4.181h8.588c-.15-2.41-.923-4.275-2.317-5.593-1.393-1.319-3.258-1.978-5.593-1.978zm-.565 18.193c-1.883 0-3.409.565-4.576 1.695-1.168 1.13-1.752 2.561-1.752 4.294 0 1.356.49 2.524 1.469 3.503.98.98 2.26 1.469 3.842 1.469 3.315 0 6.516-1.431 9.605-4.294v-6.667h-8.588z" fill="#3D3B37"/><path d="M457.14 11.48h7.126l.07.546h-3.262V21h-.686v-8.974h-3.248v-.546zm13.552 4.802V21h-.686v-4.718c0-.523-.093-.933-.28-1.232-.187-.299-.518-.448-.994-.448-.737 0-1.554.457-2.45 1.372V21h-.686v-9.744l.686-.14v4.144a3.89 3.89 0 0 1 1.113-.875c.443-.238.87-.357 1.281-.357.69 0 1.2.203 1.526.609.327.406.49.954.49 1.645zm2.786-4.214c0 .15-.051.275-.154.378a.531.531 0 0 1-.392.154.508.508 0 0 1-.385-.154.527.527 0 0 1-.147-.378c0-.15.049-.275.147-.378a.508.508 0 0 1 .385-.154c.15 0 .278.051.385.154a.503.503 0 0 1 .161.378zm-.196 2.142V21h-.686v-6.79h.686zm5.096.392c-.737 0-1.554.457-2.45 1.372V21h-.686v-6.79h.532l.14 1.064c.299-.345.672-.64 1.12-.882.448-.243.877-.364 1.288-.364.69 0 1.2.203 1.526.609.327.406.49.954.49 1.645V21h-.686v-4.718c0-.523-.093-.933-.28-1.232-.187-.299-.518-.448-.994-.448zM459.198 36.3h4.55l.07.7h-5.488v-9.52h.868v8.82zm6.776-8.232a.615.615 0 0 1-.203.469.668.668 0 0 1-.469.189.63.63 0 0 1-.658-.658.63.63 0 0 1 .658-.658c.177 0 .334.063.469.189a.615.615 0 0 1 .203.469zm-.224 2.142V37h-.882v-6.79h.882zm7.084 7.658c0 .448-.117.85-.35 1.204-.233.355-.57.635-1.008.84-.439.205-.947.308-1.526.308-.308 0-.702-.056-1.183-.168-.48-.112-.856-.247-1.127-.406l.266-.644c.299.14.602.254.91.343a4.38 4.38 0 0 0 1.106.147c.597 0 1.085-.14 1.463-.42.378-.28.567-.686.567-1.218v-1.26c-.532.392-1.101.588-1.708.588-.98 0-1.74-.327-2.282-.98-.541-.653-.812-1.521-.812-2.604.01-.681.138-1.293.385-1.834a2.945 2.945 0 0 1 1.078-1.274c.471-.308 1.034-.462 1.687-.462.57 0 1.157.233 1.764.7l.196-.518h.574v7.658zm-.882-2.142v-4.298a2.718 2.718 0 0 0-.749-.497 2.34 2.34 0 0 0-.945-.175c-.719 0-1.267.264-1.645.791-.378.527-.572 1.206-.581 2.037 0 .877.182 1.575.546 2.093.364.518.915.777 1.652.777.663 0 1.237-.243 1.722-.728zm8.386-3.444v4.704h-.868V32.45c0-1.12-.439-1.68-1.316-1.68-.355 0-.768.133-1.239.399a3.905 3.905 0 0 0-1.169.987V37h-.868v-9.744l.868-.14v4.116c.29-.336.674-.62 1.155-.854.48-.233.931-.35 1.351-.35.7 0 1.223.205 1.568.616.345.41.518.957.518 1.638zm2.982-1.932h1.232l.294.658h-1.526v4.27c0 .355.077.635.231.84.154.205.394.308.721.308.187 0 .378-.042.574-.126l.168.714-.28.091a2.162 2.162 0 0 1-.644.077c-.504 0-.905-.156-1.204-.469-.299-.313-.448-.758-.448-1.337v-4.368h-.994l-.014-.658h1.008v-1.764l.882-.308v2.072zm-18.228 16.042l-2.366 3.486-.49.07-2.632-3.682V53h-1.344v-9.52h.826l3.346 4.704 3.178-4.704h.84V53h-1.358v-6.608zm6.286-.364c.98 0 1.72.329 2.219.987.5.658.749 1.5.749 2.527v.364h-4.816c.056.663.268 1.185.637 1.568s.917.574 1.645.574c.355 0 .665-.044.931-.133a11.01 11.01 0 0 0 1.113-.469l.42.98c-.821.495-1.643.742-2.464.742-1.185 0-2.095-.322-2.73-.966-.635-.644-.952-1.512-.952-2.604 0-.7.13-1.32.392-1.862a2.93 2.93 0 0 1 1.127-1.26c.49-.299 1.066-.448 1.729-.448zm-.042 1.148c-.513 0-.922.161-1.225.483-.303.322-.488.768-.553 1.337h3.486c-.177-1.213-.747-1.82-1.708-1.82zM481.402 53h-.77l-.266-.518c-.28.224-.59.397-.931.518-.34.121-.632.182-.875.182-.69 0-1.29-.15-1.799-.448a2.955 2.955 0 0 1-1.169-1.267c-.27-.546-.406-1.183-.406-1.911 0-.7.14-1.316.42-1.848.28-.532.677-.945 1.19-1.239.513-.294 1.106-.441 1.778-.441.196 0 .427.037.693.112a3.6 3.6 0 0 1 .777.322V43.27l1.358-.14V53zm-2.842-.966c.308 0 .579-.047.812-.14a2.23 2.23 0 0 0 .672-.434v-3.752a2.101 2.101 0 0 0-.679-.406 2.409 2.409 0 0 0-.805-.126c-.625 0-1.115.222-1.47.665-.355.443-.532 1.01-.532 1.701 0 .747.175 1.349.525 1.806.35.457.842.686 1.477.686zm6.174-7.882a.799.799 0 0 1-.252.595.833.833 0 0 1-.602.245.787.787 0 0 1-.588-.245.822.822 0 0 1-.238-.595c0-.233.08-.432.238-.595a.787.787 0 0 1 .588-.245c.233 0 .434.082.602.245a.799.799 0 0 1 .252.595zm-.154 2.058V53h-1.358v-6.79h1.358zm4.088 5.866c.317 0 .663-.1 1.036-.301.373-.2.742-.46 1.106-.777V46.21h1.344V53h-.938l-.238-.896a4.882 4.882 0 0 1-1.232.805c-.457.21-.91.315-1.358.315-.737 0-1.286-.229-1.645-.686-.36-.457-.539-1.073-.539-1.848v-4.48h1.344v4.354c0 .495.082.87.245 1.127.163.257.455.385.875.385zm15.33-3.556V53h-1.344v-4.354c0-.485-.082-.859-.245-1.12-.163-.261-.436-.392-.819-.392-.27 0-.579.091-.924.273-.345.182-.69.422-1.036.721.01.084.014.215.014.392V53H498.3v-4.354c0-.485-.082-.859-.245-1.12-.163-.261-.436-.392-.819-.392-.29 0-.614.1-.973.301-.36.2-.721.46-1.085.777V53h-1.344v-6.79h.938l.238.896a4.683 4.683 0 0 1 1.211-.805c.453-.21.884-.315 1.295-.315.448 0 .828.098 1.141.294.313.196.548.471.707.826a4.683 4.683 0 0 1 1.211-.805c.453-.21.884-.315 1.295-.315.71 0 1.241.231 1.596.693.355.462.532 1.076.532 1.841zM465.456 66.2c0 .868-.303 1.552-.91 2.051-.607.5-1.423.749-2.45.749h-3.906v-9.52h3.696c.98 0 1.745.215 2.296.644.55.43.826 1.101.826 2.016 0 .597-.34 1.162-1.022 1.694.98.513 1.47 1.302 1.47 2.366zm-2.366-4.032c0-.43-.124-.733-.371-.91-.247-.177-.614-.266-1.099-.266h-1.624v2.366h1.344c.532 0 .957-.1 1.274-.301.317-.2.476-.497.476-.889zm.476 4.046c0-.439-.133-.78-.399-1.022-.266-.243-.628-.364-1.085-.364h-2.086v2.674h1.96c.495 0 .887-.112 1.176-.336.29-.224.434-.541.434-.952zm6.216 2.954c-.728 0-1.365-.145-1.911-.434a3.058 3.058 0 0 1-1.267-1.239c-.299-.537-.448-1.164-.448-1.883 0-.719.15-1.349.448-1.89a3.092 3.092 0 0 1 1.267-1.253c.546-.294 1.183-.441 1.911-.441s1.365.145 1.911.434c.546.29.968.702 1.267 1.239.299.537.448 1.164.448 1.883 0 .719-.15 1.349-.448 1.89a3.092 3.092 0 0 1-1.267 1.253c-.546.294-1.183.441-1.911.441zm1.75-3.584c0-.588-.163-1.069-.49-1.442-.327-.373-.747-.56-1.26-.56-.504 0-.922.191-1.253.574-.331.383-.497.868-.497 1.456s.163 1.069.49 1.442c.327.373.747.56 1.26.56.504 0 .922-.191 1.253-.574.331-.383.497-.868.497-1.456zm4.942-6.468V69h-1.806v-9.73l1.806-.154zM484.482 69h-.952l-.42-.616c-.597.523-1.25.784-1.96.784-1.055 0-1.888-.32-2.499-.959-.611-.64-.917-1.505-.917-2.597 0-.71.138-1.335.413-1.876a2.971 2.971 0 0 1 1.197-1.26c.523-.299 1.143-.448 1.862-.448.224 0 .462.04.714.119.252.08.495.189.728.329V59.27l1.834-.154V69zm-3.262-1.386c.243 0 .478-.047.707-.14.229-.093.469-.233.721-.42v-2.898a2.574 2.574 0 0 0-.7-.441 1.96 1.96 0 0 0-.728-.133c-.495 0-.887.189-1.176.567-.29.378-.434.866-.434 1.463 0 .597.142 1.08.427 1.449.285.369.679.553 1.183.553zm-23.24 8.866h2.548v5.754c0 .579.159 1.029.476 1.351.317.322.733.483 1.246.483s.929-.161 1.246-.483c.317-.322.476-.772.476-1.351V76.48h2.548v5.88c0 .812-.177 1.505-.532 2.079a3.39 3.39 0 0 1-1.498 1.309c-.644.299-1.39.448-2.24.448-.85 0-1.596-.15-2.24-.448a3.39 3.39 0 0 1-1.498-1.309c-.355-.574-.532-1.267-.532-2.079v-5.88zm12.908-.364V86h-2.548v-9.73l2.548-.154zm4.578 3.374h1.778l.238 2.002h-2.016v1.68c0 .28.072.502.217.665a.737.737 0 0 0 .581.245c.336 0 .663-.089.98-.266l.728 1.736c-.177.15-.455.287-.833.413a3.32 3.32 0 0 1-1.043.189c-.56 0-1.083-.103-1.568-.308a2.717 2.717 0 0 1-1.169-.917c-.294-.406-.441-.898-.441-1.477v-1.96h-1.05V79.49h1.05v-1.834l2.548-.35v2.184zm8.036 1.764c-.336 0-.705.07-1.106.21-.401.14-.747.322-1.036.546V86h-2.548v-6.776h1.274l.616.826c.327-.224.7-.42 1.12-.588.42-.168.807-.252 1.162-.252l.518 2.044zm3.178-.21c-.224 0-.497.04-.819.119a5.66 5.66 0 0 0-.875.287l-.672-1.834a7.592 7.592 0 0 1 1.4-.455 7.025 7.025 0 0 1 1.596-.189c.905 0 1.6.252 2.086.756.485.504.728 1.195.728 2.072V86h-1.232l-.728-.7c-.448.57-.957.854-1.526.854-.84 0-1.475-.21-1.904-.63-.43-.42-.644-.99-.644-1.708 0-1.325.887-1.988 2.66-1.988h.812c-.037-.261-.133-.457-.287-.588a.89.89 0 0 0-.595-.196zm.112 2.184a.573.573 0 0 0-.413.154.519.519 0 0 0-.161.392c0 .14.044.254.133.343a.447.447 0 0 0 .329.133c.29 0 .588-.126.896-.378v-.644h-.784zm4.396-2.058h3.948l.14 2.002h-3.934l-.154-2.002zm13.258 1.988c0 1.008-.38 1.734-1.141 2.177-.76.443-1.724.665-2.891.665h-3.598v-9.52h3.318c1.13 0 2.065.229 2.807.686.742.457 1.113 1.143 1.113 2.058 0 .336-.08.64-.238.91-.159.27-.373.541-.644.812.392.27.702.597.931.98.229.383.343.793.343 1.232zm-3.024-3.808a.714.714 0 0 0-.364-.644c-.243-.15-.579-.224-1.008-.224h-.686v1.61h.574c.42 0 .772-.063 1.057-.189.285-.126.427-.31.427-.553zm.392 3.752a.867.867 0 0 0-.364-.742c-.243-.177-.579-.266-1.008-.266h-1.078v1.904h1.106c.41 0 .737-.077.98-.231a.742.742 0 0 0 .364-.665zm6.986 3.052c-1.139 0-2.056-.306-2.751-.917-.695-.611-1.043-1.5-1.043-2.667 0-.737.17-1.379.511-1.925.34-.546.803-.961 1.386-1.246.583-.285 1.234-.427 1.953-.427.756 0 1.423.14 2.002.42.579.28 1.031.695 1.358 1.246.327.55.49 1.218.49 2.002 0 .737-.17 1.372-.511 1.904a3.2 3.2 0 0 1-1.4 1.204c-.593.27-1.258.406-1.995.406zm1.274-3.514c0-.467-.105-.85-.315-1.148a1.01 1.01 0 0 0-.875-.448c-.392 0-.698.135-.917.406-.22.27-.329.644-.329 1.12 0 .467.103.835.308 1.106.205.27.5.406.882.406.401 0 .71-.121.924-.364.215-.243.322-.602.322-1.078zm6.3-6.524V86h-2.548v-9.73l2.548-.154zM524.536 86h-1.288l-.378-.49c-.28.196-.581.352-.903.469a2.877 2.877 0 0 1-.987.175c-1.045 0-1.888-.299-2.527-.896-.64-.597-.959-1.48-.959-2.646 0-1.185.324-2.088.973-2.709.649-.62 1.524-.931 2.625-.931.317 0 .616.047.896.14V76.27l2.548-.154V86zm-3.164-1.806c.205 0 .41-.07.616-.21v-2.87c-.27-.121-.513-.182-.728-.182-.327 0-.597.15-.812.448-.215.299-.322.705-.322 1.218s.107.908.322 1.183c.215.275.523.413.924.413zm36.25-45.81l.084.616h-5.334v-9.52h5.264l.07.588h-4.564v3.766h3.36l.07.574h-3.43v3.976h4.48zm3.178-2.226L558.994 39h-.868l2.268-3.416-2.016-3.192.686-.308 1.918 3.094 1.848-2.968h.84l-2.282 3.542 2.1 3.248h-.854l-1.834-2.842zm5.054-3.766h1.232l.294.574h-1.526v4.312c0 .364.077.663.231.896.154.233.394.35.721.35.187 0 .378-.042.574-.126l.168.616c-.028 0-.154.033-.378.098-.187.047-.369.07-.546.07-.476 0-.852-.156-1.127-.469-.275-.313-.413-.758-.413-1.337v-4.41h-1.008v-.574h1.008v-1.806l.77-.308v2.114zm6.23.42c-.401 0-.833.13-1.295.392a4.52 4.52 0 0 0-1.127.868V39h-.77v-6.79h.476l.252 1.078a6.868 6.868 0 0 1 1.113-.735c.425-.229.796-.343 1.113-.343l.238.602zm3.556-.14c-.42 0-.763.037-1.029.112a5.618 5.618 0 0 0-.917.364l-.266-.532c.243-.168.588-.308 1.036-.42.448-.112.826-.168 1.134-.168.765 0 1.363.2 1.792.602.43.401.644.938.644 1.61V39h-.616l-.112-.728a2.726 2.726 0 0 1-.917.651 2.754 2.754 0 0 1-1.155.259c-.737 0-1.302-.194-1.694-.581-.392-.387-.588-.889-.588-1.505 0-.635.224-1.132.672-1.491.448-.36 1.031-.539 1.75-.539h1.89v-.77c0-.495-.138-.889-.413-1.183-.275-.294-.679-.441-1.211-.441zm-.252 2.94c-.532 0-.94.14-1.225.42-.285.28-.427.635-.427 1.064 0 .401.133.742.399 1.022s.637.42 1.113.42c.41 0 .789-.103 1.134-.308.345-.205.64-.476.882-.812v-1.806h-1.876zm3.962-.742h3.43l.112.616h-3.43l-.112-.616zm6.104 3.514h4.564l.07.616h-5.404v-9.52h.77v8.904zm6.706-8.316a.558.558 0 0 1-.175.42.594.594 0 0 1-.427.168.564.564 0 0 1-.427-.168.583.583 0 0 1-.161-.42c0-.168.054-.308.161-.42a.564.564 0 0 1 .427-.168c.168 0 .31.056.427.168a.558.558 0 0 1 .175.42zm-.21 2.142V39h-.77v-6.79h.77zm7.056 7.658c0 .69-.245 1.255-.735 1.694-.49.439-1.169.658-2.037.658-.308 0-.707-.056-1.197-.168-.49-.112-.861-.247-1.113-.406l.266-.56c.336.159.653.278.952.357.299.08.653.124 1.064.133.597 0 1.085-.14 1.463-.42.378-.28.567-.686.567-1.218V38.51c-.541.448-1.143.672-1.806.672-.97 0-1.713-.327-2.226-.98-.513-.653-.77-1.526-.77-2.618 0-.681.119-1.29.357-1.827a2.894 2.894 0 0 1 1.05-1.267c.462-.308 1.02-.462 1.673-.462.597 0 1.213.243 1.848.728l.182-.546h.462v7.658zm-.77-2.17V33.4a3.639 3.639 0 0 0-.805-.532 2.214 2.214 0 0 0-.959-.196c-.719 0-1.272.273-1.659.819-.387.546-.586 1.239-.595 2.079 0 .877.187 1.591.56 2.142.373.55.924.826 1.652.826.383 0 .714-.072.994-.217.28-.145.55-.352.812-.623zm8.162-3.416V39h-.77v-4.634c0-1.12-.434-1.68-1.302-1.68-.373 0-.78.126-1.218.378a4.8 4.8 0 0 0-1.204.994V39h-.77v-9.744l.77-.14v4.13c.29-.345.665-.635 1.127-.868.462-.233.898-.35 1.309-.35.7 0 1.218.203 1.554.609.336.406.504.954.504 1.645zm2.926-1.89h1.232l.294.574h-1.526v4.312c0 .364.077.663.231.896.154.233.394.35.721.35.187 0 .378-.042.574-.126l.168.616c-.028 0-.154.033-.378.098-.187.047-.369.07-.546.07-.476 0-.852-.156-1.127-.469-.275-.313-.413-.758-.413-1.337v-4.41h-1.008v-.574h1.008v-1.806l.77-.308v2.114zm-54.894 38.79c-.401 0-.896-.082-1.484-.245-.588-.163-1.003-.334-1.246-.511l.35-1.26a7.03 7.03 0 0 0 1.134.434c.439.13.85.196 1.232.196.616 0 1.087-.105 1.414-.315a.999.999 0 0 0 .49-.889.982.982 0 0 0-.266-.665c-.177-.2-.404-.38-.679-.539a24.511 24.511 0 0 0-1.197-.63c-.877-.448-1.538-.894-1.981-1.337-.443-.443-.665-.996-.665-1.659 0-.476.128-.903.385-1.281.257-.378.625-.677 1.106-.896.48-.22 1.048-.329 1.701-.329.439 0 .884.063 1.337.189.453.126.875.287 1.267.483l-.532 1.246a7.44 7.44 0 0 0-.987-.392 3.496 3.496 0 0 0-1.029-.14c-.485 0-.882.093-1.19.28a.907.907 0 0 0-.462.826c0 .261.082.492.245.693.163.2.378.378.644.532.266.154.684.376 1.253.665a13.55 13.55 0 0 1 1.435.833c.36.247.653.546.882.896.229.35.343.758.343 1.225 0 .504-.135.952-.406 1.344-.27.392-.67.698-1.197.917-.527.22-1.16.329-1.897.329zm7.588-7.154c.999 0 1.755.331 2.268.994.513.663.77 1.507.77 2.534v.462h-4.704c.14 1.213.863 1.82 2.17 1.82.364 0 .688-.049.973-.147a8.21 8.21 0 0 0 1.029-.455l.476 1.148a4.31 4.31 0 0 1-2.506.784c-1.232 0-2.172-.32-2.821-.959-.649-.64-.973-1.51-.973-2.611 0-.71.133-1.332.399-1.869a2.955 2.955 0 0 1 1.148-1.253c.5-.299 1.09-.448 1.771-.448zm-.042 1.344c-.448 0-.81.14-1.085.42-.275.28-.446.672-.511 1.176h3.164c-.084-.523-.257-.92-.518-1.19-.261-.27-.611-.406-1.05-.406zm14.588 1.12V71h-1.582v-4.27c0-.467-.072-.819-.217-1.057-.145-.238-.39-.357-.735-.357-.27 0-.555.08-.854.238a6.66 6.66 0 0 0-.966.644l.014.294V71h-1.582v-4.27c0-.467-.072-.819-.217-1.057-.145-.238-.39-.357-.735-.357-.495 0-1.12.313-1.876.938V71h-1.568v-6.79h1.05l.28.812a5.58 5.58 0 0 1 1.26-.749c.448-.191.859-.287 1.232-.287.915 0 1.535.34 1.862 1.022.392-.308.81-.555 1.253-.742.443-.187.852-.28 1.225-.28.737 0 1.281.22 1.631.658.35.439.525 1.055.525 1.848zm3.262-4.312a.905.905 0 0 1-.273.665.905.905 0 0 1-.665.273.86.86 0 0 1-.651-.273.93.93 0 0 1-.259-.665.9.9 0 0 1 .266-.651.866.866 0 0 1 .644-.273c.261 0 .483.091.665.273a.889.889 0 0 1 .273.651zm-.126 2.03V71h-1.582v-6.79h1.582zm1.218 2.338h3.612l.14 1.246h-3.612l-.14-1.246zm12.404 1.694c0 .887-.31 1.568-.931 2.044-.62.476-1.449.714-2.485.714h-3.584v-9.52h3.332c.999 0 1.78.208 2.345.623.565.415.847 1.08.847 1.995 0 .644-.373 1.232-1.12 1.764.495.224.884.532 1.169.924.285.392.427.877.427 1.456zm-2.114-4.13c0-.495-.147-.838-.441-1.029-.294-.191-.73-.287-1.309-.287h-1.568v2.66h1.316c.607-.01 1.092-.121 1.456-.336.364-.215.546-.55.546-1.008zm.49 4.158c0-.504-.156-.887-.469-1.148-.313-.261-.74-.392-1.281-.392h-2.058v2.968h1.918c.579 0 1.038-.119 1.379-.357.34-.238.511-.595.511-1.071zm5.894 2.912c-.71 0-1.325-.15-1.848-.448a3.07 3.07 0 0 1-1.211-1.253c-.285-.537-.427-1.164-.427-1.883 0-.71.142-1.332.427-1.869a3.046 3.046 0 0 1 1.225-1.253c.532-.299 1.153-.448 1.862-.448.71 0 1.328.147 1.855.441a3.01 3.01 0 0 1 1.218 1.253c.285.541.427 1.167.427 1.876 0 .71-.145 1.335-.434 1.876-.29.541-.7.961-1.232 1.26-.532.299-1.153.448-1.862.448zm1.904-3.57c0-.663-.17-1.202-.511-1.617-.34-.415-.796-.623-1.365-.623-.56 0-1.015.21-1.365.63-.35.42-.53.952-.539 1.596 0 .663.17 1.2.511 1.61.34.41.796.616 1.365.616.57 0 1.029-.21 1.379-.63.35-.42.525-.947.525-1.582zm4.522-6.496V71h-1.568v-9.73l1.568-.154zM611.816 71h-.854l-.336-.56c-.29.233-.6.415-.931.546-.331.13-.651.196-.959.196-.69 0-1.29-.15-1.799-.448a3.008 3.008 0 0 1-1.176-1.26c-.275-.541-.413-1.171-.413-1.89 0-.71.138-1.332.413-1.869a2.948 2.948 0 0 1 1.19-1.246c.518-.294 1.122-.441 1.813-.441.215 0 .453.04.714.119.261.08.513.194.756.343v-3.22l1.582-.14V71zm-3.052-1.176c.28 0 .537-.044.77-.133.233-.089.467-.231.7-.427v-3.332a2.28 2.28 0 0 0-.686-.427 2.193 2.193 0 0 0-.784-.133c-.56 0-1.001.205-1.323.616-.322.41-.483.938-.483 1.582 0 .681.161 1.227.483 1.638.322.41.763.616 1.323.616zm-50.05 15.468L558.98 87h-6.832v-9.52h6.566l.266 1.722h-4.648v2.142h3.024l.266 1.722h-3.29v2.226h4.382zm4.256-.042L561.85 87h-2.45l2.254-3.416-2.128-3.038 2.086-.546 1.358 2.114 1.218-1.904h2.408l-2.31 3.57 2.198 3.22h-2.436l-1.078-1.75zm7.07-4.886h1.512l.392 1.708h-1.904v2.268c0 .317.08.574.238.77.159.196.378.294.658.294.29 0 .579-.075.868-.224l.63 1.526c-.159.13-.401.247-.728.35a3.04 3.04 0 0 1-.91.154c-.859 0-1.563-.224-2.114-.672-.55-.448-.826-1.083-.826-1.904v-2.562h-.98v-1.708h.98v-1.722l2.184-.336v2.058zm7.756 1.596c-.327 0-.702.091-1.127.273a4.38 4.38 0 0 0-1.141.707V87h-2.198v-6.776h1.12l.616.966a6.028 6.028 0 0 1 1.134-.679c.43-.2.817-.301 1.162-.301l.434 1.75zm3.36-.084c-.27 0-.579.042-.924.126a4.937 4.937 0 0 0-.91.308l-.588-1.68c.308-.168.733-.315 1.274-.441a6.494 6.494 0 0 1 1.456-.189c.57 0 1.073.112 1.512.336.439.224.777.539 1.015.945.238.406.357.87.357 1.393V87h-1.218l-.518-.714c-.504.579-1.06.868-1.666.868-.821 0-1.442-.203-1.862-.609-.42-.406-.63-.959-.63-1.659 0-.69.233-1.209.7-1.554.467-.345 1.106-.518 1.918-.518h1.064c-.019-.299-.114-.53-.287-.693-.173-.163-.404-.245-.693-.245zm-.07 2.254a.781.781 0 0 0-.567.21.709.709 0 0 0-.217.532c0 .168.06.313.182.434.121.121.28.182.476.182.41 0 .807-.177 1.19-.532v-.826h-1.064zm4.354-1.82h3.808l.14 1.722h-3.794l-.154-1.722zm12.978 1.862c0 .943-.345 1.65-1.036 2.121-.69.471-1.582.707-2.674.707h-3.752v-9.52h3.514c1.055 0 1.906.222 2.555.665.649.443.973 1.122.973 2.037 0 .579-.317 1.148-.952 1.708.42.261.754.583 1.001.966.247.383.371.821.371 1.316zm-2.702-3.906c0-.681-.476-1.022-1.428-1.022h-1.148v1.974h.952c.476 0 .866-.08 1.169-.238.303-.159.455-.397.455-.714zm.434 3.892c0-.373-.128-.665-.385-.875-.257-.21-.604-.315-1.043-.315h-1.582v2.282h1.526c.448 0 .807-.096 1.078-.287a.93.93 0 0 0 .406-.805zm6.608 2.996c-.737 0-1.386-.138-1.946-.413a3.03 3.03 0 0 1-1.309-1.218c-.313-.537-.469-1.183-.469-1.939 0-.728.161-1.363.483-1.904a3.23 3.23 0 0 1 1.33-1.246c.565-.29 1.211-.434 1.939-.434.737 0 1.388.142 1.953.427a3.096 3.096 0 0 1 1.316 1.239c.313.541.469 1.19.469 1.946 0 .728-.161 1.358-.483 1.89-.322.532-.768.94-1.337 1.225-.57.285-1.218.427-1.946.427zm1.498-3.542c0-.523-.133-.952-.399-1.288a1.281 1.281 0 0 0-1.057-.504c-.457 0-.821.161-1.092.483-.27.322-.406.749-.406 1.281 0 .532.133.959.399 1.281.266.322.623.483 1.071.483.448 0 .807-.159 1.078-.476.27-.317.406-.737.406-1.26zm5.628-6.496V87H607.7v-9.73l2.184-.154zM617.976 87h-1.12l-.406-.546c-.28.215-.583.385-.91.511a2.778 2.778 0 0 1-1.008.189c-1.055 0-1.895-.308-2.52-.924-.625-.616-.938-1.489-.938-2.618 0-1.13.317-2.014.952-2.653.635-.64 1.498-.959 2.59-.959.383 0 .77.093 1.162.28v-3.01l2.198-.154V87zm-3.206-1.596c.308 0 .644-.13 1.008-.392v-2.898a1.835 1.835 0 0 0-1.064-.35c-.41 0-.742.168-.994.504-.252.336-.378.78-.378 1.33 0 .56.126 1.001.378 1.323.252.322.602.483 1.05.483zm-61.362-37.88V55h-1.106v-9.52h.882l4.634 6.44.574.938V45.48h1.12V55h-.896l-4.844-6.846-.364-.63zm11.06 7.658c-.653 0-1.223-.152-1.708-.455a2.936 2.936 0 0 1-1.113-1.274c-.257-.546-.385-1.169-.385-1.869.01-.69.147-1.304.413-1.841a2.986 2.986 0 0 1 1.155-1.26c.504-.303 1.092-.455 1.764-.455 1.017 0 1.815.324 2.394.973.579.649.868 1.524.868 2.625 0 .69-.138 1.304-.413 1.841a3.05 3.05 0 0 1-1.183 1.26c-.513.303-1.11.455-1.792.455zm2.254-3.542c0-.803-.187-1.449-.56-1.939-.373-.49-.9-.735-1.582-.735-.672 0-1.204.245-1.596.735-.392.49-.593 1.113-.602 1.869 0 .793.187 1.437.56 1.932.373.495.9.742 1.582.742.672 0 1.204-.245 1.596-.735.392-.49.593-1.113.602-1.869zm5.978-2.548c-.373 0-.789.124-1.246.371a4.762 4.762 0 0 0-1.162.861V55h-1.106v-6.79h.658l.35 1.092a6.51 6.51 0 0 1 1.106-.742c.43-.233.807-.35 1.134-.35l.266.882zm10.78 1.302v4.592h-1.106v-4.438c0-.504-.084-.896-.252-1.176-.168-.28-.457-.42-.868-.42-.29 0-.623.105-1.001.315a4.77 4.77 0 0 0-1.057.805l.014.322v4.592h-1.106v-4.438c0-.504-.084-.896-.252-1.176-.168-.28-.457-.42-.868-.42-.299 0-.651.117-1.057.35a4.614 4.614 0 0 0-1.099.882V55h-1.106v-6.79h.826l.182.966a4.229 4.229 0 0 1 1.169-.84c.453-.224.88-.336 1.281-.336.457 0 .838.103 1.141.308.303.205.53.495.679.868a4.263 4.263 0 0 1 1.162-.84c.448-.224.873-.336 1.274-.336.69 0 1.204.217 1.54.651.336.434.504 1.015.504 1.743zm4.228-1.4c-.401 0-.744.04-1.029.119-.285.08-.595.194-.931.343l-.322-.84c.243-.168.6-.308 1.071-.42.471-.112.861-.168 1.169-.168.513 0 .97.098 1.372.294.401.196.714.467.938.812.224.345.336.737.336 1.176V55h-.826l-.14-.686a3.58 3.58 0 0 1-.938.609 2.592 2.592 0 0 1-1.092.259c-.756 0-1.332-.196-1.729-.588-.397-.392-.595-.9-.595-1.526 0-.653.224-1.162.672-1.526.448-.364 1.04-.546 1.778-.546h1.75v-.378c0-.504-.119-.9-.357-1.19-.238-.29-.614-.434-1.127-.434zm-.294 2.744c-.439 0-.782.128-1.029.385a1.31 1.31 0 0 0-.371.945c0 .327.107.611.322.854.215.243.532.364.952.364a2.09 2.09 0 0 0 1.043-.28c.331-.187.623-.43.875-.728v-1.54h-1.792zm5.838-6.622V55h-1.106v-9.744l1.106-.14z" fill="#000"/><path d="M191.63 7.96l-1.526 2.114-.868.126-1.904-2.394V13h-2.184V3.48h1.456l3.052 4.004 2.772-4.004h1.4V13h-2.198V7.96zm3.808.322c0-.961.203-1.82.609-2.576a4.488 4.488 0 0 1 1.701-1.778c.728-.43 1.559-.649 2.492-.658.99 0 1.846.217 2.569.651a4.332 4.332 0 0 1 1.659 1.771c.383.747.574 1.577.574 2.492 0 .97-.203 1.834-.609 2.59a4.44 4.44 0 0 1-1.701 1.771c-.728.425-1.559.642-2.492.651-.98 0-1.832-.217-2.555-.651a4.38 4.38 0 0 1-1.666-1.771c-.387-.747-.581-1.577-.581-2.492zm4.83-3.178c-.467 0-.894.13-1.281.392-.387.261-.698.632-.931 1.113-.233.48-.35 1.034-.35 1.659 0 .915.226 1.659.679 2.233.453.574 1.066.861 1.841.861.476 0 .908-.119 1.295-.357.387-.238.693-.595.917-1.071.224-.476.336-1.06.336-1.75 0-.588-.103-1.115-.308-1.582a2.576 2.576 0 0 0-.875-1.099 2.24 2.24 0 0 0-1.323-.399zm8.75 8.078c-.439 0-.959-.08-1.561-.238-.602-.159-1.071-.34-1.407-.546l.63-1.708c.299.159.67.306 1.113.441.443.135.838.203 1.183.203.467 0 .826-.082 1.078-.245.252-.163.378-.38.378-.651 0-.177-.096-.34-.287-.49a9.248 9.248 0 0 0-.931-.602 6.954 6.954 0 0 1-.42-.238c-.635-.383-1.132-.7-1.491-.952a4.008 4.008 0 0 1-.952-.952 2.152 2.152 0 0 1-.413-1.288c.01-.504.152-.954.427-1.351s.67-.71 1.183-.938c.513-.229 1.115-.343 1.806-.343.467 0 .947.068 1.442.203s.929.315 1.302.539l-.672 1.596a8.618 8.618 0 0 0-1.106-.392 3.745 3.745 0 0 0-.938-.112c-.345 0-.628.072-.847.217a.677.677 0 0 0-.329.595c0 .205.091.385.273.539.182.154.474.338.875.553.15.065.303.15.462.252a23.92 23.92 0 0 1 1.54.959c.355.247.667.56.938.938.27.378.406.81.406 1.295 0 .523-.147.99-.441 1.4-.294.41-.719.733-1.274.966-.555.233-1.211.35-1.967.35zm7.336-3.094V13h-2.198V3.48h2.198v3.64l3.976-3.85 1.666 1.232-3.262 3.22L222.598 13h-2.758l-2.646-3.752-.84.84z" fill="#3D3B37"/><rect fill="#3D3B37" x="184" y="19" width="210" height="2" rx="1"/></g></svg>