<svg width="46" height="44" xmlns="http://www.w3.org/2000/svg"><path d="M39.4 10.1c-2-1-4.1-1.4-6.3-1.4-3.1 0-5.8.9-8.3 1.7-1.8.6-3.4 1.1-4.7 1.1-1 0-1.7-.3-2.3-1-.4-.5-.1-1.6.2-2.7.5-1.6 1.1-3.6-.2-5.3-.8-1-2.1-1.6-3.7-1.6-1.5 0-3.1.5-4.4 1.4C3.7 6.5 0 13.5 0 21c0 12.7 10.3 23 23 23 10.2 0 19.3-6.9 22.1-16.8.4-1.3 3-12.8-5.7-17.1zM6 21c0-1.7 1.3-3 3-3s3 1.3 3 3-1.3 3-3 3-3-1.3-3-3zm8 13c-1.7 0-3-1.3-3-3s1.3-3 3-3 3 1.3 3 3-1.3 3-3 3zm11 4c-1.7 0-3-1.3-3-3s1.3-3 3-3 3 1.3 3 3-1.3 3-3 3zm8-12c-2.8 0-5-2.2-5-5s2.2-5 5-5 5 2.2 5 5-2.2 5-5 5z" fill="#3D3B37"/></svg>