<?xml version="1.0" encoding="UTF-8"?>
<svg width="210px" height="274px" viewBox="0 0 210 274" version="1.1" xmlns="http://www.w3.org/2000/svg" xmlns:xlink="http://www.w3.org/1999/xlink">
    <!-- Generator: Sketch 48 (47235) - http://www.bohemiancoding.com/sketch -->
    <title>mosk-mobile</title>
    <desc>Created with Sketch.</desc>
    <defs></defs>
    <g id="Artboard-2" stroke="none" stroke-width="1" fill="none" fill-rule="evenodd" transform="translate(-666.000000, -581.000000)">
        <g id="mosk-mobile" transform="translate(666.000000, 581.000000)">
            <path d="M41,177.758321 L70.3733451,101 L86.9805825,101 L116.127979,176.855282 L98.7299206,178.88712 L92.5163283,161.164978 L64.6116505,161.164978 L58.6240071,177.758321 L41,177.758321 Z M69.5825243,147.167873 L87.3195057,147.167873 L78.2815534,123.350217 L69.5825243,147.167873 Z M143.241836,136.444284 C141.057653,136.444284 138.572241,136.78292 135.785525,137.460203 C132.998809,138.137485 130.551055,138.965263 128.442189,139.94356 L123.697264,126.397974 C126.182713,125.043409 129.609569,123.858182 133.977935,122.842258 C138.3463,121.826334 142.262707,121.318379 145.727273,121.318379 C150.321588,121.318379 154.388626,122.221409 157.928508,124.027496 C161.468391,125.833584 164.198578,128.373356 166.119153,131.646889 C168.039727,134.920422 169,138.664234 169,142.878437 L169,177.758321 L159.171227,177.758321 L154.991174,172.001447 C150.924075,176.667172 146.442802,179 141.54722,179 C134.919355,179 129.910873,177.363258 126.521624,174.089725 C123.132375,170.816192 121.437776,166.357481 121.437776,160.713459 C121.437776,155.14469 123.320664,150.968176 127.086496,148.183792 C130.852328,145.399407 136.011441,144.007236 142.563989,144.007236 L151.150044,144.007236 C150.999411,141.59912 150.227427,139.73662 148.834069,138.419682 C147.440711,137.102743 145.576652,136.444284 143.241836,136.444284 Z M142.676964,154.617945 C140.794048,154.617945 139.268908,155.182339 138.1015,156.311143 C136.934092,157.439948 136.350397,158.869745 136.350397,160.600579 C136.350397,161.955144 136.839948,163.121558 137.819064,164.099855 C138.798181,165.078153 140.078545,165.567294 141.660194,165.567294 C144.974127,165.567294 148.175036,164.137496 151.263019,161.277858 L151.263019,154.617945 L142.676964,154.617945 Z" id="Aa" fill="#3D3B37"></path>
            <g id="Group-20" fill="#3D3B37">
                <path d="M0.14,35 L3.78,25.48 L5.838,25.48 L9.45,34.888 L7.294,35.14 L6.524,32.942 L3.066,32.942 L2.324,35 L0.14,35 Z M3.682,31.206 L5.88,31.206 L4.76,28.252 L3.682,31.206 Z M12.81,29.876 C12.539332,29.876 12.2313351,29.9179996 11.886,30.002 C11.5406649,30.0860004 11.2373346,30.1886661 10.976,30.31 L10.388,28.63 C10.6960015,28.4619992 11.120664,28.3150006 11.662,28.189 C12.203336,28.0629994 12.6886645,28 13.118,28 C13.6873362,28 14.1913311,28.1119989 14.63,28.336 C15.0686689,28.5600011 15.4069988,28.874998 15.645,29.281 C15.8830012,29.687002 16.002,30.1513307 16.002,30.674 L16.002,35 L14.784,35 L14.266,34.286 C13.7619975,34.8646696 13.2066697,35.154 12.6,35.154 C11.7786626,35.154 11.1580021,34.951002 10.738,34.545 C10.3179979,34.138998 10.108,33.5860035 10.108,32.886 C10.108,32.1953299 10.341331,31.6773351 10.808,31.332 C11.274669,30.9866649 11.9139959,30.814 12.726,30.814 L13.79,30.814 C13.7713332,30.5153318 13.6756675,30.2843341 13.503,30.121 C13.3303325,29.9576658 13.0993348,29.876 12.81,29.876 Z M12.74,32.13 C12.5066655,32.13 12.3176674,32.1999993 12.173,32.34 C12.0283326,32.4800007 11.956,32.6573323 11.956,32.872 C11.956,33.0400008 12.0166661,33.1846661 12.138,33.306 C12.2593339,33.4273339 12.417999,33.488 12.614,33.488 C13.0246687,33.488 13.4213314,33.3106684 13.804,32.956 L13.804,32.13 L12.74,32.13 Z M28.392,32.172 C28.392,33.1146714 28.0466701,33.8216643 27.356,34.293 C26.6653299,34.7643357 25.7740055,35 24.682,35 L20.93,35 L20.93,25.48 L24.444,25.48 C25.4986719,25.48 26.3503301,25.7016644 26.999,26.145 C27.6476699,26.5883355 27.972,27.2673288 27.972,28.182 C27.972,28.7606696 27.6546698,29.3299972 27.02,29.89 C27.4400021,30.1513346 27.7736654,30.4733314 28.021,30.856 C28.2683346,31.2386686 28.392,31.6773309 28.392,32.172 Z M25.69,28.266 C25.69,27.5846633 25.2140048,27.244 24.262,27.244 L23.114,27.244 L23.114,29.218 L24.066,29.218 C24.5420024,29.218 24.9316652,29.1386675 25.235,28.98 C25.5383348,28.8213325 25.69,28.5833349 25.69,28.266 Z M26.124,32.158 C26.124,31.7846648 25.995668,31.493001 25.739,31.283 C25.4823321,31.0729989 25.1346689,30.968 24.696,30.968 L23.114,30.968 L23.114,33.25 L24.64,33.25 C25.0880022,33.25 25.447332,33.1543343 25.718,32.963 C25.988668,32.7716657 26.124,32.5033351 26.124,32.158 Z M36.344,31.542 C36.344,32.671339 36.0290032,33.5556635 35.399,34.195 C34.7689969,34.8343365 33.9080055,35.154 32.816,35.154 C32.2279971,35.154 31.6493362,34.9533353 31.08,34.552 L30.688,35 L29.568,35 L29.568,25.27 L31.752,25.116 L31.752,28.238 C32.1160018,28.0793325 32.4986647,28 32.9,28 C33.9546719,28 34.7923302,28.3079969 35.413,28.924 C36.0336698,29.5400031 36.344,30.412661 36.344,31.542 Z M34.09,31.556 C34.09,30.9959972 33.9640013,30.5573349 33.712,30.24 C33.4599987,29.9226651 33.1100022,29.764 32.662,29.764 C32.3726652,29.764 32.0693349,29.8713323 31.752,30.086 L31.752,33.11 C32.0786683,33.306001 32.4006651,33.404 32.718,33.404 C33.1286687,33.404 33.4599987,33.2336684 33.712,32.893 C33.9640013,32.5523316 34.09,32.1066694 34.09,31.556 Z M44.968,25.298 C45.3786687,25.298 45.8313309,25.3586661 46.326,25.48 C46.8206691,25.6013339 47.2546648,25.7739989 47.628,25.998 L46.97,27.51 C46.4659975,27.3513325 46.0903346,27.2440003 45.843,27.188 C45.5956654,27.1319997 45.2993351,27.104 44.954,27.104 C44.5153311,27.104 44.1070019,27.2346654 43.729,27.496 C43.3509981,27.7573346 43.0500011,28.1283309 42.826,28.609 C42.6019989,29.0896691 42.49,29.6426635 42.49,30.268 C42.49,30.8653363 42.5973323,31.3996643 42.812,31.871 C43.0266677,32.3423357 43.3206648,32.7109987 43.694,32.977 C44.0673352,33.2430013 44.487331,33.376 44.954,33.376 C45.61667,33.376 46.2653302,33.2173349 46.9,32.9 L47.726,34.524 C47.3713316,34.7293344 46.9350026,34.8903327 46.417,35.007 C45.8989974,35.1236672 45.4160022,35.182 44.968,35.182 C43.9786617,35.182 43.1270036,34.9720021 42.413,34.552 C41.6989964,34.1319979 41.1553352,33.5510037 40.782,32.809 C40.4086648,32.0669963 40.222,31.2246714 40.222,30.282 C40.222,29.3206619 40.4226647,28.4620038 40.824,27.706 C41.2253353,26.9499962 41.7853297,26.3596688 42.504,25.935 C43.2226703,25.5103312 44.0439954,25.298 44.968,25.298 Z M51.87,28 C52.2246684,28 52.6213311,28.0559994 53.06,28.168 C53.4986689,28.2800006 53.8813317,28.4573321 54.208,28.7 L53.592,30.226 C53.2746651,30.0766659 52.9993345,29.971667 52.766,29.911 C52.5326655,29.850333 52.280668,29.82 52.01,29.82 C51.5713311,29.82 51.2050015,29.9879983 50.911,30.324 C50.6169985,30.6600017 50.47,31.0893307 50.47,31.612 C50.47,32.1346693 50.6169985,32.5546651 50.911,32.872 C51.2050015,33.1893349 51.5713311,33.348 52.01,33.348 C52.2713346,33.348 52.5233321,33.3153337 52.766,33.25 C53.0086679,33.1846663 53.2839985,33.0773341 53.592,32.928 L54.208,34.468 C53.8906651,34.7200013 53.5150022,34.8973328 53.081,35 C52.6469978,35.1026672 52.2433352,35.154 51.87,35.154 C51.1419964,35.154 50.5003361,35.0140014 49.945,34.734 C49.3896639,34.4539986 48.9603349,34.0456693 48.657,33.509 C48.3536651,32.9723306 48.202,32.3400036 48.202,31.612 C48.202,30.8839964 48.3536651,30.2470027 48.657,29.701 C48.9603349,29.1549973 49.3896639,28.7350015 49.945,28.441 C50.5003361,28.1469985 51.1419964,28 51.87,28 Z M67.06,30.184 C67.06,31.1640049 66.8780018,32.015663 66.514,32.739 C66.1499982,33.4623369 65.6320034,34.019998 64.96,34.412 C64.2879966,34.804002 63.4993379,35 62.594,35 L58.646,35 L58.646,25.48 L62.622,25.48 C63.5740048,25.48 64.3836633,25.6806647 65.051,26.082 C65.7183367,26.4833353 66.2199983,27.0363298 66.556,27.741 C66.8920017,28.4456702 67.06,29.2599954 67.06,30.184 Z M64.792,30.184 C64.792,29.2786621 64.6053352,28.5646693 64.232,28.042 C63.8586648,27.5193307 63.3126703,27.258 62.594,27.258 L60.83,27.258 L60.83,33.236 L62.496,33.236 C63.2053369,33.236 63.7653313,32.9840025 64.176,32.48 C64.5866687,31.9759975 64.792,31.2106718 64.792,30.184 Z M74.718,35 L73.598,35 L73.192,34.454 C72.9119986,34.6686677 72.6086683,34.8389994 72.282,34.965 C71.9553317,35.0910006 71.6193351,35.154 71.274,35.154 C70.2193281,35.154 69.3793365,34.8460031 68.754,34.23 C68.1286635,33.6139969 67.816,32.741339 67.816,31.612 C67.816,30.482661 68.1333302,29.5983365 68.768,28.959 C69.4026698,28.3196635 70.2659945,28 71.358,28 C71.7406686,28 72.127998,28.0933324 72.52,28.28 L72.52,25.27 L74.718,25.116 L74.718,35 Z M71.512,33.404 C71.8200015,33.404 72.1559982,33.2733346 72.52,33.012 L72.52,30.114 C72.1839983,29.8806655 71.8293352,29.764 71.456,29.764 C71.0453313,29.764 70.7140013,29.9319983 70.462,30.268 C70.2099987,30.6040017 70.084,31.0473306 70.084,31.598 C70.084,32.1580028 70.2099987,32.5989984 70.462,32.921 C70.7140013,33.2430016 71.0639978,33.404 71.512,33.404 Z M86.422,33.292 L86.688,35 L79.856,35 L79.856,25.48 L86.422,25.48 L86.688,27.202 L82.04,27.202 L82.04,29.344 L85.064,29.344 L85.33,31.066 L82.04,31.066 L82.04,33.292 L86.422,33.292 Z M90.818,28 C91.5086701,28 92.0919976,28.1586651 92.568,28.476 C93.0440024,28.7933349 93.4009988,29.2179973 93.639,29.75 C93.8770012,30.2820027 93.996,30.87933 93.996,31.542 L93.996,32.2 L89.642,32.2 C89.8473344,32.9933373 90.4446617,33.39 91.434,33.39 C92.0780032,33.39 92.7173302,33.2126684 93.352,32.858 L93.968,34.384 C93.6506651,34.6173345 93.2610023,34.8039993 92.799,34.944 C92.3369977,35.0840007 91.8306694,35.154 91.28,35.154 C90.0386605,35.154 89.0610036,34.8413365 88.347,34.216 C87.6329964,33.5906635 87.276,32.7226722 87.276,31.612 C87.276,30.8839964 87.4253318,30.2470027 87.724,29.701 C88.0226682,29.1549973 88.4403307,28.7350015 88.977,28.441 C89.5136694,28.1469985 90.1273299,28 90.818,28 Z M90.762,29.806 C90.4539985,29.806 90.1950011,29.9109989 89.985,30.121 C89.774999,30.331001 89.6513335,30.6086649 89.614,30.954 L91.91,30.954 C91.8539997,30.6086649 91.7303343,30.331001 91.539,30.121 C91.3476657,29.9109989 91.0886683,29.806 90.762,29.806 Z M100.744,29.47 L103.698,29.47 L103.95,31.192 L100.744,31.192 L100.744,35 L98.56,35 L98.56,25.494 L104.356,25.494 L104.608,27.202 L100.744,27.202 L100.744,29.47 Z M106.134,30.072 L105.042,30.072 L105.042,28.364 L106.134,28.364 L106.134,27.79 C106.134,26.9686626 106.406997,26.324669 106.953,25.858 C107.499003,25.391331 108.196662,25.158 109.046,25.158 C109.316668,25.158 109.612998,25.2116661 109.935,25.319 C110.257002,25.4263339 110.501999,25.5499993 110.67,25.69 L110.04,27.216 C109.750665,27.0666659 109.461335,26.992 109.172,26.992 C108.901332,26.992 108.691334,27.0876657 108.542,27.279 C108.392666,27.4703343 108.318,27.7293317 108.318,28.056 L108.318,28.364 L109.9,28.364 L110.306,30.072 L108.318,30.072 L108.318,38.22 L106.134,38.22 L106.134,30.072 Z M120.288,31.29 L118.482,31.29 L118.664,29.652 L122.262,29.652 L122.262,34.482 C121.897998,34.6966677 121.424336,34.8669994 120.841,34.993 C120.257664,35.1190006 119.690669,35.182 119.14,35.182 C118.150662,35.182 117.285004,34.9766687 116.543,34.566 C115.800996,34.1553313 115.229335,33.581337 114.828,32.844 C114.426665,32.106663 114.226,31.2526715 114.226,30.282 C114.226,29.3019951 114.447664,28.4340038 114.891,27.678 C115.334336,26.9219962 115.943329,26.3363354 116.718,25.921 C117.492671,25.5056646 118.351329,25.298 119.294,25.298 C119.723335,25.298 120.213331,25.3586661 120.764,25.48 C121.314669,25.6013339 121.771998,25.7739989 122.136,25.998 L121.478,27.51 C120.992664,27.3606659 120.600668,27.255667 120.302,27.195 C120.003332,27.134333 119.676668,27.104 119.322,27.104 C118.836664,27.104 118.377002,27.2229988 117.943,27.461 C117.508998,27.6990012 117.159001,28.0583309 116.893,28.539 C116.626999,29.0196691 116.494,29.5959966 116.494,30.268 C116.494,30.93067 116.615332,31.495331 116.858,31.962 C117.100668,32.428669 117.422665,32.7809988 117.824,33.019 C118.225335,33.2570012 118.668664,33.376 119.154,33.376 C119.480668,33.376 119.858665,33.338667 120.288,33.264 L120.288,31.29 Z M130.06,35.266 C130.06,35.8633363 129.908335,36.3859978 129.605,36.834 C129.301665,37.2820022 128.872336,37.6249988 128.317,37.863 C127.761664,38.1010012 127.120004,38.22 126.392,38.22 C126.018665,38.22 125.524003,38.1500007 124.908,38.01 C124.291997,37.8699993 123.802002,37.6786679 123.438,37.436 L124.096,35.896 C124.852004,36.2693352 125.57533,36.456 126.266,36.456 C126.742002,36.456 127.126999,36.3463344 127.421,36.127 C127.715001,35.9076656 127.862,35.6160018 127.862,35.252 L127.862,34.874 C127.441998,35.0606676 127.026669,35.154 126.616,35.154 C125.561328,35.154 124.721336,34.8460031 124.096,34.23 C123.470664,33.6139969 123.158,32.741339 123.158,31.612 C123.158,30.482661 123.47533,29.5983365 124.11,28.959 C124.74467,28.3196635 125.607995,28 126.7,28 C127.017335,28 127.339332,28.0629994 127.666,28.189 C127.992668,28.3150006 128.295999,28.4946655 128.576,28.728 L128.94,28.224 L130.06,28.224 L130.06,35.266 Z M127.862,33.012 L127.862,30.114 C127.525998,29.8806655 127.171335,29.764 126.798,29.764 C126.387331,29.764 126.056001,29.9319983 125.804,30.268 C125.551999,30.6040017 125.426,31.0473306 125.426,31.598 C125.426,32.1580028 125.551999,32.5989984 125.804,32.921 C126.056001,33.2430016 126.405998,33.404 126.854,33.404 C127.162002,33.404 127.497998,33.2733346 127.862,33.012 Z M143.052,25.48 L143.052,35 L140.868,35 L140.868,31.122 L137.326,31.122 L137.326,35 L135.142,35 L135.142,25.48 L137.326,25.396 L137.326,29.386 L140.868,29.386 L140.868,25.48 L143.052,25.48 Z M151.9,30.674 L151.9,35 L149.716,35 L149.716,30.842 C149.716,30.5153317 149.643667,30.2563343 149.499,30.065 C149.354333,29.8736657 149.142001,29.778 148.862,29.778 C148.469998,29.778 147.938003,29.973998 147.266,30.366 L147.266,35 L145.082,35 L145.082,25.27 L147.266,25.116 L147.266,28.644 C147.630002,28.447999 148.005665,28.2893339 148.393,28.168 C148.780335,28.0466661 149.151332,27.986 149.506,27.986 C151.102008,27.986 151.9,28.881991 151.9,30.674 Z M159.026,25.48 L159.026,35 L156.842,35 L156.842,25.48 L159.026,25.48 Z M163.226,26.068 C163.226,26.3946683 163.107001,26.6769988 162.869,26.915 C162.630999,27.1530012 162.344002,27.272 162.008,27.272 C161.681332,27.272 161.399001,27.1530012 161.161,26.915 C160.922999,26.6769988 160.804,26.3946683 160.804,26.068 C160.804,25.7319983 160.922999,25.4450012 161.161,25.207 C161.399001,24.9689988 161.681332,24.85 162.008,24.85 C162.344002,24.85 162.630999,24.9689988 162.869,25.207 C163.107001,25.4450012 163.226,25.7319983 163.226,26.068 Z M163.114,28.21 L163.114,35 L160.916,35 L160.916,28.21 L163.114,28.21 Z M167.09,34.776 C167.416668,34.6546661 167.661666,34.5310006 167.825,34.405 C167.988334,34.2789994 168.095666,34.1436674 168.147,33.999 C168.198334,33.8543326 168.224,33.6653345 168.224,33.432 L168.224,25.48 L170.422,25.48 L170.422,33.936 C170.422,34.3933356 170.345001,34.7689985 170.191,35.063 C170.036999,35.3570015 169.785002,35.6113323 169.435,35.826 C169.084998,36.0406677 168.597336,36.2506656 167.972,36.456 L167.09,34.776 Z M172.27,26.068 C172.27,25.7319983 172.388999,25.4450012 172.627,25.207 C172.865001,24.9689988 173.147332,24.85 173.474,24.85 C173.810002,24.85 174.096999,24.9689988 174.335,25.207 C174.573001,25.4450012 174.692,25.7319983 174.692,26.068 C174.692,26.3946683 174.573001,26.6769988 174.335,26.915 C174.096999,27.1530012 173.810002,27.272 173.474,27.272 C173.156665,27.272 172.876668,27.1530012 172.634,26.915 C172.391332,26.6769988 172.27,26.3946683 172.27,26.068 Z M174.58,28.21 L174.58,38.22 L172.382,38.22 L172.382,28.21 L174.58,28.21 Z M181.832,32.088 L181.832,35 L179.634,35 L179.634,25.48 L181.832,25.48 L181.832,29.12 L185.808,25.27 L187.474,26.502 L184.212,29.722 L188.076,35 L185.318,35 L182.672,31.248 L181.832,32.088 Z M191.268,32.802 L191.268,35 L189.084,35 L189.084,25.27 L191.268,25.116 L191.268,30.422 L193.998,28.014 L195.272,29.54 L193.424,31.052 L195.804,35 L193.396,35 L191.87,32.298 L191.268,32.802 Z M3.332,56.292 L7.462,56.292 L7.714,58 L1.148,58 L1.148,48.48 L3.332,48.48 L3.332,56.292 Z M10.906,48.116 L10.906,58 L8.722,58 L8.722,48.27 L10.906,48.116 Z M22.526,52.96 L21,55.074 L20.132,55.2 L18.228,52.806 L18.228,58 L16.044,58 L16.044,48.48 L17.5,48.48 L20.552,52.484 L23.324,48.48 L24.724,48.48 L24.724,58 L22.526,58 L22.526,52.96 Z M37.646,53.548 L37.646,58 L35.462,58 L35.462,53.842 C35.462,53.4966649 35.4083339,53.2330009 35.301,53.051 C35.1936661,52.8689991 34.9953348,52.778 34.706,52.778 C34.509999,52.778 34.2906679,52.8316661 34.048,52.939 C33.8053321,53.0463339 33.5346682,53.1886658 33.236,53.366 L33.236,58 L31.052,58 L31.052,53.842 C31.052,53.4966649 30.9983339,53.2330009 30.891,53.051 C30.7836661,52.8689991 30.5853348,52.778 30.296,52.778 C30.099999,52.778 29.8783346,52.8316661 29.631,52.939 C29.3836654,53.0463339 29.1106682,53.1886658 28.812,53.366 L28.812,58 L26.614,58 L26.614,51.21 L27.972,51.21 L28.35,51.924 C28.7606687,51.6439986 29.1946644,51.4176675 29.652,51.245 C30.1093356,51.0723325 30.5386647,50.986 30.94,50.986 C31.8546712,50.986 32.4939982,51.2799971 32.858,51.868 C33.2593353,51.6066654 33.6793311,51.3943341 34.118,51.231 C34.5566689,51.0676658 34.971998,50.986 35.364,50.986 C36.1760041,50.986 36.7593316,51.2076644 37.114,51.651 C37.4686684,52.0943355 37.646,52.7266626 37.646,53.548 Z M44.772,52.316 L44.772,58 L42.588,58 L42.588,48.48 L44.688,48.48 L48.72,54.234 L48.72,48.48 L50.904,48.48 L50.904,58 L48.804,58 L44.772,52.316 Z M56.588,52.778 C56.195998,52.778 55.6640034,52.973998 54.992,53.366 L54.992,58 L52.794,58 L52.794,51.21 L54.152,51.21 L54.53,51.924 C54.9406687,51.6439986 55.3863309,51.4176675 55.867,51.245 C56.3476691,51.0723325 56.8026645,50.986 57.232,50.986 C58.0720042,50.986 58.6809981,51.2263309 59.059,51.707 C59.4370019,52.1876691 59.626,52.8433292 59.626,53.674 L59.626,58 L57.428,58 L57.428,53.842 C57.428,53.5153317 57.3580007,53.2563343 57.218,53.065 C57.0779993,52.8736657 56.8680014,52.778 56.588,52.778 Z M66.738,56.292 L70.868,56.292 L71.12,58 L64.554,58 L64.554,48.48 L66.738,48.48 L66.738,56.292 Z M74.312,48.116 L74.312,58 L72.128,58 L72.128,48.27 L74.312,48.116 Z M78.75,53.282 C78.75,52.3206619 78.952998,51.4620038 79.359,50.706 C79.765002,49.9499962 80.3319964,49.3573355 81.06,48.928 C81.7880036,48.4986645 82.618662,48.2793334 83.552,48.27 C84.5413383,48.27 85.397663,48.4869978 86.121,48.921 C86.8443369,49.3550022 87.3973314,49.9453296 87.78,50.692 C88.1626686,51.4386704 88.354,52.2693288 88.354,53.184 C88.354,54.1546715 88.151002,55.0179962 87.745,55.774 C87.338998,56.5300038 86.7720036,57.1203312 86.044,57.545 C85.3159964,57.9696688 84.485338,58.1866666 83.552,58.196 C82.5719951,58.196 81.7203369,57.9790022 80.997,57.545 C80.273663,57.1109978 79.7183353,56.5206704 79.331,55.774 C78.9436647,55.0273296 78.75,54.1966712 78.75,53.282 Z M83.58,50.104 C83.113331,50.104 82.6863353,50.2346654 82.299,50.496 C81.9116647,50.7573346 81.6013345,51.1283309 81.368,51.609 C81.1346655,52.0896691 81.018,52.6426635 81.018,53.268 C81.018,54.1826712 81.2443311,54.9269971 81.697,55.501 C82.1496689,56.0750029 82.7633295,56.362 83.538,56.362 C84.0140024,56.362 84.4456647,56.2430012 84.833,56.005 C85.2203353,55.7669988 85.5259989,55.4100024 85.75,54.934 C85.9740011,54.4579976 86.086,53.8746701 86.086,53.184 C86.086,52.5959971 85.9833344,52.068669 85.778,51.602 C85.5726656,51.135331 85.2810019,50.7690013 84.903,50.503 C84.5249981,50.2369987 84.0840025,50.104 83.58,50.104 Z M92.834,58.154 C92.096663,58.154 91.4480028,58.0163347 90.888,57.741 C90.3279972,57.4656653 89.8916682,57.0596693 89.579,56.523 C89.2663318,55.9863306 89.11,55.3400038 89.11,54.584 C89.11,53.8559964 89.2709984,53.221336 89.593,52.68 C89.9150016,52.138664 90.3583305,51.7233348 90.923,51.434 C91.4876695,51.1446652 92.1339964,51 92.862,51 C93.599337,51 94.2503305,51.1423319 94.815,51.427 C95.3796695,51.7116681 95.8183318,52.124664 96.131,52.666 C96.4436682,53.207336 96.6,53.8559962 96.6,54.612 C96.6,55.3400036 96.4390016,55.9699973 96.117,56.502 C95.7949984,57.0340027 95.3493362,57.4423319 94.78,57.727 C94.2106638,58.0116681 93.5620036,58.154 92.834,58.154 Z M94.332,54.612 C94.332,54.0893307 94.1990013,53.6600017 93.933,53.324 C93.6669987,52.9879983 93.3146689,52.82 92.876,52.82 C92.4186644,52.82 92.054668,52.9809984 91.784,53.303 C91.513332,53.6250016 91.378,54.0519973 91.378,54.584 C91.378,55.1160027 91.5109987,55.5429984 91.777,55.865 C92.0430013,56.1870016 92.3999978,56.348 92.848,56.348 C93.2960022,56.348 93.655332,56.1893349 93.926,55.872 C94.196668,55.5546651 94.332,55.1346693 94.332,54.612 Z M103.348,54.962 L103.348,58 L101.164,58 L101.164,48.48 L104.678,48.48 C105.39667,48.48 106.04533,48.5989988 106.624,48.837 C107.20267,49.0750012 107.662332,49.4366642 108.003,49.922 C108.343668,50.4073358 108.514,51.0093297 108.514,51.728 C108.514,52.4373369 108.332002,53.0346642 107.968,53.52 C107.603998,54.0053358 107.121003,54.3669988 106.519,54.605 C105.916997,54.8430012 105.261337,54.962 104.552,54.962 L103.348,54.962 Z M106.232,51.784 C106.232,51.2799975 106.089668,50.8973346 105.805,50.636 C105.520332,50.3746654 105.121336,50.244 104.608,50.244 L103.348,50.244 L103.348,53.212 L104.636,53.212 C105.102669,53.212 105.482999,53.0836679 105.777,52.827 C106.071001,52.570332 106.222667,52.2226689 106.232,51.784 Z M116.424,54.542 C116.424,55.671339 116.109003,56.5556635 115.479,57.195 C114.848997,57.8343365 113.988005,58.154 112.896,58.154 C112.559998,58.154 112.205335,58.0793341 111.832,57.93 L111.832,61.22 L109.648,61.22 L109.648,51.224 L110.754,51.224 L111.132,51.644 C111.720003,51.2146645 112.335997,51 112.98,51 C114.034672,51 114.87233,51.3079969 115.493,51.924 C116.11367,52.5400031 116.424,53.412661 116.424,54.542 Z M114.17,54.556 C114.17,53.9959972 114.044001,53.5573349 113.792,53.24 C113.539999,52.9226651 113.190002,52.764 112.742,52.764 C112.452665,52.764 112.149335,52.8713323 111.832,53.086 L111.832,56.11 C112.158668,56.306001 112.480665,56.404 112.798,56.404 C113.208669,56.404 113.539999,56.2336684 113.792,55.893 C114.044001,55.5523316 114.17,55.1066694 114.17,54.556 Z M128.786,56.544 L129.668,57.468 L128.338,58.616 L127.386,57.664 C126.704663,58.0093351 125.944004,58.1866666 125.104,58.196 C124.123995,58.196 123.272337,57.9790022 122.549,57.545 C121.825663,57.1109978 121.270335,56.5206704 120.883,55.774 C120.495665,55.0273296 120.302,54.1966712 120.302,53.282 C120.302,52.3206619 120.504998,51.4620038 120.911,50.706 C121.317002,49.9499962 121.883996,49.3573355 122.612,48.928 C123.340004,48.4986645 124.170662,48.2793334 125.104,48.27 C126.093338,48.27 126.949663,48.4869978 127.673,48.921 C128.396337,49.3550022 128.949331,49.9453296 129.332,50.692 C129.714669,51.4386704 129.906,52.2693288 129.906,53.184 C129.906,53.84667 129.810334,54.4649971 129.619,55.039 C129.427666,55.6130029 129.150002,56.1146645 128.786,56.544 Z M125.93,56.222 L124.768,55.074 L126.238,53.884 L127.288,54.976 C127.521335,54.4813309 127.638,53.8840035 127.638,53.184 C127.638,52.5959971 127.535334,52.068669 127.33,51.602 C127.124666,51.135331 126.833002,50.7690013 126.455,50.503 C126.076998,50.2369987 125.636003,50.104 125.132,50.104 C124.665331,50.104 124.238335,50.2346654 123.851,50.496 C123.463665,50.7573346 123.153334,51.1283309 122.92,51.609 C122.686666,52.0896691 122.57,52.6426635 122.57,53.268 C122.57,54.1826712 122.796331,54.9269971 123.249,55.501 C123.701669,56.0750029 124.315329,56.362 125.09,56.362 C125.398002,56.362 125.677999,56.3153338 125.93,56.222 Z M137.564,61.22 L135.366,61.22 L135.366,57.874 C134.945998,58.0606676 134.530669,58.154 134.12,58.154 C133.065328,58.154 132.225336,57.8460031 131.6,57.23 C130.974664,56.6139969 130.662,55.741339 130.662,54.612 C130.662,53.482661 130.97933,52.5983365 131.614,51.959 C132.24867,51.3196635 133.111995,51 134.204,51 C134.521335,51 134.840998,51.0629994 135.163,51.189 C135.485002,51.3150006 135.781332,51.4899989 136.052,51.714 L136.444,51.224 L137.564,51.224 L137.564,61.22 Z M135.366,56.012 L135.366,53.114 C135.029998,52.8806655 134.675335,52.764 134.302,52.764 C133.891331,52.764 133.560001,52.9319983 133.308,53.268 C133.055999,53.6040017 132.93,54.0473306 132.93,54.598 C132.93,55.1580028 133.055999,55.5989984 133.308,55.921 C133.560001,56.2430016 133.909998,56.404 134.358,56.404 C134.666002,56.404 135.001998,56.2733346 135.366,56.012 Z M142.646,58 L142.646,48.48 L146.16,48.48 C147.280006,48.48 148.19933,48.7389974 148.918,49.257 C149.63667,49.7750026 149.996,50.5473282 149.996,51.574 C149.996,52.1340028 149.865335,52.6286645 149.604,53.058 C149.342665,53.4873355 148.988002,53.8279987 148.54,54.08 L150.766,58 L148.316,58 L146.538,54.696 L144.83,54.696 L144.83,58 L142.646,58 Z M147.714,51.616 C147.714,51.149331 147.574001,50.8040011 147.294,50.58 C147.013999,50.3559989 146.612669,50.244 146.09,50.244 L144.83,50.244 L144.83,52.96 L146.118,52.96 C146.594002,52.96 146.978999,52.8410012 147.273,52.603 C147.567001,52.3649988 147.714,52.0360021 147.714,51.616 Z M156.1,52.96 C155.773332,52.96 155.397669,53.0509991 154.973,53.233 C154.548331,53.4150009 154.168002,53.6506652 153.832,53.94 L153.832,58 L151.634,58 L151.634,51.224 L152.754,51.224 L153.37,52.19 C153.696668,51.9379987 154.074665,51.7116677 154.504,51.511 C154.933335,51.3103323 155.320665,51.21 155.666,51.21 L156.1,52.96 Z M162.876,58.182 C162.437331,58.182 161.917003,58.1026675 161.315,57.944 C160.712997,57.7853325 160.244002,57.6033344 159.908,57.398 L160.538,55.69 C160.836668,55.8486675 161.207664,55.995666 161.651,56.131 C162.094336,56.266334 162.488665,56.334 162.834,56.334 C163.300669,56.334 163.659999,56.2523341 163.912,56.089 C164.164001,55.9256658 164.29,55.708668 164.29,55.438 C164.29,55.2606658 164.194334,55.0973341 164.003,54.948 C163.811666,54.7986659 163.501335,54.5980013 163.072,54.346 C162.978666,54.2993331 162.838668,54.2200006 162.652,54.108 C162.01733,53.7253314 161.520335,53.4080013 161.161,53.156 C160.801665,52.9039987 160.484335,52.5866686 160.209,52.204 C159.933665,51.8213314 159.796,51.3920024 159.796,50.916 C159.805333,50.4119975 159.947665,49.9616686 160.223,49.565 C160.498335,49.1683313 160.892664,48.8556678 161.406,48.627 C161.919336,48.3983322 162.52133,48.284 163.212,48.284 C163.678669,48.284 164.159331,48.351666 164.654,48.487 C165.148669,48.622334 165.582665,48.8019989 165.956,49.026 L165.284,50.622 C164.835998,50.4353324 164.467335,50.304667 164.178,50.23 C163.888665,50.155333 163.576002,50.118 163.24,50.118 C162.894665,50.118 162.612334,50.1903326 162.393,50.335 C162.173666,50.4796674 162.064,50.6779987 162.064,50.93 C162.064,51.1353344 162.154999,51.3149992 162.337,51.469 C162.519001,51.6230008 162.810665,51.8073323 163.212,52.022 C163.361334,52.0873337 163.515333,52.1713328 163.674,52.274 C164.346003,52.666002 164.859332,52.9856654 165.214,53.233 C165.568668,53.4803346 165.881332,53.7929981 166.152,54.171 C166.422668,54.5490019 166.558,54.9806642 166.558,55.466 C166.558,55.9886693 166.411001,56.4553313 166.117,56.866 C165.822999,57.2766687 165.398336,57.5986655 164.843,57.832 C164.287664,58.0653345 163.632004,58.182 162.876,58.182 Z M169.834,58.154 C169.460665,58.154 169.008003,58.0933339 168.476,57.972 C167.943997,57.8506661 167.519335,57.6640013 167.202,57.412 L167.846,55.984 C168.135335,56.1240007 168.454998,56.2383329 168.805,56.327 C169.155002,56.4156671 169.451332,56.46 169.694,56.46 C169.918001,56.46 170.116332,56.4203337 170.289,56.341 C170.461668,56.2616663 170.548,56.1520007 170.548,56.012 C170.548,55.8906661 170.466334,55.7740006 170.303,55.662 C170.139666,55.5499994 169.913335,55.4473338 169.624,55.354 C168.942663,55.1206655 168.382669,54.8313351 167.944,54.486 C167.505331,54.1406649 167.286,53.7020027 167.286,53.17 C167.286,52.4979966 167.537997,51.9683353 168.042,51.581 C168.546003,51.1936647 169.236662,51 170.114,51 C170.468668,51 170.881664,51.0583327 171.353,51.175 C171.824336,51.2916672 172.223332,51.4713321 172.55,51.714 L171.92,53.142 C171.266663,52.8526652 170.688003,52.708 170.184,52.708 C169.969332,52.708 169.792001,52.7499996 169.652,52.834 C169.511999,52.9180004 169.442,53.0253327 169.442,53.156 C169.442,53.3053341 169.735997,53.4826656 170.324,53.688 C171.882674,54.229336 172.662,54.9853285 172.662,55.956 C172.662,56.6560035 172.421669,57.1973314 171.941,57.58 C171.460331,57.9626686 170.758005,58.154 169.834,58.154 Z M176.232,48.48 L184.156,48.48 L184.422,50.202 L181.272,50.202 L181.272,58 L179.074,58 L179.074,50.202 L176.232,50.202 L176.232,48.48 Z M187.866,51.364 L189.378,51.364 L189.77,53.072 L187.866,53.072 L187.866,55.34 C187.866,55.6573349 187.945333,55.913999 188.104,56.11 C188.262667,56.306001 188.481999,56.404 188.762,56.404 C189.051335,56.404 189.340665,56.3293341 189.63,56.18 L190.26,57.706 C190.101333,57.8366673 189.858668,57.9533328 189.532,58.056 C189.205332,58.1586672 188.902001,58.21 188.622,58.21 C187.763329,58.21 187.058669,57.9860022 186.508,57.538 C185.957331,57.0899978 185.682,56.4553374 185.682,55.634 L185.682,53.072 L184.702,53.072 L184.702,51.364 L185.682,51.364 L185.682,49.642 L187.866,49.306 L187.866,51.364 Z M1.008,71.48 L3.206,71.48 L3.206,77.318 C3.206,77.9900034 3.37866494,78.4986649 3.724,78.844 C4.06933506,79.1893351 4.53133044,79.362 5.11,79.362 C5.68866956,79.362 6.15066494,79.1870017 6.496,78.837 C6.84133506,78.4869982 7.014,77.98067 7.014,77.318 L7.014,71.48 L9.212,71.48 L9.212,77.444 C9.212,78.2000038 9.04166837,78.8579972 8.701,79.418 C8.36033163,79.9780028 7.87966977,80.4119985 7.259,80.72 C6.63833023,81.0280015 5.92200406,81.182 5.11,81.182 C4.29799594,81.182 3.58166977,81.0280015 2.961,80.72 C2.34033023,80.4119985 1.86200168,79.9780028 1.526,79.418 C1.18999832,78.8579972 1.022,78.2000038 1.022,77.444 L1.008,71.48 Z M13.944,79.446 C14.3640021,79.446 14.8913302,79.2453353 15.526,78.844 L15.526,74.224 L17.724,74.224 L17.724,81.014 L16.506,81.014 L15.988,80.3 C15.5679979,80.570668 15.1223357,80.7946658 14.651,80.972 C14.1796643,81.1493342 13.7293355,81.238 13.3,81.238 C12.4506624,81.238 11.8370019,80.9953358 11.459,80.51 C11.0809981,80.0246642 10.892,79.3666708 10.892,78.536 L10.892,74.224 L13.09,74.224 L13.09,78.368 C13.09,78.7040017 13.1599993,78.9676657 13.3,79.159 C13.4400007,79.3503343 13.6546652,79.446 13.944,79.446 Z M21.7,71.592 L23.87,71.34 L26.39,78.228 L28.84,71.48 L31.01,71.48 L27.384,81 L25.326,81 L21.7,71.592 Z M38.514,74.21 L35.84,81 L33.852,81 L31.36,74.56 L33.432,73.958 L34.888,78.186 L36.288,74.21 L38.514,74.21 Z M50.26,81 L48.51,74.546 L46.816,81 L44.758,81 L41.902,71.592 L44.072,71.34 L45.822,78.228 L47.432,71.48 L49.616,71.48 L51.324,78.228 L52.92,71.48 L55.104,71.48 L52.304,81 L50.26,81 Z M59.094,74 C59.7846701,74 60.3679976,74.1586651 60.844,74.476 C61.3200024,74.7933349 61.6769988,75.2179973 61.915,75.75 C62.1530012,76.2820027 62.272,76.87933 62.272,77.542 L62.272,78.2 L57.918,78.2 C58.1233344,78.9933373 58.7206617,79.39 59.71,79.39 C60.3540032,79.39 60.9933302,79.2126684 61.628,78.858 L62.244,80.384 C61.9266651,80.6173345 61.5370023,80.8039993 61.075,80.944 C60.6129977,81.0840007 60.1066694,81.154 59.556,81.154 C58.3146605,81.154 57.3370036,80.8413365 56.623,80.216 C55.9089964,79.5906635 55.552,78.7226722 55.552,77.612 C55.552,76.8839964 55.7013318,76.2470027 56,75.701 C56.2986682,75.1549973 56.7163306,74.7350015 57.253,74.441 C57.7896693,74.1469985 58.4033299,74 59.094,74 Z M59.038,75.806 C58.7299985,75.806 58.4710011,75.9109989 58.261,76.121 C58.050999,76.331001 57.9273335,76.6086649 57.89,76.954 L60.186,76.954 C60.1299997,76.6086649 60.0063343,76.331001 59.815,76.121 C59.6236657,75.9109989 59.3646683,75.806 59.038,75.806 Z M65.548,81.154 C65.1746648,81.154 64.7220027,81.0933339 64.19,80.972 C63.6579973,80.8506661 63.2333349,80.6640013 62.916,80.412 L63.56,78.984 C63.8493348,79.1240007 64.1689982,79.2383329 64.519,79.327 C64.8690017,79.4156671 65.1653321,79.46 65.408,79.46 C65.6320011,79.46 65.8303325,79.4203337 66.003,79.341 C66.1756675,79.2616663 66.262,79.1520007 66.262,79.012 C66.262,78.8906661 66.1803341,78.7740006 66.017,78.662 C65.8536658,78.5499994 65.6273348,78.4473338 65.338,78.354 C64.6566633,78.1206655 64.0966689,77.8313351 63.658,77.486 C63.2193311,77.1406649 63,76.7020027 63,76.17 C63,75.4979966 63.2519975,74.9683353 63.756,74.581 C64.2600025,74.1936647 64.9506623,74 65.828,74 C66.1826684,74 66.5956643,74.0583327 67.067,74.175 C67.5383357,74.2916672 67.9373317,74.4713321 68.264,74.714 L67.634,76.142 C66.9806634,75.8526652 66.4020025,75.708 65.898,75.708 C65.6833323,75.708 65.5060007,75.7499996 65.366,75.834 C65.2259993,75.9180004 65.156,76.0253327 65.156,76.156 C65.156,76.3053341 65.4499971,76.4826656 66.038,76.688 C67.5966745,77.229336 68.376,77.9853285 68.376,78.956 C68.376,79.6560035 68.1356691,80.1973314 67.655,80.58 C67.1743309,80.9626686 66.4720046,81.154 65.548,81.154 Z M72.002,74.364 L73.514,74.364 L73.906,76.072 L72.002,76.072 L72.002,78.34 C72.002,78.6573349 72.0813325,78.913999 72.24,79.11 C72.3986675,79.306001 72.6179986,79.404 72.898,79.404 C73.1873348,79.404 73.4766652,79.3293341 73.766,79.18 L74.396,80.706 C74.2373325,80.8366673 73.9946683,80.9533328 73.668,81.056 C73.3413317,81.1586672 73.0380014,81.21 72.758,81.21 C71.899329,81.21 71.1946694,80.9860022 70.644,80.538 C70.0933306,80.0899978 69.818,79.4553374 69.818,78.634 L69.818,76.072 L68.838,76.072 L68.838,74.364 L69.818,74.364 L69.818,72.642 L72.002,72.306 L72.002,74.364 Z M86.17,81 L84.42,74.546 L82.726,81 L80.668,81 L77.812,71.592 L79.982,71.34 L81.732,78.228 L83.342,71.48 L85.526,71.48 L87.234,78.228 L88.83,71.48 L91.014,71.48 L88.214,81 L86.17,81 Z M94.192,72.068 C94.192,72.3946683 94.0730012,72.6769988 93.835,72.915 C93.5969988,73.1530012 93.3100017,73.272 92.974,73.272 C92.6473317,73.272 92.3650012,73.1530012 92.127,72.915 C91.8889988,72.6769988 91.77,72.3946683 91.77,72.068 C91.77,71.7319983 91.8889988,71.4450012 92.127,71.207 C92.3650012,70.9689988 92.6473317,70.85 92.974,70.85 C93.3100017,70.85 93.5969988,70.9689988 93.835,71.207 C94.0730012,71.4450012 94.192,71.7319983 94.192,72.068 Z M94.08,74.21 L94.08,81 L91.882,81 L91.882,74.21 L94.08,74.21 Z M99.33,75.778 C98.937998,75.778 98.4060034,75.973998 97.734,76.366 L97.734,81 L95.536,81 L95.536,74.21 L96.894,74.21 L97.272,74.924 C97.6826687,74.6439986 98.1283309,74.4176675 98.609,74.245 C99.0896691,74.0723325 99.5446645,73.986 99.974,73.986 C100.814004,73.986 101.422998,74.2263309 101.801,74.707 C102.179002,75.1876691 102.368,75.8433292 102.368,76.674 L102.368,81 L100.17,81 L100.17,76.842 C100.17,76.5153317 100.100001,76.2563343 99.96,76.065 C99.8199993,75.8736657 99.6100014,75.778 99.33,75.778 Z M110.25,81.266 C110.25,81.8633363 110.098335,82.3859978 109.795,82.834 C109.491665,83.2820022 109.062336,83.6249988 108.507,83.863 C107.951664,84.1010012 107.310004,84.22 106.582,84.22 C106.208665,84.22 105.714003,84.1500007 105.098,84.01 C104.481997,83.8699993 103.992002,83.6786679 103.628,83.436 L104.286,81.896 C105.042004,82.2693352 105.76533,82.456 106.456,82.456 C106.932002,82.456 107.316999,82.3463344 107.611,82.127 C107.905001,81.9076656 108.052,81.6160018 108.052,81.252 L108.052,80.874 C107.631998,81.0606676 107.216669,81.154 106.806,81.154 C105.751328,81.154 104.911336,80.8460031 104.286,80.23 C103.660664,79.6139969 103.348,78.741339 103.348,77.612 C103.348,76.482661 103.66533,75.5983365 104.3,74.959 C104.93467,74.3196635 105.797995,74 106.89,74 C107.207335,74 107.529332,74.0629994 107.856,74.189 C108.182668,74.3150006 108.485999,74.4946655 108.766,74.728 L109.13,74.224 L110.25,74.224 L110.25,81.266 Z M108.052,79.012 L108.052,76.114 C107.715998,75.8806655 107.361335,75.764 106.988,75.764 C106.577331,75.764 106.246001,75.9319983 105.994,76.268 C105.741999,76.6040017 105.616,77.0473306 105.616,77.598 C105.616,78.1580028 105.741999,78.5989984 105.994,78.921 C106.246001,79.2430016 106.595998,79.404 107.044,79.404 C107.352002,79.404 107.687998,79.2733346 108.052,79.012 Z M118.916,77.92 L116.774,81 L114.324,81 L117.642,76.226 L114.548,71.872 L116.718,71.158 L119,74.504 L120.974,71.48 L123.508,71.48 L120.26,76.212 L123.424,81 L120.834,81 L118.916,77.92 Z M127.372,79.25 L126.252,81 L123.802,81 L126.056,77.584 L123.928,74.546 L126.014,74 L127.372,76.114 L128.59,74.21 L130.998,74.21 L128.688,77.78 L130.886,81 L128.45,81 L127.372,79.25 Z M139.636,77.318 L139.636,81 L137.452,81 L137.452,77.262 L134.386,71.886 L136.5,71.284 L138.53,75.176 L140.672,71.48 L142.94,71.48 L139.636,77.318 Z M150.444,74.21 L147.784,80.972 L147.784,84.22 L145.782,84.22 L145.782,81 L143.29,74.56 L145.362,73.958 L146.818,78.186 L148.218,74.21 L150.444,74.21 Z M156.282,79.292 L161.364,79.292 L161.588,81 L154.07,81 L153.818,79.39 L158.97,73.202 L154.448,73.202 L154.224,71.48 L161.308,71.48 L161.546,73.104 L156.282,79.292 Z M162.176,74.21 L167.594,74.21 L167.706,75.442 L164.64,79.264 L167.72,79.264 L167.902,81 L162.204,81 L161.924,79.852 L165.004,75.96 L162.456,75.96 L162.176,74.21 Z" id="Aa-Bb-Cc-Dd-Ee-Ff-Gg"></path>
                <path d="M7.63,4.96 L6.104,7.074 L5.236,7.2 L3.332,4.806 L3.332,10 L1.148,10 L1.148,0.48 L2.604,0.48 L5.656,4.484 L8.428,0.48 L9.828,0.48 L9.828,10 L7.63,10 L7.63,4.96 Z M11.438,5.282 C11.438,4.32066186 11.640998,3.46200378 12.047,2.706 C12.453002,1.94999622 13.0199964,1.35733548 13.748,0.928 C14.4760036,0.49866452 15.306662,0.27933338 16.24,0.27 C17.2293383,0.27 18.0856631,0.48699783 18.809,0.921 C19.532337,1.35500217 20.0853314,1.9453296 20.468,2.692 C20.8506686,3.4386704 21.042,4.26932876 21.042,5.184 C21.042,6.15467152 20.839002,7.01799622 20.433,7.774 C20.026998,8.53000378 19.4600036,9.12033121 18.732,9.545 C18.0039964,9.96966879 17.173338,10.1866666 16.24,10.196 C15.2599951,10.196 14.4083369,9.97900217 13.685,9.545 C12.961663,9.11099783 12.4063353,8.5206704 12.019,7.774 C11.6316647,7.0273296 11.438,6.19667124 11.438,5.282 Z M16.268,2.104 C15.801331,2.104 15.3743353,2.23466536 14.987,2.496 C14.5996647,2.75733464 14.2893345,3.12833093 14.056,3.609 C13.8226655,4.08966907 13.706,4.64266354 13.706,5.268 C13.706,6.18267124 13.9323311,6.92699713 14.385,7.501 C14.8376689,8.07500287 15.4513295,8.362 16.226,8.362 C16.7020024,8.362 17.1336647,8.24300119 17.521,8.005 C17.9083353,7.76699881 18.2139989,7.41000238 18.438,6.934 C18.6620011,6.45799762 18.774,5.87467012 18.774,5.184 C18.774,4.59599706 18.6713344,4.068669 18.466,3.602 C18.2606656,3.135331 17.9690019,2.76900133 17.591,2.503 C17.2129981,2.23699867 16.7720025,2.104 16.268,2.104 Z M25.018,10.182 C24.5793311,10.182 24.059003,10.1026675 23.457,9.944 C22.854997,9.78533254 22.3860017,9.60333436 22.05,9.398 L22.68,7.69 C22.9786682,7.84866746 23.3496644,7.99566599 23.793,8.131 C24.2363355,8.26633401 24.6306649,8.334 24.976,8.334 C25.442669,8.334 25.8019987,8.25233415 26.054,8.089 C26.3060013,7.92566585 26.432,7.70866802 26.432,7.438 C26.432,7.26066578 26.3363343,7.09733408 26.145,6.948 C25.9536657,6.79866592 25.6433355,6.59800126 25.214,6.346 C25.1206662,6.2993331 24.9806676,6.22000056 24.794,6.108 C24.1593302,5.72533142 23.6623351,5.40800126 23.303,5.156 C22.9436649,4.90399874 22.6263347,4.58666858 22.351,4.204 C22.0756653,3.82133142 21.938,3.39200238 21.938,2.916 C21.9473334,2.41199748 22.0896653,1.96166865 22.365,1.565 C22.6403347,1.16833135 23.0346641,0.85566781 23.548,0.627 C24.0613359,0.39833219 24.6633299,0.284 25.354,0.284 C25.820669,0.284 26.3013309,0.35166599 26.796,0.487 C27.2906691,0.62233401 27.7246648,0.80199888 28.098,1.026 L27.426,2.622 C26.9779978,2.4353324 26.6093348,2.30466704 26.32,2.23 C26.0306652,2.15533296 25.7180017,2.118 25.382,2.118 C25.0366649,2.118 24.7543344,2.19033261 24.535,2.335 C24.3156656,2.47966739 24.206,2.67799874 24.206,2.93 C24.206,3.13533436 24.2969991,3.31499923 24.479,3.469 C24.6610009,3.62300077 24.9526647,3.80733226 25.354,4.022 C25.5033341,4.08733366 25.6573325,4.17133282 25.816,4.274 C26.4880034,4.66600196 27.0013316,4.98566543 27.356,5.233 C27.7106684,5.48033457 28.023332,5.79299811 28.294,6.171 C28.564668,6.54900189 28.7,6.98066424 28.7,7.466 C28.7,7.98866928 28.5530015,8.45533128 28.259,8.866 C27.9649985,9.27666872 27.5403361,9.5986655 26.985,9.832 C26.4296639,10.0653345 25.7740038,10.182 25.018,10.182 Z M32.354,7.088 L32.354,10 L30.156,10 L30.156,0.48 L32.354,0.48 L32.354,4.12 L36.33,0.27 L37.996,1.502 L34.734,4.722 L38.598,10 L35.84,10 L33.194,6.248 L32.354,7.088 Z" id="Mosk"></path>
                <rect id="Rectangle-3" x="0" y="16" width="210" height="2" rx="1"></rect>
            </g>
            <g id="Group-4" transform="translate(24.000000, 197.000000)" fill="#000000">
                <g id="Group-2">
                    <path d="M0.14,0.48 L7.266,0.48 L7.336,1.026 L4.074,1.026 L4.074,10 L3.388,10 L3.388,1.026 L0.14,1.026 L0.14,0.48 Z M13.692,5.282 L13.692,10 L13.006,10 L13.006,5.282 C13.006,4.75933072 12.9126676,4.34866816 12.726,4.05 C12.5393324,3.75133184 12.2080024,3.602 11.732,3.602 C10.994663,3.602 10.1780045,4.05932876 9.282,4.974 L9.282,10 L8.596,10 L8.596,0.256 L9.282,0.116 L9.282,4.26 C9.58066816,3.91466494 9.95166445,3.62300119 10.395,3.385 C10.8383356,3.14699881 11.2653313,3.028 11.676,3.028 C12.3666701,3.028 12.8753317,3.23099797 13.202,3.637 C13.5286683,4.04300203 13.692,4.59132988 13.692,5.282 Z M16.478,1.068 C16.478,1.21733408 16.4266672,1.34333282 16.324,1.446 C16.2213328,1.54866718 16.0906675,1.6 15.932,1.6 C15.7733325,1.6 15.6450005,1.54866718 15.547,1.446 C15.4489995,1.34333282 15.4,1.21733408 15.4,1.068 C15.4,0.91866592 15.4489995,0.79266718 15.547,0.69 C15.6450005,0.58733282 15.7733325,0.536 15.932,0.536 C16.0813341,0.536 16.2096661,0.58733282 16.317,0.69 C16.4243339,0.79266718 16.478,0.91866592 16.478,1.068 Z M16.282,3.21 L16.282,10 L15.596,10 L15.596,3.21 L16.282,3.21 Z M21.378,3.602 C20.640663,3.602 19.8240045,4.05932876 18.928,4.974 L18.928,10 L18.242,10 L18.242,3.21 L18.774,3.21 L18.914,4.274 C19.2126682,3.92866494 19.5859978,3.63466788 20.034,3.392 C20.4820022,3.14933212 20.9113313,3.028 21.322,3.028 C22.0126701,3.028 22.5213317,3.23099797 22.848,3.637 C23.1746683,4.04300203 23.338,4.59132988 23.338,5.282 L23.338,10 L22.652,10 L22.652,5.282 C22.652,4.75933072 22.5586676,4.34866816 22.372,4.05 C22.1853324,3.75133184 21.8540024,3.602 21.378,3.602 Z" id="Thin"></path>
                    <path d="M2.198,25.3 L6.748,25.3 L6.818,26 L1.33,26 L1.33,16.48 L2.198,16.48 L2.198,25.3 Z M8.974,17.068 C8.974,17.2546676 8.90633401,17.4109994 8.771,17.537 C8.63566599,17.6630006 8.47933422,17.726 8.302,17.726 C8.10599902,17.726 7.94733394,17.6630006 7.826,17.537 C7.70466606,17.4109994 7.644,17.2546676 7.644,17.068 C7.644,16.8813324 7.70466606,16.7250006 7.826,16.599 C7.94733394,16.4729994 8.10599902,16.41 8.302,16.41 C8.47933422,16.41 8.63566599,16.4729994 8.771,16.599 C8.90633401,16.7250006 8.974,16.8813324 8.974,17.068 Z M8.75,19.21 L8.75,26 L7.868,26 L7.868,19.21 L8.75,19.21 Z M15.834,26.868 C15.834,27.3160022 15.7173345,27.7173316 15.484,28.072 C15.2506655,28.4266684 14.9146689,28.7066656 14.476,28.912 C14.0373311,29.1173344 13.5286696,29.22 12.95,29.22 C12.6419985,29.22 12.2476691,29.1640006 11.767,29.052 C11.2863309,28.9399994 10.910668,28.8046675 10.64,28.646 L10.906,28.002 C11.2046682,28.1420007 11.5079985,28.2563329 11.816,28.345 C12.1240015,28.4336671 12.4926645,28.4826666 12.922,28.492 C13.5193363,28.492 14.0069981,28.3520014 14.385,28.072 C14.7630019,27.7919986 14.952,27.3860027 14.952,26.854 L14.952,25.594 C14.4199973,25.986002 13.8506697,26.182 13.244,26.182 C12.2639951,26.182 11.503336,25.8553366 10.962,25.202 C10.420664,24.5486634 10.15,23.6806721 10.15,22.598 C10.1593334,21.9166633 10.2876654,21.305336 10.535,20.764 C10.7823346,20.222664 11.1416643,19.7980015 11.613,19.49 C12.0843357,19.1819985 12.6466634,19.028 13.3,19.028 C13.8693362,19.028 14.4573303,19.261331 15.064,19.728 L15.26,19.21 L15.834,19.21 L15.834,26.868 Z M14.952,24.726 L14.952,20.428 C14.7186655,20.2133323 14.4690013,20.0476672 14.203,19.931 C13.9369987,19.8143327 13.6220018,19.756 13.258,19.756 C12.5393297,19.756 11.9910019,20.019664 11.613,20.547 C11.2349981,21.074336 11.0413334,21.7533292 11.032,22.584 C11.032,23.4613377 11.2139982,24.1589974 11.578,24.677 C11.9420018,25.1950026 12.492663,25.454 13.23,25.454 C13.89267,25.454 14.4666642,25.2113358 14.952,24.726 Z M23.338,21.282 L23.338,25.986 L22.47,25.986 L22.47,21.45 C22.47,20.3299944 22.0313377,19.77 21.154,19.77 C20.7993316,19.77 20.3863357,19.9029987 19.915,20.169 C19.4436643,20.4350013 19.0540015,20.763998 18.746,21.156 L18.746,26 L17.878,26 L17.878,16.256 L18.746,16.116 L18.746,20.232 C19.0353348,19.8959983 19.4203309,19.6113345 19.901,19.378 C20.3816691,19.1446655 20.8319979,19.028 21.252,19.028 C21.9520035,19.028 22.4746649,19.2333313 22.82,19.644 C23.1653351,20.0546687 23.338,20.6006633 23.338,21.282 Z M26.32,19.35 L27.552,19.35 L27.846,20.008 L26.32,20.008 L26.32,24.278 C26.32,24.6326684 26.3969992,24.9126656 26.551,25.118 C26.7050008,25.3233344 26.9453317,25.426 27.272,25.426 C27.4586676,25.426 27.649999,25.3840004 27.846,25.3 L28.014,26.014 C27.9859999,26.0233334 27.8926675,26.0536664 27.734,26.105 C27.5753325,26.1563336 27.360668,26.182 27.09,26.182 C26.5859975,26.182 26.1846682,26.0256682 25.886,25.713 C25.5873318,25.4003318 25.438,24.9546696 25.438,24.376 L25.438,20.008 L24.444,20.008 L24.43,19.35 L25.438,19.35 L25.438,17.586 L26.32,17.278 L26.32,19.35 Z" id="Light"></path>
                    <path d="M8.092,35.392 L5.726,38.878 L5.236,38.948 L2.604,35.266 L2.604,42 L1.26,42 L1.26,32.48 L2.086,32.48 L5.432,37.184 L8.61,32.48 L9.45,32.48 L9.45,42 L8.092,42 L8.092,35.392 Z M14.378,35.028 C15.3580049,35.028 16.0976642,35.3569967 16.597,36.015 C17.0963358,36.6730033 17.346,37.5153282 17.346,38.542 L17.346,38.906 L12.53,38.906 C12.5860003,39.56867 12.7983315,40.0913314 13.167,40.474 C13.5356685,40.8566686 14.0839964,41.048 14.812,41.048 C15.1666684,41.048 15.4769987,41.0036671 15.743,40.915 C16.0090013,40.8263329 16.3799976,40.6700011 16.856,40.446 L17.276,41.426 C16.4546626,41.9206691 15.6333374,42.168 14.812,42.168 C13.6266607,42.168 12.7166698,41.8460032 12.082,41.202 C11.4473302,40.5579968 11.13,39.6900055 11.13,38.598 C11.13,37.8979965 11.2606654,37.277336 11.522,36.736 C11.7833346,36.194664 12.1589976,35.7746682 12.649,35.476 C13.1390024,35.1773318 13.71533,35.028 14.378,35.028 Z M14.336,36.176 C13.8226641,36.176 13.4143348,36.3369984 13.111,36.659 C12.8076651,36.9810016 12.6233337,37.4266638 12.558,37.996 L16.044,37.996 C15.8666658,36.7826606 15.2973381,36.176 14.336,36.176 Z M24.402,42 L23.632,42 L23.366,41.482 C23.0859986,41.7060011 22.7756684,41.8786661 22.435,42 C22.0943316,42.1213339 21.8026679,42.182 21.56,42.182 C20.8693299,42.182 20.2696692,42.0326682 19.761,41.734 C19.2523308,41.4353318 18.862668,41.0130027 18.592,40.467 C18.321332,39.9209973 18.186,39.2840036 18.186,38.556 C18.186,37.8559965 18.3259986,37.2400027 18.606,36.708 C18.8860014,36.1759973 19.2826641,35.7630015 19.796,35.469 C20.3093359,35.1749985 20.9019966,35.028 21.574,35.028 C21.770001,35.028 22.0009987,35.065333 22.267,35.14 C22.5330013,35.214667 22.7919987,35.3219993 23.044,35.462 L23.044,32.27 L24.402,32.13 L24.402,42 Z M21.56,41.034 C21.8680015,41.034 22.1386655,40.9873338 22.372,40.894 C22.6053345,40.8006662 22.8293323,40.656001 23.044,40.46 L23.044,36.708 C22.8293323,36.5213324 22.6030012,36.3860004 22.365,36.302 C22.1269988,36.2179996 21.8586682,36.176 21.56,36.176 C20.9346635,36.176 20.4446684,36.3976645 20.09,36.841 C19.7353316,37.2843356 19.558,37.8513299 19.558,38.542 C19.558,39.2886704 19.7329982,39.8906644 20.083,40.348 C20.4330017,40.8053356 20.9253302,41.034 21.56,41.034 Z M27.734,33.152 C27.734,33.3853345 27.6500008,33.5836659 27.482,33.747 C27.3139992,33.9103342 27.1133345,33.992 26.88,33.992 C26.6466655,33.992 26.4506675,33.9103342 26.292,33.747 C26.1333325,33.5836659 26.054,33.3853345 26.054,33.152 C26.054,32.9186655 26.1333325,32.7203342 26.292,32.557 C26.4506675,32.3936659 26.6466655,32.312 26.88,32.312 C27.1133345,32.312 27.3139992,32.3936659 27.482,32.557 C27.6500008,32.7203342 27.734,32.9186655 27.734,33.152 Z M27.58,35.21 L27.58,42 L26.222,42 L26.222,35.21 L27.58,35.21 Z M31.668,41.076 C31.9853349,41.076 32.3306648,40.9756677 32.704,40.775 C33.0773352,40.5743323 33.4459982,40.3153349 33.81,39.998 L33.81,35.21 L35.154,35.21 L35.154,42 L34.216,42 L33.978,41.104 C33.6139982,41.4306683 33.2033356,41.698999 32.746,41.909 C32.2886644,42.1190011 31.8360022,42.224 31.388,42.224 C30.650663,42.224 30.1023351,41.9953356 29.743,41.538 C29.3836649,41.0806644 29.204,40.4646705 29.204,39.69 L29.204,35.21 L30.548,35.21 L30.548,39.564 C30.548,40.0586691 30.6296659,40.4343321 30.793,40.691 C30.9563342,40.947668 31.2479979,41.076 31.668,41.076 Z M46.998,37.52 L46.998,42 L45.654,42 L45.654,37.646 C45.654,37.1606642 45.5723342,36.7873346 45.409,36.526 C45.2456659,36.2646654 44.9726686,36.134 44.59,36.134 C44.319332,36.134 44.0113351,36.2249991 43.666,36.407 C43.3206649,36.5890009 42.9753351,36.8293318 42.63,37.128 C42.6393334,37.2120004 42.644,37.3426658 42.644,37.52 L42.644,42 L41.3,42 L41.3,37.646 C41.3,37.1606642 41.2183342,36.7873346 41.055,36.526 C40.8916659,36.2646654 40.6186686,36.134 40.236,36.134 C39.9466652,36.134 39.6223351,36.2343323 39.263,36.435 C38.9036649,36.6356677 38.5420018,36.8946651 38.178,37.212 L38.178,42 L36.834,42 L36.834,35.21 L37.772,35.21 L38.01,36.106 C38.3646684,35.7793317 38.7683311,35.5110011 39.221,35.301 C39.6736689,35.090999 40.1053313,34.986 40.516,34.986 C40.9640022,34.986 41.3443318,35.083999 41.657,35.28 C41.9696682,35.476001 42.2053325,35.7513316 42.364,36.106 C42.7186684,35.7793317 43.1223311,35.5110011 43.575,35.301 C44.0276689,35.090999 44.4593313,34.986 44.87,34.986 C45.5793369,34.986 46.1113316,35.2169977 46.466,35.679 C46.8206684,36.1410023 46.998,36.7546628 46.998,37.52 Z" id="Medium"></path>
                    <path d="M8.456,55.2 C8.456,56.0680043 8.1526697,56.7516642 7.546,57.251 C6.9393303,57.7503358 6.1226718,58 5.096,58 L1.19,58 L1.19,48.48 L4.886,48.48 C5.8660049,48.48 6.63133058,48.6946645 7.182,49.124 C7.73266942,49.5533355 8.008,50.2253288 8.008,51.14 C8.008,51.7373363 7.66733674,52.3019973 6.986,52.834 C7.9660049,53.3473359 8.456,54.1359947 8.456,55.2 Z M6.09,51.168 C6.09,50.7386645 5.96633457,50.4353342 5.719,50.258 C5.47166543,50.0806658 5.10533576,49.992 4.62,49.992 L2.996,49.992 L2.996,52.358 L4.34,52.358 C4.87200266,52.358 5.29666508,52.2576677 5.614,52.057 C5.93133492,51.8563323 6.09,51.560002 6.09,51.168 Z M6.566,55.214 C6.566,54.7753311 6.43300133,54.4346679 6.167,54.192 C5.90099867,53.9493321 5.53933562,53.828 5.082,53.828 L2.996,53.828 L2.996,56.502 L4.956,56.502 C5.45066914,56.502 5.84266522,56.3900011 6.132,56.166 C6.42133478,55.9419989 6.566,55.6246687 6.566,55.214 Z M12.782,58.168 C12.0539964,58.168 11.4170027,58.0233348 10.871,57.734 C10.3249973,57.4446652 9.90266816,57.0316693 9.604,56.495 C9.30533184,55.9583306 9.156,55.3306703 9.156,54.612 C9.156,53.8933297 9.30533184,53.263336 9.604,52.722 C9.90266816,52.180664 10.3249973,51.7630015 10.871,51.469 C11.4170027,51.1749985 12.0539964,51.028 12.782,51.028 C13.5100036,51.028 14.1469973,51.1726652 14.693,51.462 C15.2390027,51.7513348 15.6613318,52.1643306 15.96,52.701 C16.2586682,53.2376693 16.408,53.8653297 16.408,54.584 C16.408,55.3026703 16.2586682,55.932664 15.96,56.474 C15.6613318,57.015336 15.2390027,57.4329985 14.693,57.727 C14.1469973,58.0210015 13.5100036,58.168 12.782,58.168 Z M14.532,54.584 C14.532,53.9959971 14.3686683,53.5153352 14.042,53.142 C13.7153317,52.7686648 13.2953359,52.582 12.782,52.582 C12.2779975,52.582 11.860335,52.7733314 11.529,53.156 C11.197665,53.5386686 11.032,54.0239971 11.032,54.612 C11.032,55.2000029 11.1953317,55.6806648 11.522,56.054 C11.8486683,56.4273352 12.2686641,56.614 12.782,56.614 C13.2860025,56.614 13.703665,56.4226686 14.035,56.04 C14.366335,55.6573314 14.532,55.1720029 14.532,54.584 Z M19.474,48.116 L19.474,58 L17.668,58 L17.668,48.27 L19.474,48.116 Z M27.482,58 L26.53,58 L26.11,57.384 C25.5126637,57.9066693 24.8593369,58.168 24.15,58.168 C23.0953281,58.168 22.2623364,57.8483365 21.651,57.209 C21.0396636,56.5696635 20.734,55.7040055 20.734,54.612 C20.734,53.9026631 20.8716653,53.277336 21.147,52.736 C21.4223347,52.194664 21.8213307,51.7746682 22.344,51.476 C22.8666693,51.1773318 23.4873297,51.028 24.206,51.028 C24.4300011,51.028 24.6679987,51.0676663 24.92,51.147 C25.1720013,51.2263337 25.4146655,51.3359993 25.648,51.476 L25.648,48.27 L27.482,48.116 L27.482,58 Z M24.22,56.614 C24.4626679,56.614 24.6983322,56.5673338 24.927,56.474 C25.1556678,56.3806662 25.3959987,56.2406676 25.648,56.054 L25.648,53.156 C25.4053321,52.9506656 25.1720011,52.8036671 24.948,52.715 C24.7239989,52.6263329 24.4813346,52.582 24.22,52.582 C23.7253309,52.582 23.3333348,52.7709981 23.044,53.149 C22.7546652,53.5270019 22.61,54.0146637 22.61,54.612 C22.61,55.2093363 22.7523319,55.6923315 23.037,56.061 C23.3216681,56.4296685 23.7159975,56.614 24.22,56.614 Z" id="Bold"></path>
                    <path d="M0.98,65.48 L3.528,65.48 L3.528,71.234 C3.528,71.8126696 3.68666508,72.2629984 4.004,72.585 C4.32133492,72.9070016 4.7366641,73.068 5.25,73.068 C5.7633359,73.068 6.17866508,72.9070016 6.496,72.585 C6.81333492,72.2629984 6.972,71.8126696 6.972,71.234 L6.972,65.48 L9.52,65.48 L9.52,71.36 C9.52,72.1720041 9.34266844,72.8649971 8.988,73.439 C8.63333156,74.0130029 8.13400322,74.4493318 7.49,74.748 C6.84599678,75.0466682 6.09933758,75.196 5.25,75.196 C4.40066242,75.196 3.65400322,75.0466682 3.01,74.748 C2.36599678,74.4493318 1.86666844,74.0130029 1.512,73.439 C1.15733156,72.8649971 0.98,72.1720041 0.98,71.36 L0.98,65.48 Z M13.888,65.116 L13.888,75 L11.34,75 L11.34,65.27 L13.888,65.116 Z M18.466,68.49 L20.244,68.49 L20.482,70.492 L18.466,70.492 L18.466,72.172 C18.466,72.4520014 18.5383326,72.6736658 18.683,72.837 C18.8276674,73.0003341 19.0213321,73.082 19.264,73.082 C19.6000017,73.082 19.9266651,72.9933342 20.244,72.816 L20.972,74.552 C20.7946658,74.7013341 20.5170019,74.8389994 20.139,74.965 C19.7609981,75.0910006 19.4133349,75.154 19.096,75.154 C18.5359972,75.154 18.0133358,75.0513344 17.528,74.846 C17.0426642,74.6406656 16.6530015,74.335002 16.359,73.929 C16.0649985,73.522998 15.918,73.0306696 15.918,72.452 L15.918,70.492 L14.868,70.492 L14.868,68.49 L15.918,68.49 L15.918,66.656 L18.466,66.306 L18.466,68.49 Z M26.502,70.254 C26.1659983,70.254 25.7973353,70.3239993 25.396,70.464 C24.9946647,70.6040007 24.6493348,70.7859989 24.36,71.01 L24.36,75 L21.812,75 L21.812,68.224 L23.086,68.224 L23.702,69.05 C24.0286683,68.8259989 24.4019979,68.6300008 24.822,68.462 C25.2420021,68.2939992 25.6293316,68.21 25.984,68.21 L26.502,70.254 Z M29.68,70.044 C29.4559989,70.044 29.1830016,70.0836663 28.861,70.163 C28.5389984,70.2423337 28.2473346,70.3379994 27.986,70.45 L27.314,68.616 C27.706002,68.4386658 28.172664,68.2870006 28.714,68.161 C29.255336,68.0349994 29.7873307,67.972 30.31,67.972 C31.2153379,67.972 31.9106642,68.2239975 32.396,68.728 C32.8813358,69.2320025 33.124,69.9226623 33.124,70.8 L33.124,75 L31.892,75 L31.164,74.3 C30.7159978,74.8693362 30.2073362,75.154 29.638,75.154 C28.7979958,75.154 28.1633355,74.9440021 27.734,74.524 C27.3046645,74.1039979 27.09,73.5346703 27.09,72.816 C27.09,71.49066 27.9766578,70.828 29.75,70.828 L30.562,70.828 C30.5246665,70.5666654 30.4290008,70.3706673 30.275,70.24 C30.1209992,70.1093327 29.9226679,70.044 29.68,70.044 Z M29.792,72.228 C29.6239992,72.228 29.4863339,72.2793328 29.379,72.382 C29.2716661,72.4846672 29.218,72.6153325 29.218,72.774 C29.218,72.9140007 29.2623329,73.0283329 29.351,73.117 C29.4396671,73.2056671 29.5493327,73.25 29.68,73.25 C29.9693348,73.25 30.2679985,73.1240013 30.576,72.872 L30.576,72.228 L29.792,72.228 Z M34.188,70.17 L38.136,70.17 L38.276,72.172 L34.342,72.172 L34.188,70.17 Z M47.446,72.158 C47.446,73.166005 47.0656705,73.8916644 46.305,74.335 C45.5443295,74.7783355 44.5806725,75 43.414,75 L39.816,75 L39.816,65.48 L43.134,65.48 C44.263339,65.48 45.1989963,65.7086644 45.941,66.166 C46.6830037,66.6233356 47.054,67.3093288 47.054,68.224 C47.054,68.5600017 46.9746675,68.863332 46.816,69.134 C46.6573325,69.404668 46.442668,69.675332 46.172,69.946 C46.564002,70.216668 46.8743322,70.5433314 47.103,70.926 C47.3316678,71.3086686 47.446,71.7193311 47.446,72.158 Z M44.422,68.35 C44.422,68.0699986 44.3006679,67.8553341 44.058,67.706 C43.8153321,67.5566659 43.4793355,67.482 43.05,67.482 L42.364,67.482 L42.364,69.092 L42.938,69.092 C43.3580021,69.092 43.7103319,69.0290006 43.995,68.903 C44.2796681,68.7769994 44.422,68.5926679 44.422,68.35 Z M44.814,72.102 C44.814,71.7846651 44.6926679,71.5373342 44.45,71.36 C44.2073321,71.1826658 43.8713355,71.094 43.442,71.094 L42.364,71.094 L42.364,72.998 L43.47,72.998 C43.8806687,72.998 44.2073321,72.9210008 44.45,72.767 C44.6926679,72.6129992 44.814,72.3913348 44.814,72.102 Z M51.8,75.154 C50.6613276,75.154 49.7443368,74.8483364 49.049,74.237 C48.3536632,73.6256636 48.006,72.7366725 48.006,71.57 C48.006,70.832663 48.1763316,70.1910027 48.517,69.645 C48.8576684,69.0989973 49.3196637,68.6836681 49.903,68.399 C50.4863362,68.1143319 51.1373297,67.972 51.856,67.972 C52.6120038,67.972 53.2793304,68.1119986 53.858,68.392 C54.4366696,68.6720014 54.8893317,69.0873306 55.216,69.638 C55.5426683,70.1886694 55.706,70.8559961 55.706,71.64 C55.706,72.377337 55.5356684,73.0119973 55.195,73.544 C54.8543316,74.0760027 54.3876696,74.477332 53.795,74.748 C53.2023304,75.018668 52.537337,75.154 51.8,75.154 Z M53.074,71.64 C53.074,71.173331 52.9690011,70.7906682 52.759,70.492 C52.5489989,70.1933318 52.2573352,70.044 51.884,70.044 C51.491998,70.044 51.1863344,70.179332 50.967,70.45 C50.7476656,70.720668 50.638,71.0939976 50.638,71.57 C50.638,72.036669 50.7406656,72.405332 50.946,72.676 C51.1513344,72.946668 51.4453314,73.082 51.828,73.082 C52.2293353,73.082 52.5373323,72.9606679 52.752,72.718 C52.9666677,72.4753321 53.074,72.1160024 53.074,71.64 Z M59.374,65.116 L59.374,75 L56.826,75 L56.826,65.27 L59.374,65.116 Z M67.536,75 L66.248,75 L65.87,74.51 C65.5899986,74.706001 65.2890016,74.8623327 64.967,74.979 C64.6449984,75.0956672 64.3160017,75.154 63.98,75.154 C62.9346614,75.154 62.0923365,74.8553363 61.453,74.258 C60.8136635,73.6606637 60.494,72.7786725 60.494,71.612 C60.494,70.4266607 60.8183301,69.5236698 61.467,68.903 C62.1156699,68.2823302 62.9906612,67.972 64.092,67.972 C64.4093349,67.972 64.7079986,68.0186662 64.988,68.112 L64.988,65.27 L67.536,65.116 L67.536,75 Z M64.372,73.194 C64.5773344,73.194 64.7826656,73.1240007 64.988,72.984 L64.988,70.114 C64.717332,69.9926661 64.4746677,69.932 64.26,69.932 C63.9333317,69.932 63.6626677,70.0813318 63.448,70.38 C63.2333323,70.6786682 63.126,71.0846641 63.126,71.598 C63.126,72.1113359 63.2333323,72.5056653 63.448,72.781 C63.6626677,73.0563347 63.9706647,73.194 64.372,73.194 Z" id="Ultra-Bold"></path>
                </g>
                <g id="Group" transform="translate(94.000000, 18.000000)">
                    <path d="M6.622,9.384 L6.706,10 L1.372,10 L1.372,0.48 L6.636,0.48 L6.706,1.068 L2.142,1.068 L2.142,4.834 L5.502,4.834 L5.572,5.408 L2.142,5.408 L2.142,9.384 L6.622,9.384 Z M9.8,7.158 L7.994,10 L7.126,10 L9.394,6.584 L7.378,3.392 L8.064,3.084 L9.982,6.178 L11.83,3.21 L12.67,3.21 L10.388,6.752 L12.488,10 L11.634,10 L9.8,7.158 Z M14.854,3.392 L16.086,3.392 L16.38,3.966 L14.854,3.966 L14.854,8.278 C14.854,8.64200182 14.9309992,8.9406655 15.085,9.174 C15.2390008,9.4073345 15.4793317,9.524 15.806,9.524 C15.9926676,9.524 16.183999,9.48200042 16.38,9.398 L16.548,10.014 C16.5199999,10.014 16.3940011,10.0466663 16.17,10.112 C15.9833324,10.1586669 15.8013342,10.182 15.624,10.182 C15.1479976,10.182 14.7723347,10.0256682 14.497,9.713 C14.2216653,9.40033177 14.084,8.95466956 14.084,8.376 L14.084,3.966 L13.076,3.966 L13.076,3.392 L14.084,3.392 L14.084,1.586 L14.854,1.278 L14.854,3.392 Z M21.084,3.812 C20.6826647,3.812 20.2510023,3.94266536 19.789,4.204 C19.3269977,4.46533464 18.9513348,4.75466508 18.662,5.072 L18.662,10 L17.892,10 L17.892,3.21 L18.368,3.21 L18.62,4.288 C18.9373349,4.02666536 19.3083312,3.78166781 19.733,3.553 C20.1576688,3.32433219 20.5286651,3.21 20.846,3.21 L21.084,3.812 Z M24.64,3.672 C24.2199979,3.672 23.8770013,3.70933296 23.611,3.784 C23.3449987,3.85866704 23.0393351,3.97999916 22.694,4.148 L22.428,3.616 C22.6706679,3.44799916 23.0159978,3.30800056 23.464,3.196 C23.9120022,3.08399944 24.2899985,3.028 24.598,3.028 C25.3633372,3.028 25.9606645,3.22866466 26.39,3.63 C26.8193355,4.03133534 27.034,4.56799664 27.034,5.24 L27.034,10 L26.418,10 L26.306,9.272 C26.0726655,9.53333464 25.7670019,9.75033247 25.389,9.923 C25.0109981,10.0956675 24.626002,10.182 24.234,10.182 C23.496663,10.182 22.932002,9.98833527 22.54,9.601 C22.147998,9.21366473 21.952,8.71200308 21.952,8.096 C21.952,7.46133016 22.1759978,6.96433513 22.624,6.605 C23.0720022,6.24566487 23.6553297,6.066 24.374,6.066 L26.264,6.066 L26.264,5.296 C26.264,4.80133086 26.1263347,4.40700147 25.851,4.113 C25.5756653,3.81899853 25.1720027,3.672 24.64,3.672 Z M24.388,6.612 C23.8559973,6.612 23.4476681,6.7519986 23.163,7.032 C22.8783319,7.3120014 22.736,7.66666452 22.736,8.096 C22.736,8.49733534 22.8689987,8.8379986 23.135,9.118 C23.4010013,9.3980014 23.7719976,9.538 24.248,9.538 C24.6586687,9.538 25.0366649,9.43533436 25.382,9.23 C25.7273351,9.02466564 26.0213321,8.75400168 26.264,8.418 L26.264,6.612 L24.388,6.612 Z M28.35,5.87 L31.78,5.87 L31.892,6.486 L28.462,6.486 L28.35,5.87 Z M34.454,9.384 L39.018,9.384 L39.088,10 L33.684,10 L33.684,0.48 L34.454,0.48 L34.454,9.384 Z M41.16,1.068 C41.16,1.23600084 41.1016672,1.37599944 40.985,1.488 C40.8683327,1.60000056 40.7260008,1.656 40.558,1.656 C40.3806658,1.656 40.2383339,1.60000056 40.131,1.488 C40.0236661,1.37599944 39.97,1.23600084 39.97,1.068 C39.97,0.89999916 40.0236661,0.76000056 40.131,0.648 C40.2383339,0.53599944 40.3806658,0.48 40.558,0.48 C40.7260008,0.48 40.8683327,0.53599944 40.985,0.648 C41.1016672,0.76000056 41.16,0.89999916 41.16,1.068 Z M40.95,3.21 L40.95,10 L40.18,10 L40.18,3.21 L40.95,3.21 Z M48.006,10.868 C48.006,11.5586701 47.7610024,12.1233311 47.271,12.562 C46.7809975,13.0006689 46.1020043,13.22 45.234,13.22 C44.9259985,13.22 44.5270024,13.1640006 44.037,13.052 C43.5469975,12.9399994 43.1760013,12.8046675 42.924,12.646 L43.19,12.086 C43.5260017,12.2446675 43.8433318,12.3636663 44.142,12.443 C44.4406682,12.5223337 44.7953313,12.5666666 45.206,12.576 C45.8033363,12.576 46.2909981,12.4360014 46.669,12.156 C47.0470019,11.8759986 47.236,11.4700027 47.236,10.938 L47.236,9.51 C46.694664,9.95800224 46.09267,10.182 45.43,10.182 C44.4593285,10.182 43.7173359,9.8553366 43.204,9.202 C42.6906641,8.5486634 42.434,7.67600546 42.434,6.584 C42.434,5.90266326 42.5529988,5.29366935 42.791,4.757 C43.0290012,4.22033065 43.3789977,3.79800154 43.841,3.49 C44.3030023,3.18199846 44.8606634,3.028 45.514,3.028 C46.1113363,3.028 46.7273302,3.27066424 47.362,3.756 L47.544,3.21 L48.006,3.21 L48.006,10.868 Z M47.236,8.698 L47.236,4.4 C46.9746654,4.17599888 46.7063347,3.99866732 46.431,3.868 C46.1556653,3.73733268 45.8360018,3.672 45.472,3.672 C44.7533297,3.672 44.2003353,3.94499727 43.813,4.491 C43.4256647,5.03700273 43.2273334,5.7299958 43.218,6.57 C43.218,7.44733772 43.4046648,8.16133058 43.778,8.712 C44.1513352,9.26266942 44.7019964,9.538 45.43,9.538 C45.8126686,9.538 46.1439986,9.46566739 46.424,9.321 C46.7040014,9.17633261 46.9746654,8.96866802 47.236,8.698 Z M55.398,5.282 L55.398,10 L54.628,10 L54.628,5.366 C54.628,4.2459944 54.1940043,3.686 53.326,3.686 C52.9526648,3.686 52.5466689,3.81199874 52.108,4.064 C51.6693311,4.31600126 51.2680018,4.64733128 50.904,5.058 L50.904,10 L50.134,10 L50.134,0.256 L50.904,0.116 L50.904,4.246 C51.1933348,3.90066494 51.5689977,3.6113345 52.031,3.378 C52.4930023,3.1446655 52.9293313,3.028 53.34,3.028 C54.0400035,3.028 54.5579983,3.23099797 54.894,3.637 C55.2300017,4.04300203 55.398,4.59132988 55.398,5.282 Z M58.324,3.392 L59.556,3.392 L59.85,3.966 L58.324,3.966 L58.324,8.278 C58.324,8.64200182 58.4009992,8.9406655 58.555,9.174 C58.7090008,9.4073345 58.9493317,9.524 59.276,9.524 C59.4626676,9.524 59.653999,9.48200042 59.85,9.398 L60.018,10.014 C59.9899999,10.014 59.8640011,10.0466663 59.64,10.112 C59.4533324,10.1586669 59.2713342,10.182 59.094,10.182 C58.6179976,10.182 58.2423347,10.0256682 57.967,9.713 C57.6916653,9.40033177 57.554,8.95466956 57.554,8.376 L57.554,3.966 L56.546,3.966 L56.546,3.392 L57.554,3.392 L57.554,1.586 L58.324,1.278 L58.324,3.392 Z" id="Extra-Light"></path>
                    <path d="M3.43,42.182 C3.02866466,42.182 2.53400294,42.1003341 1.946,41.937 C1.35799706,41.7736658 0.94266788,41.6033342 0.7,41.426 L1.05,40.166 C1.36733492,40.3246675 1.74533114,40.4693327 2.184,40.6 C2.62266886,40.7306673 3.03333142,40.796 3.416,40.796 C4.03200308,40.796 4.5033317,40.691001 4.83,40.481 C5.1566683,40.2709989 5.32,39.9746686 5.32,39.592 C5.32,39.3493321 5.23133422,39.1276677 5.054,38.927 C4.87666578,38.7263323 4.65033471,38.5466675 4.375,38.388 C4.09966529,38.2293325 3.70066928,38.0193346 3.178,37.758 C2.30066228,37.3099978 1.64033555,36.8643355 1.197,36.421 C0.75366445,35.9776644 0.532,35.42467 0.532,34.762 C0.532,34.2859976 0.66033205,33.8590019 0.917,33.481 C1.17366795,33.1029981 1.54233093,32.8043344 2.023,32.585 C2.50366907,32.3656656 3.0706634,32.256 3.724,32.256 C4.16266886,32.256 4.60833107,32.3189994 5.061,32.445 C5.51366893,32.5710006 5.93599804,32.731999 6.328,32.928 L5.796,34.174 C5.44133156,34.0059992 5.11233485,33.8753338 4.809,33.782 C4.50566515,33.6886662 4.16266858,33.642 3.78,33.642 C3.29466424,33.642 2.89800154,33.7353324 2.59,33.922 C2.28199846,34.1086676 2.128,34.3839982 2.128,34.748 C2.128,35.0093346 2.20966585,35.2403323 2.373,35.441 C2.53633415,35.6416677 2.75099867,35.8189992 3.017,35.973 C3.28300133,36.1270008 3.70066382,36.3486652 4.27,36.638 C4.86733632,36.9460015 5.34566487,37.2236654 5.705,37.471 C6.06433513,37.7183346 6.35833219,38.0169982 6.587,38.367 C6.81566781,38.7170017 6.93,39.125331 6.93,39.592 C6.93,40.0960025 6.79466802,40.543998 6.524,40.936 C6.25333198,41.328002 5.85433597,41.6336656 5.327,41.853 C4.79966403,42.0723344 4.16733702,42.182 3.43,42.182 Z M11.018,35.028 C12.0166717,35.028 12.7726641,35.35933 13.286,36.022 C13.7993359,36.68467 14.056,37.5293282 14.056,38.556 L14.056,39.018 L9.352,39.018 C9.4920007,40.2313394 10.2153268,40.838 11.522,40.838 C11.8860018,40.838 12.2103319,40.7890005 12.495,40.691 C12.7796681,40.5929995 13.1226647,40.4413344 13.524,40.236 L14,41.384 C13.2439962,41.9066693 12.4086712,42.168 11.494,42.168 C10.2619938,42.168 9.32166991,41.8483365 8.673,41.209 C8.02433009,40.5696635 7.7,39.6993388 7.7,38.598 C7.7,37.8886631 7.83299867,37.2656693 8.099,36.729 C8.36500133,36.1923306 8.74766417,35.7746682 9.247,35.476 C9.74633583,35.1773318 10.3366633,35.028 11.018,35.028 Z M10.976,36.372 C10.5279978,36.372 10.1663347,36.5119986 9.891,36.792 C9.61566529,37.0720014 9.44533366,37.4639975 9.38,37.968 L12.544,37.968 C12.4599996,37.4453307 12.2873346,37.048668 12.026,36.778 C11.7646654,36.507332 11.4146689,36.372 10.976,36.372 Z M25.564,37.492 L25.564,42 L23.982,42 L23.982,37.73 C23.982,37.263331 23.9096674,36.9110012 23.765,36.673 C23.6203326,36.4349988 23.3753351,36.316 23.03,36.316 C22.759332,36.316 22.4746682,36.3953325 22.176,36.554 C21.8773318,36.7126675 21.5553351,36.927332 21.21,37.198 L21.224,37.492 L21.224,42 L19.642,42 L19.642,37.73 C19.642,37.263331 19.5696674,36.9110012 19.425,36.673 C19.2803326,36.4349988 19.0353351,36.316 18.69,36.316 C18.1953309,36.316 17.5700038,36.6286635 16.814,37.254 L16.814,42 L15.246,42 L15.246,35.21 L16.296,35.21 L16.576,36.022 C16.968002,35.7139985 17.3879978,35.4643343 17.836,35.273 C18.2840022,35.0816657 18.6946648,34.986 19.068,34.986 C19.9826712,34.986 20.6033317,35.3266633 20.93,36.008 C21.322002,35.6999985 21.7396645,35.4526676 22.183,35.266 C22.6263356,35.0793324 23.0346648,34.986 23.408,34.986 C24.145337,34.986 24.6889983,35.2053311 25.039,35.644 C25.3890018,36.0826689 25.564,36.6986627 25.564,37.492 Z M28.826,33.18 C28.826,33.4413346 28.7350009,33.6629991 28.553,33.845 C28.3709991,34.0270009 28.1493346,34.118 27.888,34.118 C27.6266654,34.118 27.4096675,34.0270009 27.237,33.845 C27.0643325,33.6629991 26.978,33.4413346 26.978,33.18 C26.978,32.9279987 27.0666658,32.7110009 27.244,32.529 C27.4213342,32.3469991 27.6359987,32.256 27.888,32.256 C28.1493346,32.256 28.3709991,32.3469991 28.553,32.529 C28.7350009,32.7110009 28.826,32.9279987 28.826,33.18 Z M28.7,35.21 L28.7,42 L27.118,42 L27.118,35.21 L28.7,35.21 Z M29.918,37.548 L33.53,37.548 L33.67,38.794 L30.058,38.794 L29.918,37.548 Z M42.322,39.242 C42.322,40.1286711 42.0116698,40.8099976 41.391,41.286 C40.7703302,41.7620024 39.9420052,42 38.906,42 L35.322,42 L35.322,32.48 L38.654,32.48 C39.6526717,32.48 40.4343305,32.6876646 40.999,33.103 C41.5636695,33.5183354 41.846,34.1833288 41.846,35.098 C41.846,35.7420032 41.4726704,36.3299973 40.726,36.862 C41.2206691,37.0860011 41.6103319,37.393998 41.895,37.786 C42.1796681,38.178002 42.322,38.6633304 42.322,39.242 Z M40.208,35.112 C40.208,34.6173309 40.0610015,34.2743343 39.767,34.083 C39.4729985,33.8916657 39.0366696,33.796 38.458,33.796 L36.89,33.796 L36.89,36.456 L38.206,36.456 C38.8126697,36.4466666 39.2979982,36.3346677 39.662,36.12 C40.0260018,35.9053323 40.208,35.5693356 40.208,35.112 Z M40.698,39.27 C40.698,38.7659975 40.5416682,38.3833346 40.229,38.122 C39.9163318,37.8606654 39.489336,37.73 38.948,37.73 L36.89,37.73 L36.89,40.698 L38.808,40.698 C39.3866696,40.698 39.8463316,40.5790012 40.187,40.341 C40.5276684,40.1029988 40.698,39.7460024 40.698,39.27 Z M46.592,42.182 C45.8826631,42.182 45.2666693,42.0326682 44.744,41.734 C44.2213307,41.4353318 43.8176681,41.0176693 43.533,40.481 C43.2483319,39.9443306 43.106,39.3166703 43.106,38.598 C43.106,37.8886631 43.2483319,37.2656693 43.533,36.729 C43.8176681,36.1923306 44.2259973,35.7746682 44.758,35.476 C45.2900027,35.1773318 45.9106631,35.028 46.62,35.028 C47.3293369,35.028 47.947664,35.1749985 48.475,35.469 C49.002336,35.7630015 49.4083319,36.180664 49.693,36.722 C49.9776681,37.263336 50.12,37.8886631 50.12,38.598 C50.12,39.3073369 49.9753348,39.932664 49.686,40.474 C49.3966652,41.015336 48.9860027,41.4353318 48.454,41.734 C47.9219973,42.0326682 47.3013369,42.182 46.592,42.182 Z M48.496,38.612 C48.496,37.94933 48.3256684,37.4103354 47.985,36.995 C47.6443316,36.5796646 47.1893362,36.372 46.62,36.372 C46.0599972,36.372 45.6050017,36.5819979 45.255,37.002 C44.9049983,37.4220021 44.7253334,37.9539968 44.716,38.598 C44.716,39.26067 44.8863316,39.7973313 45.227,40.208 C45.5676684,40.6186687 46.0226638,40.824 46.592,40.824 C47.1613362,40.824 47.6209982,40.6140021 47.971,40.194 C48.3210018,39.7739979 48.496,39.2466698 48.496,38.612 Z M53.018,32.116 L53.018,42 L51.45,42 L51.45,32.27 L53.018,32.116 Z M60.816,42 L59.962,42 L59.626,41.44 C59.3366652,41.6733345 59.026335,41.8553327 58.695,41.986 C58.363665,42.1166673 58.0440015,42.182 57.736,42.182 C57.0453299,42.182 56.4456692,42.0326682 55.937,41.734 C55.4283308,41.4353318 55.0363347,41.015336 54.761,40.474 C54.4856653,39.932664 54.348,39.3026703 54.348,38.584 C54.348,37.8746631 54.4856653,37.2516693 54.761,36.715 C55.0363347,36.1783306 55.4329974,35.7630015 55.951,35.469 C56.4690026,35.1749985 57.0733299,35.028 57.764,35.028 C57.9786677,35.028 58.2166654,35.0676663 58.478,35.147 C58.7393346,35.2263337 58.9913321,35.3406659 59.234,35.49 L59.234,32.27 L60.816,32.13 L60.816,42 Z M57.764,40.824 C58.0440014,40.824 58.3006655,40.7796671 58.534,40.691 C58.7673345,40.6023329 59.0006655,40.460001 59.234,40.264 L59.234,36.932 C59.0099989,36.735999 58.7813345,36.5936671 58.548,36.505 C58.3146655,36.4163329 58.0533348,36.372 57.764,36.372 C57.2039972,36.372 56.7630016,36.5773313 56.441,36.988 C56.1189984,37.3986687 55.958,37.9259968 55.958,38.57 C55.958,39.2513367 56.1189984,39.7973313 56.441,40.208 C56.7630016,40.6186687 57.2039972,40.824 57.764,40.824 Z" id="Semi-Bold"></path>
                    <path d="M7.714,56.292 L7.98,58 L1.148,58 L1.148,48.48 L7.714,48.48 L7.98,50.202 L3.332,50.202 L3.332,52.344 L6.356,52.344 L6.622,54.066 L3.332,54.066 L3.332,56.292 L7.714,56.292 Z M11.97,56.25 L10.85,58 L8.4,58 L10.654,54.584 L8.526,51.546 L10.612,51 L11.97,53.114 L13.188,51.21 L15.596,51.21 L13.286,54.78 L15.484,58 L13.048,58 L11.97,56.25 Z M19.04,51.364 L20.552,51.364 L20.944,53.072 L19.04,53.072 L19.04,55.34 C19.04,55.6573349 19.1193325,55.913999 19.278,56.11 C19.4366675,56.306001 19.6559986,56.404 19.936,56.404 C20.2253348,56.404 20.5146652,56.3293341 20.804,56.18 L21.434,57.706 C21.2753325,57.8366673 21.0326683,57.9533328 20.706,58.056 C20.3793317,58.1586672 20.0760014,58.21 19.796,58.21 C18.937329,58.21 18.2326694,57.9860022 17.682,57.538 C17.1313306,57.0899978 16.856,56.4553374 16.856,55.634 L16.856,53.072 L15.876,53.072 L15.876,51.364 L16.856,51.364 L16.856,49.642 L19.04,49.306 L19.04,51.364 Z M26.796,52.96 C26.4693317,52.96 26.0936688,53.0509991 25.669,53.233 C25.2443312,53.4150009 24.8640017,53.6506652 24.528,53.94 L24.528,58 L22.33,58 L22.33,51.224 L23.45,51.224 L24.066,52.19 C24.3926683,51.9379987 24.7706645,51.7116677 25.2,51.511 C25.6293355,51.3103323 26.0166649,51.21 26.362,51.21 L26.796,52.96 Z M30.156,52.876 C29.885332,52.876 29.5773351,52.9179996 29.232,53.002 C28.8866649,53.0860004 28.5833346,53.1886661 28.322,53.31 L27.734,51.63 C28.0420015,51.4619992 28.466664,51.3150006 29.008,51.189 C29.549336,51.0629994 30.0346645,51 30.464,51 C31.0333362,51 31.5373311,51.1119989 31.976,51.336 C32.4146689,51.5600011 32.7529988,51.874998 32.991,52.281 C33.2290012,52.687002 33.348,53.1513307 33.348,53.674 L33.348,58 L32.13,58 L31.612,57.286 C31.1079975,57.8646696 30.5526697,58.154 29.946,58.154 C29.1246626,58.154 28.5040021,57.951002 28.084,57.545 C27.6639979,57.138998 27.454,56.5860035 27.454,55.886 C27.454,55.1953299 27.687331,54.6773351 28.154,54.332 C28.620669,53.9866649 29.2599959,53.814 30.072,53.814 L31.136,53.814 C31.1173332,53.5153318 31.0216675,53.2843341 30.849,53.121 C30.6763325,52.9576658 30.4453348,52.876 30.156,52.876 Z M30.086,55.13 C29.8526655,55.13 29.6636674,55.1999993 29.519,55.34 C29.3743326,55.4800007 29.302,55.6573323 29.302,55.872 C29.302,56.0400008 29.3626661,56.1846661 29.484,56.306 C29.6053339,56.4273339 29.763999,56.488 29.96,56.488 C30.3706687,56.488 30.7673314,56.3106684 31.15,55.956 L31.15,55.13 L30.086,55.13 Z M34.44,53.31 L38.248,53.31 L38.388,55.032 L34.594,55.032 L34.44,53.31 Z M47.418,55.172 C47.418,56.1146714 47.0726701,56.8216643 46.382,57.293 C45.6913299,57.7643357 44.8000055,58 43.708,58 L39.956,58 L39.956,48.48 L43.47,48.48 C44.5246719,48.48 45.3763301,48.7016644 46.025,49.145 C46.6736699,49.5883355 46.998,50.2673288 46.998,51.182 C46.998,51.7606696 46.6806698,52.3299972 46.046,52.89 C46.4660021,53.1513346 46.7996654,53.4733314 47.047,53.856 C47.2943346,54.2386686 47.418,54.6773309 47.418,55.172 Z M44.716,51.266 C44.716,50.5846633 44.2400048,50.244 43.288,50.244 L42.14,50.244 L42.14,52.218 L43.092,52.218 C43.5680024,52.218 43.9576652,52.1386675 44.261,51.98 C44.5643349,51.8213325 44.716,51.5833349 44.716,51.266 Z M45.15,55.158 C45.15,54.7846648 45.021668,54.493001 44.765,54.283 C44.5083321,54.0729989 44.1606689,53.968 43.722,53.968 L42.14,53.968 L42.14,56.25 L43.666,56.25 C44.1140022,56.25 44.473332,56.1543343 44.744,55.963 C45.014668,55.7716657 45.15,55.5033351 45.15,55.158 Z M51.758,58.154 C51.020663,58.154 50.3720028,58.0163347 49.812,57.741 C49.2519972,57.4656653 48.8156682,57.0596693 48.503,56.523 C48.1903318,55.9863306 48.034,55.3400038 48.034,54.584 C48.034,53.8559964 48.1949984,53.221336 48.517,52.68 C48.8390016,52.138664 49.2823305,51.7233348 49.847,51.434 C50.4116695,51.1446652 51.0579964,51 51.786,51 C52.523337,51 53.1743305,51.1423319 53.739,51.427 C54.3036695,51.7116681 54.7423318,52.124664 55.055,52.666 C55.3676682,53.207336 55.524,53.8559962 55.524,54.612 C55.524,55.3400036 55.3630016,55.9699973 55.041,56.502 C54.7189984,57.0340027 54.2733362,57.4423319 53.704,57.727 C53.1346638,58.0116681 52.4860036,58.154 51.758,58.154 Z M53.256,54.612 C53.256,54.0893307 53.1230013,53.6600017 52.857,53.324 C52.5909987,52.9879983 52.2386689,52.82 51.8,52.82 C51.3426644,52.82 50.978668,52.9809984 50.708,53.303 C50.437332,53.6250016 50.302,54.0519973 50.302,54.584 C50.302,55.1160027 50.4349987,55.5429984 50.701,55.865 C50.9670013,56.1870016 51.3239978,56.348 51.772,56.348 C52.2200022,56.348 52.579332,56.1893349 52.85,55.872 C53.120668,55.5546651 53.256,55.1346693 53.256,54.612 Z M58.884,48.116 L58.884,58 L56.7,58 L56.7,48.27 L58.884,48.116 Z M66.976,58 L65.856,58 L65.45,57.454 C65.1699986,57.6686677 64.8666683,57.8389994 64.54,57.965 C64.2133317,58.0910006 63.8773351,58.154 63.532,58.154 C62.4773281,58.154 61.6373365,57.8460031 61.012,57.23 C60.3866635,56.6139969 60.074,55.741339 60.074,54.612 C60.074,53.482661 60.3913302,52.5983365 61.026,51.959 C61.6606698,51.3196635 62.5239945,51 63.616,51 C63.9986686,51 64.385998,51.0933324 64.778,51.28 L64.778,48.27 L66.976,48.116 L66.976,58 Z M63.77,56.404 C64.0780015,56.404 64.4139982,56.2733346 64.778,56.012 L64.778,53.114 C64.4419983,52.8806655 64.0873352,52.764 63.714,52.764 C63.3033313,52.764 62.9720013,52.9319983 62.72,53.268 C62.4679987,53.6040017 62.342,54.0473306 62.342,54.598 C62.342,55.1580028 62.4679987,55.5989984 62.72,55.921 C62.9720013,56.2430016 63.3219978,56.404 63.77,56.404 Z" id="Extra-Bold"></path>
                    <path d="M2.408,18.524 L2.408,26 L1.302,26 L1.302,16.48 L2.184,16.48 L6.818,22.92 L7.392,23.858 L7.392,16.48 L8.512,16.48 L8.512,26 L7.616,26 L2.772,19.154 L2.408,18.524 Z M13.468,26.182 C12.8146634,26.182 12.2453358,26.0303348 11.76,25.727 C11.2746642,25.4236651 10.9036679,24.9990027 10.647,24.453 C10.3903321,23.9069973 10.262,23.2840035 10.262,22.584 C10.2713334,21.8933299 10.4089987,21.2796693 10.675,20.743 C10.9410013,20.2063306 11.3259975,19.7863348 11.83,19.483 C12.3340025,19.1796651 12.9219966,19.028 13.594,19.028 C14.6113384,19.028 15.4093304,19.3523301 15.988,20.001 C16.5666696,20.6496699 16.856,21.5246612 16.856,22.626 C16.856,23.3166701 16.7183347,23.9303306 16.443,24.467 C16.1676653,25.0036693 15.7733359,25.4236651 15.26,25.727 C14.7466641,26.0303348 14.1493367,26.182 13.468,26.182 Z M15.722,22.64 C15.722,21.8373293 15.5353352,21.1910024 15.162,20.701 C14.7886648,20.2109975 14.2613367,19.966 13.58,19.966 C12.9079966,19.966 12.376002,20.2109975 11.984,20.701 C11.591998,21.1910024 11.3913334,21.8139962 11.382,22.57 C11.382,23.3633373 11.5686648,24.0073309 11.942,24.502 C12.3153352,24.9966691 12.8426633,25.244 13.524,25.244 C14.1960034,25.244 14.727998,24.9990024 15.12,24.509 C15.512002,24.0189975 15.7126666,23.3960038 15.722,22.64 Z M21.7,20.092 C21.3266648,20.092 20.9113356,20.2156654 20.454,20.463 C19.9966644,20.7103346 19.6093349,20.9973317 19.292,21.324 L19.292,26 L18.186,26 L18.186,19.21 L18.844,19.21 L19.194,20.302 C19.5020015,20.0406654 19.8706645,19.7933345 20.3,19.56 C20.7293355,19.3266655 21.1073317,19.21 21.434,19.21 L21.7,20.092 Z M32.48,21.394 L32.48,25.986 L31.374,25.986 L31.374,21.548 C31.374,21.0439975 31.2900008,20.6520014 31.122,20.372 C30.9539992,20.0919986 30.6646687,19.952 30.254,19.952 C29.9646652,19.952 29.6310019,20.0569989 29.253,20.267 C28.8749981,20.477001 28.5226683,20.7453317 28.196,21.072 L28.21,21.394 L28.21,25.986 L27.104,25.986 L27.104,21.548 C27.104,21.0439975 27.0200008,20.6520014 26.852,20.372 C26.6839992,20.0919986 26.3946687,19.952 25.984,19.952 C25.6853318,19.952 25.333002,20.0686655 24.927,20.302 C24.520998,20.5353345 24.1546683,20.8293316 23.828,21.184 L23.828,26 L22.722,26 L22.722,19.21 L23.548,19.21 L23.73,20.176 C24.0566683,19.8399983 24.4463311,19.5600011 24.899,19.336 C25.3516689,19.1119989 25.7786647,19 26.18,19 C26.6373356,19 27.0176652,19.1026656 27.321,19.308 C27.6243349,19.5133344 27.8506659,19.8026648 28,20.176 C28.3266683,19.8399983 28.7139978,19.5600011 29.162,19.336 C29.6100022,19.1119989 30.0346647,19 30.436,19 C31.1266701,19 31.6399983,19.2169978 31.976,19.651 C32.3120017,20.0850022 32.48,20.6659964 32.48,21.394 Z M36.708,19.994 C36.3066647,19.994 35.9636681,20.0336663 35.679,20.113 C35.3943319,20.1923337 35.0840017,20.3066659 34.748,20.456 L34.426,19.616 C34.6686679,19.4479992 35.0256643,19.3080006 35.497,19.196 C35.9683357,19.0839994 36.3579985,19.028 36.666,19.028 C37.1793359,19.028 37.6366647,19.125999 38.038,19.322 C38.4393353,19.518001 38.7519989,19.7886649 38.976,20.134 C39.2000011,20.4793351 39.312,20.8713311 39.312,21.31 L39.312,26 L38.486,26 L38.346,25.314 C38.0939987,25.5473345 37.7813352,25.7503325 37.408,25.923 C37.0346648,26.0956675 36.6706684,26.182 36.316,26.182 C35.5599962,26.182 34.9836686,25.986002 34.587,25.594 C34.1903313,25.201998 33.992,24.6933365 33.992,24.068 C33.992,23.4146634 34.2159978,22.9060018 34.664,22.542 C35.1120022,22.1779982 35.704663,21.996 36.442,21.996 L38.192,21.996 L38.192,21.618 C38.192,21.1139975 38.0730012,20.7173348 37.835,20.428 C37.5969988,20.1386652 37.2213359,19.994 36.708,19.994 Z M36.414,22.738 C35.9753311,22.738 35.6323346,22.866332 35.385,23.123 C35.1376654,23.3796679 35.014,23.6946648 35.014,24.068 C35.014,24.3946683 35.1213323,24.6793321 35.336,24.922 C35.5506677,25.1646679 35.8679979,25.286 36.288,25.286 C36.6520018,25.286 36.999665,25.1926676 37.331,25.006 C37.662335,24.8193324 37.9539987,24.5766682 38.206,24.278 L38.206,22.738 L36.414,22.738 Z M42.252,16.116 L42.252,26 L41.146,26 L41.146,16.256 L42.252,16.116 Z" id="Normal"></path>
                </g>
            </g>
        </g>
    </g>
</svg>