<?xml version="1.0" encoding="UTF-8"?>
<svg width="618px" height="85px" viewBox="0 0 618 85" version="1.1" xmlns="http://www.w3.org/2000/svg" xmlns:xlink="http://www.w3.org/1999/xlink">
    <!-- Generator: Sketch 48 (47235) - http://www.bohemiancoding.com/sketch -->
    <title>mosk-desktop</title>
    <desc>Created with Sketch.</desc>
    <defs></defs>
    <g id="Artboard-2" stroke="none" stroke-width="1" fill="none" fill-rule="evenodd" transform="translate(-470.000000, -119.000000)">
        <g id="mosk-desktop" transform="translate(470.000000, 116.000000)">
            <path d="M184.14,38 L187.78,28.48 L189.838,28.48 L193.45,37.888 L191.294,38.14 L190.524,35.942 L187.066,35.942 L186.324,38 L184.14,38 Z M187.682,34.206 L189.88,34.206 L188.76,31.252 L187.682,34.206 Z M196.81,32.876 C196.539332,32.876 196.231335,32.9179996 195.886,33.002 C195.540665,33.0860004 195.237335,33.1886661 194.976,33.31 L194.388,31.63 C194.696002,31.4619992 195.120664,31.3150006 195.662,31.189 C196.203336,31.0629994 196.688665,31 197.118,31 C197.687336,31 198.191331,31.1119989 198.63,31.336 C199.068669,31.5600011 199.406999,31.874998 199.645,32.281 C199.883001,32.687002 200.002,33.1513307 200.002,33.674 L200.002,38 L198.784,38 L198.266,37.286 C197.761997,37.8646696 197.20667,38.154 196.6,38.154 C195.778663,38.154 195.158002,37.951002 194.738,37.545 C194.317998,37.138998 194.108,36.5860035 194.108,35.886 C194.108,35.1953299 194.341331,34.6773351 194.808,34.332 C195.274669,33.9866649 195.913996,33.814 196.726,33.814 L197.79,33.814 C197.771333,33.5153318 197.675668,33.2843341 197.503,33.121 C197.330332,32.9576658 197.099335,32.876 196.81,32.876 Z M196.74,35.13 C196.506665,35.13 196.317667,35.1999993 196.173,35.34 C196.028333,35.4800007 195.956,35.6573323 195.956,35.872 C195.956,36.0400008 196.016666,36.1846661 196.138,36.306 C196.259334,36.4273339 196.417999,36.488 196.614,36.488 C197.024669,36.488 197.421331,36.3106684 197.804,35.956 L197.804,35.13 L196.74,35.13 Z M212.392,35.172 C212.392,36.1146714 212.04667,36.8216643 211.356,37.293 C210.66533,37.7643357 209.774005,38 208.682,38 L204.93,38 L204.93,28.48 L208.444,28.48 C209.498672,28.48 210.35033,28.7016645 210.999,29.145 C211.64767,29.5883355 211.972,30.2673288 211.972,31.182 C211.972,31.7606696 211.65467,32.3299972 211.02,32.89 C211.440002,33.1513346 211.773665,33.4733314 212.021,33.856 C212.268335,34.2386686 212.392,34.6773309 212.392,35.172 Z M209.69,31.266 C209.69,30.5846633 209.214005,30.244 208.262,30.244 L207.114,30.244 L207.114,32.218 L208.066,32.218 C208.542002,32.218 208.931665,32.1386675 209.235,31.98 C209.538335,31.8213325 209.69,31.5833349 209.69,31.266 Z M210.124,35.158 C210.124,34.7846648 209.995668,34.493001 209.739,34.283 C209.482332,34.0729989 209.134669,33.968 208.696,33.968 L207.114,33.968 L207.114,36.25 L208.64,36.25 C209.088002,36.25 209.447332,36.1543343 209.718,35.963 C209.988668,35.7716657 210.124,35.5033351 210.124,35.158 Z M220.344,34.542 C220.344,35.671339 220.029003,36.5556635 219.399,37.195 C218.768997,37.8343365 217.908005,38.154 216.816,38.154 C216.227997,38.154 215.649336,37.9533353 215.08,37.552 L214.688,38 L213.568,38 L213.568,28.27 L215.752,28.116 L215.752,31.238 C216.116002,31.0793325 216.498665,31 216.9,31 C217.954672,31 218.79233,31.3079969 219.413,31.924 C220.03367,32.5400031 220.344,33.412661 220.344,34.542 Z M218.09,34.556 C218.09,33.9959972 217.964001,33.5573349 217.712,33.24 C217.459999,32.9226651 217.110002,32.764 216.662,32.764 C216.372665,32.764 216.069335,32.8713323 215.752,33.086 L215.752,36.11 C216.078668,36.306001 216.400665,36.404 216.718,36.404 C217.128669,36.404 217.459999,36.2336684 217.712,35.893 C217.964001,35.5523316 218.09,35.1066694 218.09,34.556 Z M228.968,28.298 C229.378669,28.298 229.831331,28.3586661 230.326,28.48 C230.820669,28.6013339 231.254665,28.7739989 231.628,28.998 L230.97,30.51 C230.465997,30.3513325 230.090335,30.2440003 229.843,30.188 C229.595665,30.1319997 229.299335,30.104 228.954,30.104 C228.515331,30.104 228.107002,30.2346654 227.729,30.496 C227.350998,30.7573346 227.050001,31.1283309 226.826,31.609 C226.601999,32.0896691 226.49,32.6426635 226.49,33.268 C226.49,33.8653363 226.597332,34.3996643 226.812,34.871 C227.026668,35.3423357 227.320665,35.7109987 227.694,35.977 C228.067335,36.2430013 228.487331,36.376 228.954,36.376 C229.61667,36.376 230.26533,36.2173349 230.9,35.9 L231.726,37.524 C231.371332,37.7293344 230.935003,37.8903327 230.417,38.007 C229.898997,38.1236672 229.416002,38.182 228.968,38.182 C227.978662,38.182 227.127004,37.9720021 226.413,37.552 C225.698996,37.1319979 225.155335,36.5510037 224.782,35.809 C224.408665,35.0669963 224.222,34.2246714 224.222,33.282 C224.222,32.3206619 224.422665,31.4620038 224.824,30.706 C225.225335,29.9499962 225.78533,29.3596688 226.504,28.935 C227.22267,28.5103312 228.043995,28.298 228.968,28.298 Z M235.87,31 C236.224668,31 236.621331,31.0559994 237.06,31.168 C237.498669,31.2800006 237.881332,31.4573321 238.208,31.7 L237.592,33.226 C237.274665,33.0766659 236.999335,32.971667 236.766,32.911 C236.532666,32.850333 236.280668,32.82 236.01,32.82 C235.571331,32.82 235.205001,32.9879983 234.911,33.324 C234.616999,33.6600017 234.47,34.0893307 234.47,34.612 C234.47,35.1346693 234.616999,35.5546651 234.911,35.872 C235.205001,36.1893349 235.571331,36.348 236.01,36.348 C236.271335,36.348 236.523332,36.3153337 236.766,36.25 C237.008668,36.1846663 237.283998,36.0773341 237.592,35.928 L238.208,37.468 C237.890665,37.7200013 237.515002,37.8973328 237.081,38 C236.646998,38.1026672 236.243335,38.154 235.87,38.154 C235.141996,38.154 234.500336,38.0140014 233.945,37.734 C233.389664,37.4539986 232.960335,37.0456693 232.657,36.509 C232.353665,35.9723307 232.202,35.3400036 232.202,34.612 C232.202,33.8839964 232.353665,33.2470027 232.657,32.701 C232.960335,32.1549973 233.389664,31.7350015 233.945,31.441 C234.500336,31.1469985 235.141996,31 235.87,31 Z M251.06,33.184 C251.06,34.1640049 250.878002,35.015663 250.514,35.739 C250.149998,36.462337 249.632003,37.019998 248.96,37.412 C248.287997,37.804002 247.499338,38 246.594,38 L242.646,38 L242.646,28.48 L246.622,28.48 C247.574005,28.48 248.383663,28.6806647 249.051,29.082 C249.718337,29.4833353 250.219998,30.0363298 250.556,30.741 C250.892002,31.4456702 251.06,32.2599954 251.06,33.184 Z M248.792,33.184 C248.792,32.2786621 248.605335,31.5646693 248.232,31.042 C247.858665,30.5193307 247.31267,30.258 246.594,30.258 L244.83,30.258 L244.83,36.236 L246.496,36.236 C247.205337,36.236 247.765331,35.9840025 248.176,35.48 C248.586669,34.9759975 248.792,34.2106718 248.792,33.184 Z M258.718,38 L257.598,38 L257.192,37.454 C256.911999,37.6686677 256.608668,37.8389994 256.282,37.965 C255.955332,38.0910006 255.619335,38.154 255.274,38.154 C254.219328,38.154 253.379336,37.8460031 252.754,37.23 C252.128664,36.6139969 251.816,35.741339 251.816,34.612 C251.816,33.482661 252.13333,32.5983365 252.768,31.959 C253.40267,31.3196635 254.265995,31 255.358,31 C255.740669,31 256.127998,31.0933324 256.52,31.28 L256.52,28.27 L258.718,28.116 L258.718,38 Z M255.512,36.404 C255.820002,36.404 256.155998,36.2733346 256.52,36.012 L256.52,33.114 C256.183998,32.8806655 255.829335,32.764 255.456,32.764 C255.045331,32.764 254.714001,32.9319983 254.462,33.268 C254.209999,33.6040017 254.084,34.0473306 254.084,34.598 C254.084,35.1580028 254.209999,35.5989984 254.462,35.921 C254.714001,36.2430016 255.063998,36.404 255.512,36.404 Z M270.422,36.292 L270.688,38 L263.856,38 L263.856,28.48 L270.422,28.48 L270.688,30.202 L266.04,30.202 L266.04,32.344 L269.064,32.344 L269.33,34.066 L266.04,34.066 L266.04,36.292 L270.422,36.292 Z M274.818,31 C275.50867,31 276.091998,31.1586651 276.568,31.476 C277.044002,31.7933349 277.400999,32.2179973 277.639,32.75 C277.877001,33.2820027 277.996,33.87933 277.996,34.542 L277.996,35.2 L273.642,35.2 C273.847334,35.9933373 274.444662,36.39 275.434,36.39 C276.078003,36.39 276.71733,36.2126684 277.352,35.858 L277.968,37.384 C277.650665,37.6173345 277.261002,37.8039993 276.799,37.944 C276.336998,38.0840007 275.830669,38.154 275.28,38.154 C274.03866,38.154 273.061004,37.8413365 272.347,37.216 C271.632996,36.5906635 271.276,35.7226722 271.276,34.612 C271.276,33.8839964 271.425332,33.2470027 271.724,32.701 C272.022668,32.1549973 272.440331,31.7350015 272.977,31.441 C273.513669,31.1469985 274.12733,31 274.818,31 Z M274.762,32.806 C274.453998,32.806 274.195001,32.9109989 273.985,33.121 C273.774999,33.3310011 273.651334,33.6086649 273.614,33.954 L275.91,33.954 C275.854,33.6086649 275.730334,33.3310011 275.539,33.121 C275.347666,32.9109989 275.088668,32.806 274.762,32.806 Z M284.744,32.47 L287.698,32.47 L287.95,34.192 L284.744,34.192 L284.744,38 L282.56,38 L282.56,28.494 L288.356,28.494 L288.608,30.202 L284.744,30.202 L284.744,32.47 Z M290.134,33.072 L289.042,33.072 L289.042,31.364 L290.134,31.364 L290.134,30.79 C290.134,29.9686626 290.406997,29.324669 290.953,28.858 C291.499003,28.391331 292.196662,28.158 293.046,28.158 C293.316668,28.158 293.612998,28.2116661 293.935,28.319 C294.257002,28.4263339 294.501999,28.5499993 294.67,28.69 L294.04,30.216 C293.750665,30.0666659 293.461335,29.992 293.172,29.992 C292.901332,29.992 292.691334,30.0876657 292.542,30.279 C292.392666,30.4703343 292.318,30.7293317 292.318,31.056 L292.318,31.364 L293.9,31.364 L294.306,33.072 L292.318,33.072 L292.318,41.22 L290.134,41.22 L290.134,33.072 Z M304.288,34.29 L302.482,34.29 L302.664,32.652 L306.262,32.652 L306.262,37.482 C305.897998,37.6966677 305.424336,37.8669994 304.841,37.993 C304.257664,38.1190006 303.690669,38.182 303.14,38.182 C302.150662,38.182 301.285004,37.9766687 300.543,37.566 C299.800996,37.1553313 299.229335,36.581337 298.828,35.844 C298.426665,35.106663 298.226,34.2526715 298.226,33.282 C298.226,32.3019951 298.447664,31.4340038 298.891,30.678 C299.334336,29.9219962 299.943329,29.3363354 300.718,28.921 C301.492671,28.5056646 302.351329,28.298 303.294,28.298 C303.723335,28.298 304.213331,28.3586661 304.764,28.48 C305.314669,28.6013339 305.771998,28.7739989 306.136,28.998 L305.478,30.51 C304.992664,30.3606659 304.600668,30.255667 304.302,30.195 C304.003332,30.134333 303.676668,30.104 303.322,30.104 C302.836664,30.104 302.377002,30.2229988 301.943,30.461 C301.508998,30.6990012 301.159001,31.0583309 300.893,31.539 C300.626999,32.0196691 300.494,32.5959966 300.494,33.268 C300.494,33.93067 300.615332,34.495331 300.858,34.962 C301.100668,35.428669 301.422665,35.7809988 301.824,36.019 C302.225335,36.2570012 302.668664,36.376 303.154,36.376 C303.480668,36.376 303.858665,36.338667 304.288,36.264 L304.288,34.29 Z M314.06,38.266 C314.06,38.8633363 313.908335,39.3859978 313.605,39.834 C313.301665,40.2820022 312.872336,40.6249988 312.317,40.863 C311.761664,41.1010012 311.120004,41.22 310.392,41.22 C310.018665,41.22 309.524003,41.1500007 308.908,41.01 C308.291997,40.8699993 307.802002,40.6786679 307.438,40.436 L308.096,38.896 C308.852004,39.2693352 309.57533,39.456 310.266,39.456 C310.742002,39.456 311.126999,39.3463344 311.421,39.127 C311.715001,38.9076656 311.862,38.6160018 311.862,38.252 L311.862,37.874 C311.441998,38.0606676 311.026669,38.154 310.616,38.154 C309.561328,38.154 308.721336,37.8460031 308.096,37.23 C307.470664,36.6139969 307.158,35.741339 307.158,34.612 C307.158,33.482661 307.47533,32.5983365 308.11,31.959 C308.74467,31.3196635 309.607995,31 310.7,31 C311.017335,31 311.339332,31.0629994 311.666,31.189 C311.992668,31.3150006 312.295999,31.4946655 312.576,31.728 L312.94,31.224 L314.06,31.224 L314.06,38.266 Z M311.862,36.012 L311.862,33.114 C311.525998,32.8806655 311.171335,32.764 310.798,32.764 C310.387331,32.764 310.056001,32.9319983 309.804,33.268 C309.551999,33.6040017 309.426,34.0473306 309.426,34.598 C309.426,35.1580028 309.551999,35.5989984 309.804,35.921 C310.056001,36.2430016 310.405998,36.404 310.854,36.404 C311.162002,36.404 311.497998,36.2733346 311.862,36.012 Z M327.052,28.48 L327.052,38 L324.868,38 L324.868,34.122 L321.326,34.122 L321.326,38 L319.142,38 L319.142,28.48 L321.326,28.396 L321.326,32.386 L324.868,32.386 L324.868,28.48 L327.052,28.48 Z M335.9,33.674 L335.9,38 L333.716,38 L333.716,33.842 C333.716,33.5153317 333.643667,33.2563343 333.499,33.065 C333.354333,32.8736657 333.142001,32.778 332.862,32.778 C332.469998,32.778 331.938003,32.973998 331.266,33.366 L331.266,38 L329.082,38 L329.082,28.27 L331.266,28.116 L331.266,31.644 C331.630002,31.447999 332.005665,31.2893339 332.393,31.168 C332.780335,31.0466661 333.151332,30.986 333.506,30.986 C335.102008,30.986 335.9,31.881991 335.9,33.674 Z M343.026,28.48 L343.026,38 L340.842,38 L340.842,28.48 L343.026,28.48 Z M347.226,29.068 C347.226,29.3946683 347.107001,29.6769988 346.869,29.915 C346.630999,30.1530012 346.344002,30.272 346.008,30.272 C345.681332,30.272 345.399001,30.1530012 345.161,29.915 C344.922999,29.6769988 344.804,29.3946683 344.804,29.068 C344.804,28.7319983 344.922999,28.4450012 345.161,28.207 C345.399001,27.9689988 345.681332,27.85 346.008,27.85 C346.344002,27.85 346.630999,27.9689988 346.869,28.207 C347.107001,28.4450012 347.226,28.7319983 347.226,29.068 Z M347.114,31.21 L347.114,38 L344.916,38 L344.916,31.21 L347.114,31.21 Z M351.09,37.776 C351.416668,37.6546661 351.661666,37.5310006 351.825,37.405 C351.988334,37.2789994 352.095666,37.1436674 352.147,36.999 C352.198334,36.8543326 352.224,36.6653345 352.224,36.432 L352.224,28.48 L354.422,28.48 L354.422,36.936 C354.422,37.3933356 354.345001,37.7689985 354.191,38.063 C354.036999,38.3570015 353.785002,38.6113323 353.435,38.826 C353.084998,39.0406677 352.597336,39.2506656 351.972,39.456 L351.09,37.776 Z M356.27,29.068 C356.27,28.7319983 356.388999,28.4450012 356.627,28.207 C356.865001,27.9689988 357.147332,27.85 357.474,27.85 C357.810002,27.85 358.096999,27.9689988 358.335,28.207 C358.573001,28.4450012 358.692,28.7319983 358.692,29.068 C358.692,29.3946683 358.573001,29.6769988 358.335,29.915 C358.096999,30.1530012 357.810002,30.272 357.474,30.272 C357.156665,30.272 356.876668,30.1530012 356.634,29.915 C356.391332,29.6769988 356.27,29.3946683 356.27,29.068 Z M358.58,31.21 L358.58,41.22 L356.382,41.22 L356.382,31.21 L358.58,31.21 Z M365.832,35.088 L365.832,38 L363.634,38 L363.634,28.48 L365.832,28.48 L365.832,32.12 L369.808,28.27 L371.474,29.502 L368.212,32.722 L372.076,38 L369.318,38 L366.672,34.248 L365.832,35.088 Z M375.268,35.802 L375.268,38 L373.084,38 L373.084,28.27 L375.268,28.116 L375.268,33.422 L377.998,31.014 L379.272,32.54 L377.424,34.052 L379.804,38 L377.396,38 L375.87,35.298 L375.268,35.802 Z M187.332,59.292 L191.462,59.292 L191.714,61 L185.148,61 L185.148,51.48 L187.332,51.48 L187.332,59.292 Z M194.906,51.116 L194.906,61 L192.722,61 L192.722,51.27 L194.906,51.116 Z M206.526,55.96 L205,58.074 L204.132,58.2 L202.228,55.806 L202.228,61 L200.044,61 L200.044,51.48 L201.5,51.48 L204.552,55.484 L207.324,51.48 L208.724,51.48 L208.724,61 L206.526,61 L206.526,55.96 Z M221.646,56.548 L221.646,61 L219.462,61 L219.462,56.842 C219.462,56.4966649 219.408334,56.2330009 219.301,56.051 C219.193666,55.8689991 218.995335,55.778 218.706,55.778 C218.509999,55.778 218.290668,55.8316661 218.048,55.939 C217.805332,56.0463339 217.534668,56.1886658 217.236,56.366 L217.236,61 L215.052,61 L215.052,56.842 C215.052,56.4966649 214.998334,56.2330009 214.891,56.051 C214.783666,55.8689991 214.585335,55.778 214.296,55.778 C214.099999,55.778 213.878335,55.8316661 213.631,55.939 C213.383665,56.0463339 213.110668,56.1886658 212.812,56.366 L212.812,61 L210.614,61 L210.614,54.21 L211.972,54.21 L212.35,54.924 C212.760669,54.6439986 213.194664,54.4176675 213.652,54.245 C214.109336,54.0723325 214.538665,53.986 214.94,53.986 C215.854671,53.986 216.493998,54.2799971 216.858,54.868 C217.259335,54.6066654 217.679331,54.3943341 218.118,54.231 C218.556669,54.0676658 218.971998,53.986 219.364,53.986 C220.176004,53.986 220.759332,54.2076644 221.114,54.651 C221.468668,55.0943355 221.646,55.7266626 221.646,56.548 Z M228.772,55.316 L228.772,61 L226.588,61 L226.588,51.48 L228.688,51.48 L232.72,57.234 L232.72,51.48 L234.904,51.48 L234.904,61 L232.804,61 L228.772,55.316 Z M240.588,55.778 C240.195998,55.778 239.664003,55.973998 238.992,56.366 L238.992,61 L236.794,61 L236.794,54.21 L238.152,54.21 L238.53,54.924 C238.940669,54.6439986 239.386331,54.4176675 239.867,54.245 C240.347669,54.0723325 240.802665,53.986 241.232,53.986 C242.072004,53.986 242.680998,54.2263309 243.059,54.707 C243.437002,55.1876691 243.626,55.8433292 243.626,56.674 L243.626,61 L241.428,61 L241.428,56.842 C241.428,56.5153317 241.358001,56.2563343 241.218,56.065 C241.077999,55.8736657 240.868001,55.778 240.588,55.778 Z M250.738,59.292 L254.868,59.292 L255.12,61 L248.554,61 L248.554,51.48 L250.738,51.48 L250.738,59.292 Z M258.312,51.116 L258.312,61 L256.128,61 L256.128,51.27 L258.312,51.116 Z M262.75,56.282 C262.75,55.3206619 262.952998,54.4620038 263.359,53.706 C263.765002,52.9499962 264.331996,52.3573355 265.06,51.928 C265.788004,51.4986645 266.618662,51.2793334 267.552,51.27 C268.541338,51.27 269.397663,51.4869978 270.121,51.921 C270.844337,52.3550022 271.397331,52.9453296 271.78,53.692 C272.162669,54.4386704 272.354,55.2693288 272.354,56.184 C272.354,57.1546715 272.151002,58.0179962 271.745,58.774 C271.338998,59.5300038 270.772004,60.1203312 270.044,60.545 C269.315996,60.9696688 268.485338,61.1866666 267.552,61.196 C266.571995,61.196 265.720337,60.9790022 264.997,60.545 C264.273663,60.1109978 263.718335,59.5206704 263.331,58.774 C262.943665,58.0273296 262.75,57.1966712 262.75,56.282 Z M267.58,53.104 C267.113331,53.104 266.686335,53.2346654 266.299,53.496 C265.911665,53.7573346 265.601335,54.1283309 265.368,54.609 C265.134665,55.0896691 265.018,55.6426635 265.018,56.268 C265.018,57.1826712 265.244331,57.9269971 265.697,58.501 C266.149669,59.0750029 266.763329,59.362 267.538,59.362 C268.014002,59.362 268.445665,59.2430012 268.833,59.005 C269.220335,58.7669988 269.525999,58.4100024 269.75,57.934 C269.974001,57.4579976 270.086,56.8746701 270.086,56.184 C270.086,55.5959971 269.983334,55.068669 269.778,54.602 C269.572666,54.135331 269.281002,53.7690013 268.903,53.503 C268.524998,53.2369987 268.084003,53.104 267.58,53.104 Z M276.834,61.154 C276.096663,61.154 275.448003,61.0163347 274.888,60.741 C274.327997,60.4656653 273.891668,60.0596693 273.579,59.523 C273.266332,58.9863306 273.11,58.3400038 273.11,57.584 C273.11,56.8559964 273.270998,56.221336 273.593,55.68 C273.915002,55.138664 274.358331,54.7233348 274.923,54.434 C275.487669,54.1446652 276.133996,54 276.862,54 C277.599337,54 278.250331,54.1423319 278.815,54.427 C279.379669,54.7116681 279.818332,55.124664 280.131,55.666 C280.443668,56.207336 280.6,56.8559962 280.6,57.612 C280.6,58.3400036 280.439002,58.9699973 280.117,59.502 C279.794998,60.0340027 279.349336,60.4423319 278.78,60.727 C278.210664,61.0116681 277.562004,61.154 276.834,61.154 Z M278.332,57.612 C278.332,57.0893307 278.199001,56.6600017 277.933,56.324 C277.666999,55.9879983 277.314669,55.82 276.876,55.82 C276.418664,55.82 276.054668,55.9809984 275.784,56.303 C275.513332,56.6250016 275.378,57.0519973 275.378,57.584 C275.378,58.1160027 275.510999,58.5429984 275.777,58.865 C276.043001,59.1870016 276.399998,59.348 276.848,59.348 C277.296002,59.348 277.655332,59.1893349 277.926,58.872 C278.196668,58.5546651 278.332,58.1346693 278.332,57.612 Z M287.348,57.962 L287.348,61 L285.164,61 L285.164,51.48 L288.678,51.48 C289.39667,51.48 290.04533,51.5989988 290.624,51.837 C291.20267,52.0750012 291.662332,52.4366642 292.003,52.922 C292.343668,53.4073358 292.514,54.0093297 292.514,54.728 C292.514,55.4373369 292.332002,56.0346642 291.968,56.52 C291.603998,57.0053358 291.121003,57.3669988 290.519,57.605 C289.916997,57.8430012 289.261337,57.962 288.552,57.962 L287.348,57.962 Z M290.232,54.784 C290.232,54.2799975 290.089668,53.8973346 289.805,53.636 C289.520332,53.3746654 289.121336,53.244 288.608,53.244 L287.348,53.244 L287.348,56.212 L288.636,56.212 C289.102669,56.212 289.482999,56.0836679 289.777,55.827 C290.071001,55.570332 290.222667,55.2226689 290.232,54.784 Z M300.424,57.542 C300.424,58.671339 300.109003,59.5556635 299.479,60.195 C298.848997,60.8343365 297.988005,61.154 296.896,61.154 C296.559998,61.154 296.205335,61.0793341 295.832,60.93 L295.832,64.22 L293.648,64.22 L293.648,54.224 L294.754,54.224 L295.132,54.644 C295.720003,54.2146645 296.335997,54 296.98,54 C298.034672,54 298.87233,54.3079969 299.493,54.924 C300.11367,55.5400031 300.424,56.412661 300.424,57.542 Z M298.17,57.556 C298.17,56.9959972 298.044001,56.5573349 297.792,56.24 C297.539999,55.9226651 297.190002,55.764 296.742,55.764 C296.452665,55.764 296.149335,55.8713323 295.832,56.086 L295.832,59.11 C296.158668,59.306001 296.480665,59.404 296.798,59.404 C297.208669,59.404 297.539999,59.2336684 297.792,58.893 C298.044001,58.5523316 298.17,58.1066694 298.17,57.556 Z M312.786,59.544 L313.668,60.468 L312.338,61.616 L311.386,60.664 C310.704663,61.0093351 309.944004,61.1866666 309.104,61.196 C308.123995,61.196 307.272337,60.9790022 306.549,60.545 C305.825663,60.1109978 305.270335,59.5206704 304.883,58.774 C304.495665,58.0273296 304.302,57.1966712 304.302,56.282 C304.302,55.3206619 304.504998,54.4620038 304.911,53.706 C305.317002,52.9499962 305.883996,52.3573355 306.612,51.928 C307.340004,51.4986645 308.170662,51.2793334 309.104,51.27 C310.093338,51.27 310.949663,51.4869978 311.673,51.921 C312.396337,52.3550022 312.949331,52.9453296 313.332,53.692 C313.714669,54.4386704 313.906,55.2693288 313.906,56.184 C313.906,56.84667 313.810334,57.4649971 313.619,58.039 C313.427666,58.6130029 313.150002,59.1146645 312.786,59.544 Z M309.93,59.222 L308.768,58.074 L310.238,56.884 L311.288,57.976 C311.521334,57.4813309 311.638,56.8840035 311.638,56.184 C311.638,55.5959971 311.535334,55.068669 311.33,54.602 C311.124666,54.135331 310.833002,53.7690013 310.455,53.503 C310.076998,53.2369987 309.636003,53.104 309.132,53.104 C308.665331,53.104 308.238335,53.2346654 307.851,53.496 C307.463665,53.7573346 307.153334,54.1283309 306.92,54.609 C306.686666,55.0896691 306.57,55.6426635 306.57,56.268 C306.57,57.1826712 306.796331,57.9269971 307.249,58.501 C307.701669,59.0750029 308.315329,59.362 309.09,59.362 C309.398002,59.362 309.677999,59.3153338 309.93,59.222 Z M321.564,64.22 L319.366,64.22 L319.366,60.874 C318.945998,61.0606676 318.530669,61.154 318.12,61.154 C317.065328,61.154 316.225336,60.8460031 315.6,60.23 C314.974664,59.6139969 314.662,58.741339 314.662,57.612 C314.662,56.482661 314.97933,55.5983365 315.614,54.959 C316.24867,54.3196635 317.111995,54 318.204,54 C318.521335,54 318.840998,54.0629994 319.163,54.189 C319.485002,54.3150006 319.781332,54.4899989 320.052,54.714 L320.444,54.224 L321.564,54.224 L321.564,64.22 Z M319.366,59.012 L319.366,56.114 C319.029998,55.8806655 318.675335,55.764 318.302,55.764 C317.891331,55.764 317.560001,55.9319983 317.308,56.268 C317.055999,56.6040017 316.93,57.0473306 316.93,57.598 C316.93,58.1580028 317.055999,58.5989984 317.308,58.921 C317.560001,59.2430016 317.909998,59.404 318.358,59.404 C318.666002,59.404 319.001998,59.2733346 319.366,59.012 Z M326.646,61 L326.646,51.48 L330.16,51.48 C331.280006,51.48 332.19933,51.7389974 332.918,52.257 C333.63667,52.7750026 333.996,53.5473282 333.996,54.574 C333.996,55.1340028 333.865335,55.6286645 333.604,56.058 C333.342665,56.4873355 332.988002,56.8279987 332.54,57.08 L334.766,61 L332.316,61 L330.538,57.696 L328.83,57.696 L328.83,61 L326.646,61 Z M331.714,54.616 C331.714,54.149331 331.574001,53.8040011 331.294,53.58 C331.013999,53.3559989 330.612669,53.244 330.09,53.244 L328.83,53.244 L328.83,55.96 L330.118,55.96 C330.594002,55.96 330.978999,55.8410012 331.273,55.603 C331.567001,55.3649988 331.714,55.0360021 331.714,54.616 Z M340.1,55.96 C339.773332,55.96 339.397669,56.0509991 338.973,56.233 C338.548331,56.4150009 338.168002,56.6506652 337.832,56.94 L337.832,61 L335.634,61 L335.634,54.224 L336.754,54.224 L337.37,55.19 C337.696668,54.9379987 338.074665,54.7116677 338.504,54.511 C338.933335,54.3103323 339.320665,54.21 339.666,54.21 L340.1,55.96 Z M346.876,61.182 C346.437331,61.182 345.917003,61.1026675 345.315,60.944 C344.712997,60.7853325 344.244002,60.6033344 343.908,60.398 L344.538,58.69 C344.836668,58.8486675 345.207664,58.995666 345.651,59.131 C346.094336,59.266334 346.488665,59.334 346.834,59.334 C347.300669,59.334 347.659999,59.2523341 347.912,59.089 C348.164001,58.9256659 348.29,58.708668 348.29,58.438 C348.29,58.2606658 348.194334,58.0973341 348.003,57.948 C347.811666,57.7986659 347.501335,57.5980013 347.072,57.346 C346.978666,57.2993331 346.838668,57.2200006 346.652,57.108 C346.01733,56.7253314 345.520335,56.4080013 345.161,56.156 C344.801665,55.9039987 344.484335,55.5866686 344.209,55.204 C343.933665,54.8213314 343.796,54.3920024 343.796,53.916 C343.805333,53.4119975 343.947665,52.9616686 344.223,52.565 C344.498335,52.1683314 344.892664,51.8556678 345.406,51.627 C345.919336,51.3983322 346.52133,51.284 347.212,51.284 C347.678669,51.284 348.159331,51.351666 348.654,51.487 C349.148669,51.622334 349.582665,51.8019989 349.956,52.026 L349.284,53.622 C348.835998,53.4353324 348.467335,53.304667 348.178,53.23 C347.888665,53.155333 347.576002,53.118 347.24,53.118 C346.894665,53.118 346.612334,53.1903326 346.393,53.335 C346.173666,53.4796674 346.064,53.6779987 346.064,53.93 C346.064,54.1353344 346.154999,54.3149992 346.337,54.469 C346.519001,54.6230008 346.810665,54.8073323 347.212,55.022 C347.361334,55.0873337 347.515333,55.1713328 347.674,55.274 C348.346003,55.666002 348.859332,55.9856654 349.214,56.233 C349.568668,56.4803346 349.881332,56.7929981 350.152,57.171 C350.422668,57.5490019 350.558,57.9806642 350.558,58.466 C350.558,58.9886693 350.411001,59.4553313 350.117,59.866 C349.822999,60.2766687 349.398336,60.5986655 348.843,60.832 C348.287664,61.0653345 347.632004,61.182 346.876,61.182 Z M353.834,61.154 C353.460665,61.154 353.008003,61.0933339 352.476,60.972 C351.943997,60.8506661 351.519335,60.6640013 351.202,60.412 L351.846,58.984 C352.135335,59.1240007 352.454998,59.2383329 352.805,59.327 C353.155002,59.4156671 353.451332,59.46 353.694,59.46 C353.918001,59.46 354.116332,59.4203337 354.289,59.341 C354.461668,59.2616663 354.548,59.1520007 354.548,59.012 C354.548,58.8906661 354.466334,58.7740006 354.303,58.662 C354.139666,58.5499994 353.913335,58.4473338 353.624,58.354 C352.942663,58.1206655 352.382669,57.8313351 351.944,57.486 C351.505331,57.1406649 351.286,56.7020027 351.286,56.17 C351.286,55.4979966 351.537997,54.9683353 352.042,54.581 C352.546003,54.1936647 353.236662,54 354.114,54 C354.468668,54 354.881664,54.0583327 355.353,54.175 C355.824336,54.2916673 356.223332,54.4713321 356.55,54.714 L355.92,56.142 C355.266663,55.8526652 354.688003,55.708 354.184,55.708 C353.969332,55.708 353.792001,55.7499996 353.652,55.834 C353.511999,55.9180004 353.442,56.0253327 353.442,56.156 C353.442,56.3053341 353.735997,56.4826656 354.324,56.688 C355.882674,57.229336 356.662,57.9853285 356.662,58.956 C356.662,59.6560035 356.421669,60.1973314 355.941,60.58 C355.460331,60.9626686 354.758005,61.154 353.834,61.154 Z M360.232,51.48 L368.156,51.48 L368.422,53.202 L365.272,53.202 L365.272,61 L363.074,61 L363.074,53.202 L360.232,53.202 L360.232,51.48 Z M371.866,54.364 L373.378,54.364 L373.77,56.072 L371.866,56.072 L371.866,58.34 C371.866,58.6573349 371.945333,58.913999 372.104,59.11 C372.262667,59.306001 372.481999,59.404 372.762,59.404 C373.051335,59.404 373.340665,59.3293341 373.63,59.18 L374.26,60.706 C374.101333,60.8366673 373.858668,60.9533328 373.532,61.056 C373.205332,61.1586672 372.902001,61.21 372.622,61.21 C371.763329,61.21 371.058669,60.9860022 370.508,60.538 C369.957331,60.0899978 369.682,59.4553374 369.682,58.634 L369.682,56.072 L368.702,56.072 L368.702,54.364 L369.682,54.364 L369.682,52.642 L371.866,52.306 L371.866,54.364 Z M185.008,74.48 L187.206,74.48 L187.206,80.318 C187.206,80.9900034 187.378665,81.4986649 187.724,81.844 C188.069335,82.1893351 188.53133,82.362 189.11,82.362 C189.68867,82.362 190.150665,82.1870018 190.496,81.837 C190.841335,81.4869982 191.014,80.98067 191.014,80.318 L191.014,74.48 L193.212,74.48 L193.212,80.444 C193.212,81.2000038 193.041668,81.8579972 192.701,82.418 C192.360332,82.9780028 191.87967,83.4119985 191.259,83.72 C190.63833,84.0280015 189.922004,84.182 189.11,84.182 C188.297996,84.182 187.58167,84.0280015 186.961,83.72 C186.34033,83.4119985 185.862002,82.9780028 185.526,82.418 C185.189998,81.8579972 185.022,81.2000038 185.022,80.444 L185.008,74.48 Z M197.944,82.446 C198.364002,82.446 198.89133,82.2453353 199.526,81.844 L199.526,77.224 L201.724,77.224 L201.724,84.014 L200.506,84.014 L199.988,83.3 C199.567998,83.570668 199.122336,83.7946658 198.651,83.972 C198.179664,84.1493342 197.729335,84.238 197.3,84.238 C196.450662,84.238 195.837002,83.9953358 195.459,83.51 C195.080998,83.0246642 194.892,82.3666708 194.892,81.536 L194.892,77.224 L197.09,77.224 L197.09,81.368 C197.09,81.7040017 197.159999,81.9676657 197.3,82.159 C197.440001,82.3503343 197.654665,82.446 197.944,82.446 Z M205.7,74.592 L207.87,74.34 L210.39,81.228 L212.84,74.48 L215.01,74.48 L211.384,84 L209.326,84 L205.7,74.592 Z M222.514,77.21 L219.84,84 L217.852,84 L215.36,77.56 L217.432,76.958 L218.888,81.186 L220.288,77.21 L222.514,77.21 Z M234.26,84 L232.51,77.546 L230.816,84 L228.758,84 L225.902,74.592 L228.072,74.34 L229.822,81.228 L231.432,74.48 L233.616,74.48 L235.324,81.228 L236.92,74.48 L239.104,74.48 L236.304,84 L234.26,84 Z M243.094,77 C243.78467,77 244.367998,77.1586651 244.844,77.476 C245.320002,77.7933349 245.676999,78.2179973 245.915,78.75 C246.153001,79.2820027 246.272,79.87933 246.272,80.542 L246.272,81.2 L241.918,81.2 C242.123334,81.9933373 242.720662,82.39 243.71,82.39 C244.354003,82.39 244.99333,82.2126684 245.628,81.858 L246.244,83.384 C245.926665,83.6173345 245.537002,83.8039993 245.075,83.944 C244.612998,84.0840007 244.106669,84.154 243.556,84.154 C242.31466,84.154 241.337004,83.8413365 240.623,83.216 C239.908996,82.5906635 239.552,81.7226722 239.552,80.612 C239.552,79.8839964 239.701332,79.2470027 240,78.701 C240.298668,78.1549973 240.716331,77.7350015 241.253,77.441 C241.789669,77.1469985 242.40333,77 243.094,77 Z M243.038,78.806 C242.729998,78.806 242.471001,78.9109989 242.261,79.121 C242.050999,79.331001 241.927334,79.6086649 241.89,79.954 L244.186,79.954 C244.13,79.6086649 244.006334,79.331001 243.815,79.121 C243.623666,78.9109989 243.364668,78.806 243.038,78.806 Z M249.548,84.154 C249.174665,84.154 248.722003,84.0933339 248.19,83.972 C247.657997,83.8506661 247.233335,83.6640013 246.916,83.412 L247.56,81.984 C247.849335,82.1240007 248.168998,82.2383329 248.519,82.327 C248.869002,82.4156671 249.165332,82.46 249.408,82.46 C249.632001,82.46 249.830332,82.4203337 250.003,82.341 C250.175668,82.2616663 250.262,82.1520007 250.262,82.012 C250.262,81.8906661 250.180334,81.7740006 250.017,81.662 C249.853666,81.5499994 249.627335,81.4473338 249.338,81.354 C248.656663,81.1206655 248.096669,80.8313351 247.658,80.486 C247.219331,80.1406649 247,79.7020027 247,79.17 C247,78.4979966 247.251997,77.9683353 247.756,77.581 C248.260003,77.1936647 248.950662,77 249.828,77 C250.182668,77 250.595664,77.0583328 251.067,77.175 C251.538336,77.2916673 251.937332,77.4713321 252.264,77.714 L251.634,79.142 C250.980663,78.8526652 250.402003,78.708 249.898,78.708 C249.683332,78.708 249.506001,78.7499996 249.366,78.834 C249.225999,78.9180004 249.156,79.0253327 249.156,79.156 C249.156,79.3053341 249.449997,79.4826656 250.038,79.688 C251.596674,80.229336 252.376,80.9853285 252.376,81.956 C252.376,82.6560035 252.135669,83.1973314 251.655,83.58 C251.174331,83.9626686 250.472005,84.154 249.548,84.154 Z M256.002,77.364 L257.514,77.364 L257.906,79.072 L256.002,79.072 L256.002,81.34 C256.002,81.6573349 256.081333,81.913999 256.24,82.11 C256.398667,82.306001 256.617999,82.404 256.898,82.404 C257.187335,82.404 257.476665,82.3293341 257.766,82.18 L258.396,83.706 C258.237333,83.8366673 257.994668,83.9533328 257.668,84.056 C257.341332,84.1586672 257.038001,84.21 256.758,84.21 C255.899329,84.21 255.194669,83.9860022 254.644,83.538 C254.093331,83.0899978 253.818,82.4553374 253.818,81.634 L253.818,79.072 L252.838,79.072 L252.838,77.364 L253.818,77.364 L253.818,75.642 L256.002,75.306 L256.002,77.364 Z M270.17,84 L268.42,77.546 L266.726,84 L264.668,84 L261.812,74.592 L263.982,74.34 L265.732,81.228 L267.342,74.48 L269.526,74.48 L271.234,81.228 L272.83,74.48 L275.014,74.48 L272.214,84 L270.17,84 Z M278.192,75.068 C278.192,75.3946683 278.073001,75.6769988 277.835,75.915 C277.596999,76.1530012 277.310002,76.272 276.974,76.272 C276.647332,76.272 276.365001,76.1530012 276.127,75.915 C275.888999,75.6769988 275.77,75.3946683 275.77,75.068 C275.77,74.7319983 275.888999,74.4450012 276.127,74.207 C276.365001,73.9689988 276.647332,73.85 276.974,73.85 C277.310002,73.85 277.596999,73.9689988 277.835,74.207 C278.073001,74.4450012 278.192,74.7319983 278.192,75.068 Z M278.08,77.21 L278.08,84 L275.882,84 L275.882,77.21 L278.08,77.21 Z M283.33,78.778 C282.937998,78.778 282.406003,78.973998 281.734,79.366 L281.734,84 L279.536,84 L279.536,77.21 L280.894,77.21 L281.272,77.924 C281.682669,77.6439986 282.128331,77.4176675 282.609,77.245 C283.089669,77.0723325 283.544665,76.986 283.974,76.986 C284.814004,76.986 285.422998,77.2263309 285.801,77.707 C286.179002,78.1876691 286.368,78.8433292 286.368,79.674 L286.368,84 L284.17,84 L284.17,79.842 C284.17,79.5153317 284.100001,79.2563343 283.96,79.065 C283.819999,78.8736657 283.610001,78.778 283.33,78.778 Z M294.25,84.266 C294.25,84.8633363 294.098335,85.3859978 293.795,85.834 C293.491665,86.2820022 293.062336,86.6249988 292.507,86.863 C291.951664,87.1010012 291.310004,87.22 290.582,87.22 C290.208665,87.22 289.714003,87.1500007 289.098,87.01 C288.481997,86.8699993 287.992002,86.6786679 287.628,86.436 L288.286,84.896 C289.042004,85.2693352 289.76533,85.456 290.456,85.456 C290.932002,85.456 291.316999,85.3463344 291.611,85.127 C291.905001,84.9076656 292.052,84.6160018 292.052,84.252 L292.052,83.874 C291.631998,84.0606676 291.216669,84.154 290.806,84.154 C289.751328,84.154 288.911336,83.8460031 288.286,83.23 C287.660664,82.6139969 287.348,81.741339 287.348,80.612 C287.348,79.482661 287.66533,78.5983365 288.3,77.959 C288.93467,77.3196635 289.797995,77 290.89,77 C291.207335,77 291.529332,77.0629994 291.856,77.189 C292.182668,77.3150006 292.485999,77.4946655 292.766,77.728 L293.13,77.224 L294.25,77.224 L294.25,84.266 Z M292.052,82.012 L292.052,79.114 C291.715998,78.8806655 291.361335,78.764 290.988,78.764 C290.577331,78.764 290.246001,78.9319983 289.994,79.268 C289.741999,79.6040017 289.616,80.0473306 289.616,80.598 C289.616,81.1580028 289.741999,81.5989984 289.994,81.921 C290.246001,82.2430016 290.595998,82.404 291.044,82.404 C291.352002,82.404 291.687998,82.2733346 292.052,82.012 Z M302.916,80.92 L300.774,84 L298.324,84 L301.642,79.226 L298.548,74.872 L300.718,74.158 L303,77.504 L304.974,74.48 L307.508,74.48 L304.26,79.212 L307.424,84 L304.834,84 L302.916,80.92 Z M311.372,82.25 L310.252,84 L307.802,84 L310.056,80.584 L307.928,77.546 L310.014,77 L311.372,79.114 L312.59,77.21 L314.998,77.21 L312.688,80.78 L314.886,84 L312.45,84 L311.372,82.25 Z M323.636,80.318 L323.636,84 L321.452,84 L321.452,80.262 L318.386,74.886 L320.5,74.284 L322.53,78.176 L324.672,74.48 L326.94,74.48 L323.636,80.318 Z M334.444,77.21 L331.784,83.972 L331.784,87.22 L329.782,87.22 L329.782,84 L327.29,77.56 L329.362,76.958 L330.818,81.186 L332.218,77.21 L334.444,77.21 Z M340.282,82.292 L345.364,82.292 L345.588,84 L338.07,84 L337.818,82.39 L342.97,76.202 L338.448,76.202 L338.224,74.48 L345.308,74.48 L345.546,76.104 L340.282,82.292 Z M346.176,77.21 L351.594,77.21 L351.706,78.442 L348.64,82.264 L351.72,82.264 L351.902,84 L346.204,84 L345.924,82.852 L349.004,78.96 L346.456,78.96 L346.176,77.21 Z" id="Aa-Bb-Cc-Dd-Ee-Ff-Gg" fill="#3D3B37"></path>
            <path d="M0.13,84 L29.51,7.16 L46.121,7.16 L75.275,83.096 L57.873,85.13 L51.658,67.389 L23.747,67.389 L17.758,84 L0.13,84 Z M28.719,53.377 L46.46,53.377 L37.42,29.534 L28.719,53.377 Z M102.395,42.642 C100.210322,42.642 97.7243473,42.9809966 94.937,43.659 C92.1496527,44.3370034 89.7013439,45.1656618 87.592,46.145 L82.846,32.585 C85.3320124,31.2289932 88.7596448,30.0425051 93.129,29.0255 C97.4983552,28.0084949 101.415649,27.5 104.881,27.5 C109.476356,27.5 113.544316,28.403991 117.085,30.212 C120.625684,32.020009 123.35649,34.5624836 125.2775,37.8395 C127.19851,41.1165164 128.159,44.8643122 128.159,49.083 L128.159,84 L118.328,84 L114.147,78.237 C110.07898,82.90769 105.596691,85.243 100.7,85.243 C94.0706335,85.243 89.061017,83.6045164 85.671,80.3275 C82.2809831,77.0504836 80.586,72.5870282 80.586,66.937 C80.586,61.3623055 82.4693145,57.1813473 86.236,54.394 C90.0026855,51.6066527 95.1629672,50.213 101.717,50.213 L110.305,50.213 C110.154333,47.8023213 109.382174,45.9378399 107.9885,44.6195 C106.594826,43.3011601 104.730345,42.642 102.395,42.642 Z M101.83,60.835 C99.9466573,60.835 98.4211725,61.3999943 97.2535,62.53 C96.0858275,63.6600056 95.502,65.0913247 95.502,66.824 C95.502,68.1800068 95.9916618,69.3476618 96.971,70.327 C97.9503382,71.3063382 99.2309921,71.796 100.813,71.796 C104.127683,71.796 107.329318,70.364681 110.418,67.502 L110.418,60.835 L101.83,60.835 Z" id="Aa" fill="#3D3B37"></path>
            <g id="Group-4" transform="translate(457.000000, 8.000000)" fill="#000000">
                <g id="Group-2">
                    <path d="M0.14,3.48 L7.266,3.48 L7.336,4.026 L4.074,4.026 L4.074,13 L3.388,13 L3.388,4.026 L0.14,4.026 L0.14,3.48 Z M13.692,8.282 L13.692,13 L13.006,13 L13.006,8.282 C13.006,7.75933072 12.9126676,7.34866816 12.726,7.05 C12.5393324,6.75133184 12.2080024,6.602 11.732,6.602 C10.994663,6.602 10.1780045,7.05932876 9.282,7.974 L9.282,13 L8.596,13 L8.596,3.256 L9.282,3.116 L9.282,7.26 C9.58066816,6.91466494 9.95166445,6.62300119 10.395,6.385 C10.8383356,6.14699881 11.2653313,6.028 11.676,6.028 C12.3666701,6.028 12.8753317,6.23099797 13.202,6.637 C13.5286683,7.04300203 13.692,7.59132988 13.692,8.282 Z M16.478,4.068 C16.478,4.21733408 16.4266672,4.34333282 16.324,4.446 C16.2213328,4.54866718 16.0906675,4.6 15.932,4.6 C15.7733325,4.6 15.6450005,4.54866718 15.547,4.446 C15.4489995,4.34333282 15.4,4.21733408 15.4,4.068 C15.4,3.91866592 15.4489995,3.79266718 15.547,3.69 C15.6450005,3.58733282 15.7733325,3.536 15.932,3.536 C16.0813341,3.536 16.2096661,3.58733282 16.317,3.69 C16.4243339,3.79266718 16.478,3.91866592 16.478,4.068 Z M16.282,6.21 L16.282,13 L15.596,13 L15.596,6.21 L16.282,6.21 Z M21.378,6.602 C20.640663,6.602 19.8240045,7.05932876 18.928,7.974 L18.928,13 L18.242,13 L18.242,6.21 L18.774,6.21 L18.914,7.274 C19.2126682,6.92866494 19.5859978,6.63466788 20.034,6.392 C20.4820022,6.14933212 20.9113313,6.028 21.322,6.028 C22.0126701,6.028 22.5213317,6.23099797 22.848,6.637 C23.1746683,7.04300203 23.338,7.59132988 23.338,8.282 L23.338,13 L22.652,13 L22.652,8.282 C22.652,7.75933072 22.5586676,7.34866816 22.372,7.05 C22.1853324,6.75133184 21.8540024,6.602 21.378,6.602 Z" id="Thin"></path>
                    <path d="M2.198,28.3 L6.748,28.3 L6.818,29 L1.33,29 L1.33,19.48 L2.198,19.48 L2.198,28.3 Z M8.974,20.068 C8.974,20.2546676 8.90633401,20.4109994 8.771,20.537 C8.63566599,20.6630006 8.47933422,20.726 8.302,20.726 C8.10599902,20.726 7.94733394,20.6630006 7.826,20.537 C7.70466606,20.4109994 7.644,20.2546676 7.644,20.068 C7.644,19.8813324 7.70466606,19.7250006 7.826,19.599 C7.94733394,19.4729994 8.10599902,19.41 8.302,19.41 C8.47933422,19.41 8.63566599,19.4729994 8.771,19.599 C8.90633401,19.7250006 8.974,19.8813324 8.974,20.068 Z M8.75,22.21 L8.75,29 L7.868,29 L7.868,22.21 L8.75,22.21 Z M15.834,29.868 C15.834,30.3160022 15.7173345,30.7173316 15.484,31.072 C15.2506655,31.4266684 14.9146689,31.7066656 14.476,31.912 C14.0373311,32.1173344 13.5286696,32.22 12.95,32.22 C12.6419985,32.22 12.2476691,32.1640006 11.767,32.052 C11.2863309,31.9399994 10.910668,31.8046675 10.64,31.646 L10.906,31.002 C11.2046682,31.1420007 11.5079985,31.2563329 11.816,31.345 C12.1240015,31.4336671 12.4926645,31.4826666 12.922,31.492 C13.5193363,31.492 14.0069981,31.3520014 14.385,31.072 C14.7630019,30.7919986 14.952,30.3860027 14.952,29.854 L14.952,28.594 C14.4199973,28.986002 13.8506697,29.182 13.244,29.182 C12.2639951,29.182 11.503336,28.8553366 10.962,28.202 C10.420664,27.5486634 10.15,26.6806721 10.15,25.598 C10.1593334,24.9166633 10.2876654,24.305336 10.535,23.764 C10.7823346,23.222664 11.1416643,22.7980015 11.613,22.49 C12.0843357,22.1819985 12.6466634,22.028 13.3,22.028 C13.8693362,22.028 14.4573303,22.261331 15.064,22.728 L15.26,22.21 L15.834,22.21 L15.834,29.868 Z M14.952,27.726 L14.952,23.428 C14.7186655,23.2133323 14.4690013,23.0476672 14.203,22.931 C13.9369987,22.8143327 13.6220018,22.756 13.258,22.756 C12.5393297,22.756 11.9910019,23.019664 11.613,23.547 C11.2349981,24.074336 11.0413334,24.7533292 11.032,25.584 C11.032,26.4613377 11.2139982,27.1589974 11.578,27.677 C11.9420018,28.1950026 12.492663,28.454 13.23,28.454 C13.89267,28.454 14.4666642,28.2113358 14.952,27.726 Z M23.338,24.282 L23.338,28.986 L22.47,28.986 L22.47,24.45 C22.47,23.3299944 22.0313377,22.77 21.154,22.77 C20.7993316,22.77 20.3863357,22.9029987 19.915,23.169 C19.4436643,23.4350013 19.0540015,23.763998 18.746,24.156 L18.746,29 L17.878,29 L17.878,19.256 L18.746,19.116 L18.746,23.232 C19.0353348,22.8959983 19.4203309,22.6113345 19.901,22.378 C20.3816691,22.1446655 20.8319979,22.028 21.252,22.028 C21.9520035,22.028 22.4746649,22.2333313 22.82,22.644 C23.1653351,23.0546687 23.338,23.6006633 23.338,24.282 Z M26.32,22.35 L27.552,22.35 L27.846,23.008 L26.32,23.008 L26.32,27.278 C26.32,27.6326684 26.3969992,27.9126656 26.551,28.118 C26.7050008,28.3233344 26.9453317,28.426 27.272,28.426 C27.4586676,28.426 27.649999,28.3840004 27.846,28.3 L28.014,29.014 C27.9859999,29.0233334 27.8926675,29.0536664 27.734,29.105 C27.5753325,29.1563336 27.360668,29.182 27.09,29.182 C26.5859975,29.182 26.1846682,29.0256682 25.886,28.713 C25.5873318,28.4003318 25.438,27.9546696 25.438,27.376 L25.438,23.008 L24.444,23.008 L24.43,22.35 L25.438,22.35 L25.438,20.586 L26.32,20.278 L26.32,22.35 Z" id="Light"></path>
                    <path d="M8.092,38.392 L5.726,41.878 L5.236,41.948 L2.604,38.266 L2.604,45 L1.26,45 L1.26,35.48 L2.086,35.48 L5.432,40.184 L8.61,35.48 L9.45,35.48 L9.45,45 L8.092,45 L8.092,38.392 Z M14.378,38.028 C15.3580049,38.028 16.0976642,38.3569967 16.597,39.015 C17.0963358,39.6730033 17.346,40.5153282 17.346,41.542 L17.346,41.906 L12.53,41.906 C12.5860003,42.56867 12.7983315,43.0913314 13.167,43.474 C13.5356685,43.8566686 14.0839964,44.048 14.812,44.048 C15.1666684,44.048 15.4769987,44.0036671 15.743,43.915 C16.0090013,43.8263329 16.3799976,43.6700011 16.856,43.446 L17.276,44.426 C16.4546626,44.9206691 15.6333374,45.168 14.812,45.168 C13.6266607,45.168 12.7166698,44.8460032 12.082,44.202 C11.4473302,43.5579968 11.13,42.6900055 11.13,41.598 C11.13,40.8979965 11.2606654,40.277336 11.522,39.736 C11.7833346,39.194664 12.1589976,38.7746682 12.649,38.476 C13.1390024,38.1773318 13.71533,38.028 14.378,38.028 Z M14.336,39.176 C13.8226641,39.176 13.4143348,39.3369984 13.111,39.659 C12.8076651,39.9810016 12.6233337,40.4266638 12.558,40.996 L16.044,40.996 C15.8666658,39.7826606 15.2973381,39.176 14.336,39.176 Z M24.402,45 L23.632,45 L23.366,44.482 C23.0859986,44.7060011 22.7756684,44.8786661 22.435,45 C22.0943316,45.1213339 21.8026679,45.182 21.56,45.182 C20.8693299,45.182 20.2696692,45.0326682 19.761,44.734 C19.2523308,44.4353318 18.862668,44.0130027 18.592,43.467 C18.321332,42.9209973 18.186,42.2840036 18.186,41.556 C18.186,40.8559965 18.3259986,40.2400027 18.606,39.708 C18.8860014,39.1759973 19.2826641,38.7630015 19.796,38.469 C20.3093359,38.1749985 20.9019966,38.028 21.574,38.028 C21.770001,38.028 22.0009987,38.065333 22.267,38.14 C22.5330013,38.214667 22.7919987,38.3219993 23.044,38.462 L23.044,35.27 L24.402,35.13 L24.402,45 Z M21.56,44.034 C21.8680015,44.034 22.1386655,43.9873338 22.372,43.894 C22.6053345,43.8006662 22.8293323,43.656001 23.044,43.46 L23.044,39.708 C22.8293323,39.5213324 22.6030012,39.3860004 22.365,39.302 C22.1269988,39.2179996 21.8586682,39.176 21.56,39.176 C20.9346635,39.176 20.4446684,39.3976645 20.09,39.841 C19.7353316,40.2843356 19.558,40.8513299 19.558,41.542 C19.558,42.2886704 19.7329982,42.8906644 20.083,43.348 C20.4330017,43.8053356 20.9253302,44.034 21.56,44.034 Z M27.734,36.152 C27.734,36.3853345 27.6500008,36.5836659 27.482,36.747 C27.3139992,36.9103342 27.1133345,36.992 26.88,36.992 C26.6466655,36.992 26.4506675,36.9103342 26.292,36.747 C26.1333325,36.5836659 26.054,36.3853345 26.054,36.152 C26.054,35.9186655 26.1333325,35.7203342 26.292,35.557 C26.4506675,35.3936659 26.6466655,35.312 26.88,35.312 C27.1133345,35.312 27.3139992,35.3936659 27.482,35.557 C27.6500008,35.7203342 27.734,35.9186655 27.734,36.152 Z M27.58,38.21 L27.58,45 L26.222,45 L26.222,38.21 L27.58,38.21 Z M31.668,44.076 C31.9853349,44.076 32.3306648,43.9756677 32.704,43.775 C33.0773352,43.5743323 33.4459982,43.3153349 33.81,42.998 L33.81,38.21 L35.154,38.21 L35.154,45 L34.216,45 L33.978,44.104 C33.6139982,44.4306683 33.2033356,44.698999 32.746,44.909 C32.2886644,45.1190011 31.8360022,45.224 31.388,45.224 C30.650663,45.224 30.1023351,44.9953356 29.743,44.538 C29.3836649,44.0806644 29.204,43.4646705 29.204,42.69 L29.204,38.21 L30.548,38.21 L30.548,42.564 C30.548,43.0586691 30.6296659,43.4343321 30.793,43.691 C30.9563342,43.947668 31.2479979,44.076 31.668,44.076 Z M46.998,40.52 L46.998,45 L45.654,45 L45.654,40.646 C45.654,40.1606642 45.5723342,39.7873346 45.409,39.526 C45.2456659,39.2646654 44.9726686,39.134 44.59,39.134 C44.319332,39.134 44.0113351,39.2249991 43.666,39.407 C43.3206649,39.5890009 42.9753351,39.8293318 42.63,40.128 C42.6393334,40.2120004 42.644,40.3426658 42.644,40.52 L42.644,45 L41.3,45 L41.3,40.646 C41.3,40.1606642 41.2183342,39.7873346 41.055,39.526 C40.8916659,39.2646654 40.6186686,39.134 40.236,39.134 C39.9466652,39.134 39.6223351,39.2343323 39.263,39.435 C38.9036649,39.6356677 38.5420018,39.8946651 38.178,40.212 L38.178,45 L36.834,45 L36.834,38.21 L37.772,38.21 L38.01,39.106 C38.3646684,38.7793317 38.7683311,38.5110011 39.221,38.301 C39.6736689,38.090999 40.1053313,37.986 40.516,37.986 C40.9640022,37.986 41.3443318,38.083999 41.657,38.28 C41.9696682,38.476001 42.2053325,38.7513316 42.364,39.106 C42.7186684,38.7793317 43.1223311,38.5110011 43.575,38.301 C44.0276689,38.090999 44.4593313,37.986 44.87,37.986 C45.5793369,37.986 46.1113316,38.2169977 46.466,38.679 C46.8206684,39.1410023 46.998,39.7546628 46.998,40.52 Z" id="Medium"></path>
                    <path d="M8.456,58.2 C8.456,59.0680043 8.1526697,59.7516642 7.546,60.251 C6.9393303,60.7503358 6.1226718,61 5.096,61 L1.19,61 L1.19,51.48 L4.886,51.48 C5.8660049,51.48 6.63133058,51.6946645 7.182,52.124 C7.73266942,52.5533355 8.008,53.2253288 8.008,54.14 C8.008,54.7373363 7.66733674,55.3019973 6.986,55.834 C7.9660049,56.3473359 8.456,57.1359947 8.456,58.2 Z M6.09,54.168 C6.09,53.7386645 5.96633457,53.4353342 5.719,53.258 C5.47166543,53.0806658 5.10533576,52.992 4.62,52.992 L2.996,52.992 L2.996,55.358 L4.34,55.358 C4.87200266,55.358 5.29666508,55.2576677 5.614,55.057 C5.93133492,54.8563323 6.09,54.560002 6.09,54.168 Z M6.566,58.214 C6.566,57.7753311 6.43300133,57.4346679 6.167,57.192 C5.90099867,56.9493321 5.53933562,56.828 5.082,56.828 L2.996,56.828 L2.996,59.502 L4.956,59.502 C5.45066914,59.502 5.84266522,59.3900011 6.132,59.166 C6.42133478,58.9419989 6.566,58.6246687 6.566,58.214 Z M12.782,61.168 C12.0539964,61.168 11.4170027,61.0233348 10.871,60.734 C10.3249973,60.4446652 9.90266816,60.0316694 9.604,59.495 C9.30533184,58.9583307 9.156,58.3306703 9.156,57.612 C9.156,56.8933297 9.30533184,56.263336 9.604,55.722 C9.90266816,55.180664 10.3249973,54.7630015 10.871,54.469 C11.4170027,54.1749985 12.0539964,54.028 12.782,54.028 C13.5100036,54.028 14.1469973,54.1726652 14.693,54.462 C15.2390027,54.7513348 15.6613318,55.1643306 15.96,55.701 C16.2586682,56.2376694 16.408,56.8653297 16.408,57.584 C16.408,58.3026703 16.2586682,58.932664 15.96,59.474 C15.6613318,60.015336 15.2390027,60.4329985 14.693,60.727 C14.1469973,61.0210015 13.5100036,61.168 12.782,61.168 Z M14.532,57.584 C14.532,56.9959971 14.3686683,56.5153352 14.042,56.142 C13.7153317,55.7686648 13.2953359,55.582 12.782,55.582 C12.2779975,55.582 11.860335,55.7733314 11.529,56.156 C11.197665,56.5386686 11.032,57.0239971 11.032,57.612 C11.032,58.2000029 11.1953317,58.6806648 11.522,59.054 C11.8486683,59.4273352 12.2686641,59.614 12.782,59.614 C13.2860025,59.614 13.703665,59.4226686 14.035,59.04 C14.366335,58.6573314 14.532,58.1720029 14.532,57.584 Z M19.474,51.116 L19.474,61 L17.668,61 L17.668,51.27 L19.474,51.116 Z M27.482,61 L26.53,61 L26.11,60.384 C25.5126637,60.9066693 24.8593369,61.168 24.15,61.168 C23.0953281,61.168 22.2623364,60.8483365 21.651,60.209 C21.0396636,59.5696635 20.734,58.7040055 20.734,57.612 C20.734,56.9026631 20.8716653,56.277336 21.147,55.736 C21.4223347,55.194664 21.8213307,54.7746682 22.344,54.476 C22.8666693,54.1773318 23.4873297,54.028 24.206,54.028 C24.4300011,54.028 24.6679987,54.0676663 24.92,54.147 C25.1720013,54.2263337 25.4146655,54.3359993 25.648,54.476 L25.648,51.27 L27.482,51.116 L27.482,61 Z M24.22,59.614 C24.4626679,59.614 24.6983322,59.5673338 24.927,59.474 C25.1556678,59.3806662 25.3959987,59.2406676 25.648,59.054 L25.648,56.156 C25.4053321,55.9506656 25.1720011,55.8036671 24.948,55.715 C24.7239989,55.6263329 24.4813346,55.582 24.22,55.582 C23.7253309,55.582 23.3333348,55.7709981 23.044,56.149 C22.7546652,56.5270019 22.61,57.0146637 22.61,57.612 C22.61,58.2093363 22.7523319,58.6923315 23.037,59.061 C23.3216681,59.4296685 23.7159975,59.614 24.22,59.614 Z" id="Bold"></path>
                    <path d="M0.98,68.48 L3.528,68.48 L3.528,74.234 C3.528,74.8126696 3.68666508,75.2629984 4.004,75.585 C4.32133492,75.9070016 4.7366641,76.068 5.25,76.068 C5.7633359,76.068 6.17866508,75.9070016 6.496,75.585 C6.81333492,75.2629984 6.972,74.8126696 6.972,74.234 L6.972,68.48 L9.52,68.48 L9.52,74.36 C9.52,75.1720041 9.34266844,75.8649971 8.988,76.439 C8.63333156,77.0130029 8.13400322,77.4493318 7.49,77.748 C6.84599678,78.0466682 6.09933758,78.196 5.25,78.196 C4.40066242,78.196 3.65400322,78.0466682 3.01,77.748 C2.36599678,77.4493318 1.86666844,77.0130029 1.512,76.439 C1.15733156,75.8649971 0.98,75.1720041 0.98,74.36 L0.98,68.48 Z M13.888,68.116 L13.888,78 L11.34,78 L11.34,68.27 L13.888,68.116 Z M18.466,71.49 L20.244,71.49 L20.482,73.492 L18.466,73.492 L18.466,75.172 C18.466,75.4520014 18.5383326,75.6736659 18.683,75.837 C18.8276674,76.0003342 19.0213321,76.082 19.264,76.082 C19.6000017,76.082 19.9266651,75.9933342 20.244,75.816 L20.972,77.552 C20.7946658,77.7013341 20.5170019,77.8389994 20.139,77.965 C19.7609981,78.0910006 19.4133349,78.154 19.096,78.154 C18.5359972,78.154 18.0133358,78.0513344 17.528,77.846 C17.0426642,77.6406656 16.6530015,77.335002 16.359,76.929 C16.0649985,76.522998 15.918,76.0306696 15.918,75.452 L15.918,73.492 L14.868,73.492 L14.868,71.49 L15.918,71.49 L15.918,69.656 L18.466,69.306 L18.466,71.49 Z M26.502,73.254 C26.1659983,73.254 25.7973353,73.3239993 25.396,73.464 C24.9946647,73.6040007 24.6493348,73.7859989 24.36,74.01 L24.36,78 L21.812,78 L21.812,71.224 L23.086,71.224 L23.702,72.05 C24.0286683,71.8259989 24.4019979,71.6300008 24.822,71.462 C25.2420021,71.2939992 25.6293316,71.21 25.984,71.21 L26.502,73.254 Z M29.68,73.044 C29.4559989,73.044 29.1830016,73.0836663 28.861,73.163 C28.5389984,73.2423337 28.2473346,73.3379994 27.986,73.45 L27.314,71.616 C27.706002,71.4386658 28.172664,71.2870006 28.714,71.161 C29.255336,71.0349994 29.7873307,70.972 30.31,70.972 C31.2153379,70.972 31.9106642,71.2239975 32.396,71.728 C32.8813358,72.2320025 33.124,72.9226623 33.124,73.8 L33.124,78 L31.892,78 L31.164,77.3 C30.7159978,77.8693362 30.2073362,78.154 29.638,78.154 C28.7979958,78.154 28.1633355,77.9440021 27.734,77.524 C27.3046645,77.1039979 27.09,76.5346703 27.09,75.816 C27.09,74.49066 27.9766578,73.828 29.75,73.828 L30.562,73.828 C30.5246665,73.5666654 30.4290008,73.3706673 30.275,73.24 C30.1209992,73.1093327 29.9226679,73.044 29.68,73.044 Z M29.792,75.228 C29.6239992,75.228 29.4863339,75.2793328 29.379,75.382 C29.2716661,75.4846672 29.218,75.6153325 29.218,75.774 C29.218,75.9140007 29.2623329,76.0283329 29.351,76.117 C29.4396671,76.2056671 29.5493327,76.25 29.68,76.25 C29.9693348,76.25 30.2679985,76.1240013 30.576,75.872 L30.576,75.228 L29.792,75.228 Z M34.188,73.17 L38.136,73.17 L38.276,75.172 L34.342,75.172 L34.188,73.17 Z M47.446,75.158 C47.446,76.166005 47.0656705,76.8916645 46.305,77.335 C45.5443295,77.7783355 44.5806725,78 43.414,78 L39.816,78 L39.816,68.48 L43.134,68.48 C44.263339,68.48 45.1989963,68.7086644 45.941,69.166 C46.6830037,69.6233356 47.054,70.3093288 47.054,71.224 C47.054,71.5600017 46.9746675,71.863332 46.816,72.134 C46.6573325,72.404668 46.442668,72.675332 46.172,72.946 C46.564002,73.216668 46.8743322,73.5433314 47.103,73.926 C47.3316678,74.3086686 47.446,74.7193311 47.446,75.158 Z M44.422,71.35 C44.422,71.0699986 44.3006679,70.8553341 44.058,70.706 C43.8153321,70.5566659 43.4793355,70.482 43.05,70.482 L42.364,70.482 L42.364,72.092 L42.938,72.092 C43.3580021,72.092 43.7103319,72.0290006 43.995,71.903 C44.2796681,71.7769994 44.422,71.5926679 44.422,71.35 Z M44.814,75.102 C44.814,74.7846651 44.6926679,74.5373342 44.45,74.36 C44.2073321,74.1826658 43.8713355,74.094 43.442,74.094 L42.364,74.094 L42.364,75.998 L43.47,75.998 C43.8806687,75.998 44.2073321,75.9210008 44.45,75.767 C44.6926679,75.6129992 44.814,75.3913348 44.814,75.102 Z M51.8,78.154 C50.6613276,78.154 49.7443368,77.8483364 49.049,77.237 C48.3536632,76.6256636 48.006,75.7366725 48.006,74.57 C48.006,73.832663 48.1763316,73.1910027 48.517,72.645 C48.8576684,72.0989973 49.3196637,71.6836681 49.903,71.399 C50.4863362,71.1143319 51.1373297,70.972 51.856,70.972 C52.6120038,70.972 53.2793304,71.1119986 53.858,71.392 C54.4366696,71.6720014 54.8893317,72.0873306 55.216,72.638 C55.5426683,73.1886694 55.706,73.8559961 55.706,74.64 C55.706,75.377337 55.5356684,76.0119973 55.195,76.544 C54.8543316,77.0760027 54.3876696,77.477332 53.795,77.748 C53.2023304,78.018668 52.537337,78.154 51.8,78.154 Z M53.074,74.64 C53.074,74.173331 52.9690011,73.7906682 52.759,73.492 C52.5489989,73.1933318 52.2573352,73.044 51.884,73.044 C51.491998,73.044 51.1863344,73.179332 50.967,73.45 C50.7476656,73.720668 50.638,74.0939976 50.638,74.57 C50.638,75.036669 50.7406656,75.405332 50.946,75.676 C51.1513344,75.946668 51.4453314,76.082 51.828,76.082 C52.2293353,76.082 52.5373323,75.9606679 52.752,75.718 C52.9666677,75.4753321 53.074,75.1160024 53.074,74.64 Z M59.374,68.116 L59.374,78 L56.826,78 L56.826,68.27 L59.374,68.116 Z M67.536,78 L66.248,78 L65.87,77.51 C65.5899986,77.706001 65.2890016,77.8623328 64.967,77.979 C64.6449984,78.0956673 64.3160017,78.154 63.98,78.154 C62.9346614,78.154 62.0923365,77.8553363 61.453,77.258 C60.8136635,76.6606637 60.494,75.7786725 60.494,74.612 C60.494,73.4266607 60.8183301,72.5236698 61.467,71.903 C62.1156699,71.2823302 62.9906612,70.972 64.092,70.972 C64.4093349,70.972 64.7079986,71.0186662 64.988,71.112 L64.988,68.27 L67.536,68.116 L67.536,78 Z M64.372,76.194 C64.5773344,76.194 64.7826656,76.1240007 64.988,75.984 L64.988,73.114 C64.717332,72.9926661 64.4746677,72.932 64.26,72.932 C63.9333317,72.932 63.6626677,73.0813318 63.448,73.38 C63.2333323,73.6786682 63.126,74.0846641 63.126,74.598 C63.126,75.1113359 63.2333323,75.5056653 63.448,75.781 C63.6626677,76.0563347 63.9706647,76.194 64.372,76.194 Z" id="Ultra-Bold"></path>
                </g>
                <g id="Group" transform="translate(94.000000, 18.000000)">
                    <path d="M6.622,12.384 L6.706,13 L1.372,13 L1.372,3.48 L6.636,3.48 L6.706,4.068 L2.142,4.068 L2.142,7.834 L5.502,7.834 L5.572,8.408 L2.142,8.408 L2.142,12.384 L6.622,12.384 Z M9.8,10.158 L7.994,13 L7.126,13 L9.394,9.584 L7.378,6.392 L8.064,6.084 L9.982,9.178 L11.83,6.21 L12.67,6.21 L10.388,9.752 L12.488,13 L11.634,13 L9.8,10.158 Z M14.854,6.392 L16.086,6.392 L16.38,6.966 L14.854,6.966 L14.854,11.278 C14.854,11.6420018 14.9309992,11.9406655 15.085,12.174 C15.2390008,12.4073345 15.4793317,12.524 15.806,12.524 C15.9926676,12.524 16.183999,12.4820004 16.38,12.398 L16.548,13.014 C16.5199999,13.014 16.3940011,13.0466663 16.17,13.112 C15.9833324,13.1586669 15.8013342,13.182 15.624,13.182 C15.1479976,13.182 14.7723347,13.0256682 14.497,12.713 C14.2216653,12.4003318 14.084,11.9546696 14.084,11.376 L14.084,6.966 L13.076,6.966 L13.076,6.392 L14.084,6.392 L14.084,4.586 L14.854,4.278 L14.854,6.392 Z M21.084,6.812 C20.6826647,6.812 20.2510023,6.94266536 19.789,7.204 C19.3269977,7.46533464 18.9513348,7.75466508 18.662,8.072 L18.662,13 L17.892,13 L17.892,6.21 L18.368,6.21 L18.62,7.288 C18.9373349,7.02666536 19.3083312,6.78166781 19.733,6.553 C20.1576688,6.32433219 20.5286651,6.21 20.846,6.21 L21.084,6.812 Z M24.64,6.672 C24.2199979,6.672 23.8770013,6.70933296 23.611,6.784 C23.3449987,6.85866704 23.0393351,6.97999916 22.694,7.148 L22.428,6.616 C22.6706679,6.44799916 23.0159978,6.30800056 23.464,6.196 C23.9120022,6.08399944 24.2899985,6.028 24.598,6.028 C25.3633372,6.028 25.9606645,6.22866466 26.39,6.63 C26.8193355,7.03133534 27.034,7.56799664 27.034,8.24 L27.034,13 L26.418,13 L26.306,12.272 C26.0726655,12.5333346 25.7670019,12.7503325 25.389,12.923 C25.0109981,13.0956675 24.626002,13.182 24.234,13.182 C23.496663,13.182 22.932002,12.9883353 22.54,12.601 C22.147998,12.2136647 21.952,11.7120031 21.952,11.096 C21.952,10.4613302 22.1759978,9.96433513 22.624,9.605 C23.0720022,9.24566487 23.6553297,9.066 24.374,9.066 L26.264,9.066 L26.264,8.296 C26.264,7.80133086 26.1263347,7.40700147 25.851,7.113 C25.5756653,6.81899853 25.1720027,6.672 24.64,6.672 Z M24.388,9.612 C23.8559973,9.612 23.4476681,9.7519986 23.163,10.032 C22.8783319,10.3120014 22.736,10.6666645 22.736,11.096 C22.736,11.4973353 22.8689987,11.8379986 23.135,12.118 C23.4010013,12.3980014 23.7719976,12.538 24.248,12.538 C24.6586687,12.538 25.0366649,12.4353344 25.382,12.23 C25.7273351,12.0246656 26.0213321,11.7540017 26.264,11.418 L26.264,9.612 L24.388,9.612 Z M28.35,8.87 L31.78,8.87 L31.892,9.486 L28.462,9.486 L28.35,8.87 Z M34.454,12.384 L39.018,12.384 L39.088,13 L33.684,13 L33.684,3.48 L34.454,3.48 L34.454,12.384 Z M41.16,4.068 C41.16,4.23600084 41.1016672,4.37599944 40.985,4.488 C40.8683327,4.60000056 40.7260008,4.656 40.558,4.656 C40.3806658,4.656 40.2383339,4.60000056 40.131,4.488 C40.0236661,4.37599944 39.97,4.23600084 39.97,4.068 C39.97,3.89999916 40.0236661,3.76000056 40.131,3.648 C40.2383339,3.53599944 40.3806658,3.48 40.558,3.48 C40.7260008,3.48 40.8683327,3.53599944 40.985,3.648 C41.1016672,3.76000056 41.16,3.89999916 41.16,4.068 Z M40.95,6.21 L40.95,13 L40.18,13 L40.18,6.21 L40.95,6.21 Z M48.006,13.868 C48.006,14.5586701 47.7610024,15.1233311 47.271,15.562 C46.7809975,16.0006689 46.1020043,16.22 45.234,16.22 C44.9259985,16.22 44.5270024,16.1640006 44.037,16.052 C43.5469975,15.9399994 43.1760013,15.8046675 42.924,15.646 L43.19,15.086 C43.5260017,15.2446675 43.8433318,15.3636663 44.142,15.443 C44.4406682,15.5223337 44.7953313,15.5666666 45.206,15.576 C45.8033363,15.576 46.2909981,15.4360014 46.669,15.156 C47.0470019,14.8759986 47.236,14.4700027 47.236,13.938 L47.236,12.51 C46.694664,12.9580022 46.09267,13.182 45.43,13.182 C44.4593285,13.182 43.7173359,12.8553366 43.204,12.202 C42.6906641,11.5486634 42.434,10.6760055 42.434,9.584 C42.434,8.90266326 42.5529988,8.29366935 42.791,7.757 C43.0290012,7.22033065 43.3789977,6.79800154 43.841,6.49 C44.3030023,6.18199846 44.8606634,6.028 45.514,6.028 C46.1113363,6.028 46.7273302,6.27066424 47.362,6.756 L47.544,6.21 L48.006,6.21 L48.006,13.868 Z M47.236,11.698 L47.236,7.4 C46.9746654,7.17599888 46.7063347,6.99866732 46.431,6.868 C46.1556653,6.73733268 45.8360018,6.672 45.472,6.672 C44.7533297,6.672 44.2003353,6.94499727 43.813,7.491 C43.4256647,8.03700273 43.2273334,8.7299958 43.218,9.57 C43.218,10.4473377 43.4046648,11.1613306 43.778,11.712 C44.1513352,12.2626694 44.7019964,12.538 45.43,12.538 C45.8126686,12.538 46.1439986,12.4656674 46.424,12.321 C46.7040014,12.1763326 46.9746654,11.968668 47.236,11.698 Z M55.398,8.282 L55.398,13 L54.628,13 L54.628,8.366 C54.628,7.2459944 54.1940043,6.686 53.326,6.686 C52.9526648,6.686 52.5466689,6.81199874 52.108,7.064 C51.6693311,7.31600126 51.2680018,7.64733128 50.904,8.058 L50.904,13 L50.134,13 L50.134,3.256 L50.904,3.116 L50.904,7.246 C51.1933348,6.90066494 51.5689977,6.6113345 52.031,6.378 C52.4930023,6.1446655 52.9293313,6.028 53.34,6.028 C54.0400035,6.028 54.5579983,6.23099797 54.894,6.637 C55.2300017,7.04300203 55.398,7.59132988 55.398,8.282 Z M58.324,6.392 L59.556,6.392 L59.85,6.966 L58.324,6.966 L58.324,11.278 C58.324,11.6420018 58.4009992,11.9406655 58.555,12.174 C58.7090008,12.4073345 58.9493317,12.524 59.276,12.524 C59.4626676,12.524 59.653999,12.4820004 59.85,12.398 L60.018,13.014 C59.9899999,13.014 59.8640011,13.0466663 59.64,13.112 C59.4533324,13.1586669 59.2713342,13.182 59.094,13.182 C58.6179976,13.182 58.2423347,13.0256682 57.967,12.713 C57.6916653,12.4003318 57.554,11.9546696 57.554,11.376 L57.554,6.966 L56.546,6.966 L56.546,6.392 L57.554,6.392 L57.554,4.586 L58.324,4.278 L58.324,6.392 Z" id="Extra-Light"></path>
                    <path d="M3.43,45.182 C3.02866466,45.182 2.53400294,45.1003342 1.946,44.937 C1.35799706,44.7736659 0.94266788,44.6033342 0.7,44.426 L1.05,43.166 C1.36733492,43.3246675 1.74533114,43.4693327 2.184,43.6 C2.62266886,43.7306673 3.03333142,43.796 3.416,43.796 C4.03200308,43.796 4.5033317,43.691001 4.83,43.481 C5.1566683,43.2709989 5.32,42.9746686 5.32,42.592 C5.32,42.3493321 5.23133422,42.1276677 5.054,41.927 C4.87666578,41.7263323 4.65033471,41.5466675 4.375,41.388 C4.09966529,41.2293325 3.70066928,41.0193346 3.178,40.758 C2.30066228,40.3099978 1.64033555,39.8643355 1.197,39.421 C0.75366445,38.9776644 0.532,38.42467 0.532,37.762 C0.532,37.2859976 0.66033205,36.8590019 0.917,36.481 C1.17366795,36.1029981 1.54233093,35.8043344 2.023,35.585 C2.50366907,35.3656656 3.0706634,35.256 3.724,35.256 C4.16266886,35.256 4.60833107,35.3189994 5.061,35.445 C5.51366893,35.5710006 5.93599804,35.731999 6.328,35.928 L5.796,37.174 C5.44133156,37.0059992 5.11233485,36.8753338 4.809,36.782 C4.50566515,36.6886662 4.16266858,36.642 3.78,36.642 C3.29466424,36.642 2.89800154,36.7353324 2.59,36.922 C2.28199846,37.1086676 2.128,37.3839982 2.128,37.748 C2.128,38.0093346 2.20966585,38.2403323 2.373,38.441 C2.53633415,38.6416677 2.75099867,38.8189992 3.017,38.973 C3.28300133,39.1270008 3.70066382,39.3486652 4.27,39.638 C4.86733632,39.9460015 5.34566487,40.2236654 5.705,40.471 C6.06433513,40.7183346 6.35833219,41.0169983 6.587,41.367 C6.81566781,41.7170018 6.93,42.125331 6.93,42.592 C6.93,43.0960025 6.79466802,43.543998 6.524,43.936 C6.25333198,44.328002 5.85433597,44.6336656 5.327,44.853 C4.79966403,45.0723344 4.16733702,45.182 3.43,45.182 Z M11.018,38.028 C12.0166717,38.028 12.7726641,38.35933 13.286,39.022 C13.7993359,39.68467 14.056,40.5293282 14.056,41.556 L14.056,42.018 L9.352,42.018 C9.4920007,43.2313394 10.2153268,43.838 11.522,43.838 C11.8860018,43.838 12.2103319,43.7890005 12.495,43.691 C12.7796681,43.5929995 13.1226647,43.4413344 13.524,43.236 L14,44.384 C13.2439962,44.9066693 12.4086712,45.168 11.494,45.168 C10.2619938,45.168 9.32166991,44.8483365 8.673,44.209 C8.02433009,43.5696635 7.7,42.6993388 7.7,41.598 C7.7,40.8886631 7.83299867,40.2656693 8.099,39.729 C8.36500133,39.1923307 8.74766417,38.7746682 9.247,38.476 C9.74633583,38.1773318 10.3366633,38.028 11.018,38.028 Z M10.976,39.372 C10.5279978,39.372 10.1663347,39.5119986 9.891,39.792 C9.61566529,40.0720014 9.44533366,40.4639975 9.38,40.968 L12.544,40.968 C12.4599996,40.4453307 12.2873346,40.048668 12.026,39.778 C11.7646654,39.507332 11.4146689,39.372 10.976,39.372 Z M25.564,40.492 L25.564,45 L23.982,45 L23.982,40.73 C23.982,40.263331 23.9096674,39.9110012 23.765,39.673 C23.6203326,39.4349988 23.3753351,39.316 23.03,39.316 C22.759332,39.316 22.4746682,39.3953325 22.176,39.554 C21.8773318,39.7126675 21.5553351,39.927332 21.21,40.198 L21.224,40.492 L21.224,45 L19.642,45 L19.642,40.73 C19.642,40.263331 19.5696674,39.9110012 19.425,39.673 C19.2803326,39.4349988 19.0353351,39.316 18.69,39.316 C18.1953309,39.316 17.5700038,39.6286635 16.814,40.254 L16.814,45 L15.246,45 L15.246,38.21 L16.296,38.21 L16.576,39.022 C16.968002,38.7139985 17.3879978,38.4643343 17.836,38.273 C18.2840022,38.0816657 18.6946648,37.986 19.068,37.986 C19.9826712,37.986 20.6033317,38.3266633 20.93,39.008 C21.322002,38.6999985 21.7396645,38.4526676 22.183,38.266 C22.6263356,38.0793324 23.0346648,37.986 23.408,37.986 C24.145337,37.986 24.6889983,38.2053311 25.039,38.644 C25.3890018,39.0826689 25.564,39.6986627 25.564,40.492 Z M28.826,36.18 C28.826,36.4413346 28.7350009,36.6629991 28.553,36.845 C28.3709991,37.0270009 28.1493346,37.118 27.888,37.118 C27.6266654,37.118 27.4096675,37.0270009 27.237,36.845 C27.0643325,36.6629991 26.978,36.4413346 26.978,36.18 C26.978,35.9279987 27.0666658,35.7110009 27.244,35.529 C27.4213342,35.3469991 27.6359987,35.256 27.888,35.256 C28.1493346,35.256 28.3709991,35.3469991 28.553,35.529 C28.7350009,35.7110009 28.826,35.9279987 28.826,36.18 Z M28.7,38.21 L28.7,45 L27.118,45 L27.118,38.21 L28.7,38.21 Z M29.918,40.548 L33.53,40.548 L33.67,41.794 L30.058,41.794 L29.918,40.548 Z M42.322,42.242 C42.322,43.1286711 42.0116698,43.8099976 41.391,44.286 C40.7703302,44.7620024 39.9420052,45 38.906,45 L35.322,45 L35.322,35.48 L38.654,35.48 C39.6526717,35.48 40.4343305,35.6876646 40.999,36.103 C41.5636695,36.5183354 41.846,37.1833288 41.846,38.098 C41.846,38.7420032 41.4726704,39.3299973 40.726,39.862 C41.2206691,40.0860011 41.6103319,40.393998 41.895,40.786 C42.1796681,41.178002 42.322,41.6633304 42.322,42.242 Z M40.208,38.112 C40.208,37.6173309 40.0610015,37.2743343 39.767,37.083 C39.4729985,36.8916657 39.0366696,36.796 38.458,36.796 L36.89,36.796 L36.89,39.456 L38.206,39.456 C38.8126697,39.4466666 39.2979982,39.3346677 39.662,39.12 C40.0260018,38.9053323 40.208,38.5693356 40.208,38.112 Z M40.698,42.27 C40.698,41.7659975 40.5416682,41.3833346 40.229,41.122 C39.9163318,40.8606654 39.489336,40.73 38.948,40.73 L36.89,40.73 L36.89,43.698 L38.808,43.698 C39.3866696,43.698 39.8463316,43.5790012 40.187,43.341 C40.5276684,43.1029988 40.698,42.7460024 40.698,42.27 Z M46.592,45.182 C45.8826631,45.182 45.2666693,45.0326682 44.744,44.734 C44.2213307,44.4353318 43.8176681,44.0176693 43.533,43.481 C43.2483319,42.9443306 43.106,42.3166703 43.106,41.598 C43.106,40.8886631 43.2483319,40.2656693 43.533,39.729 C43.8176681,39.1923307 44.2259973,38.7746682 44.758,38.476 C45.2900027,38.1773318 45.9106631,38.028 46.62,38.028 C47.3293369,38.028 47.947664,38.1749985 48.475,38.469 C49.002336,38.7630015 49.4083319,39.180664 49.693,39.722 C49.9776681,40.263336 50.12,40.8886631 50.12,41.598 C50.12,42.3073369 49.9753348,42.932664 49.686,43.474 C49.3966652,44.015336 48.9860027,44.4353318 48.454,44.734 C47.9219973,45.0326682 47.3013369,45.182 46.592,45.182 Z M48.496,41.612 C48.496,40.94933 48.3256684,40.4103354 47.985,39.995 C47.6443316,39.5796646 47.1893362,39.372 46.62,39.372 C46.0599972,39.372 45.6050017,39.5819979 45.255,40.002 C44.9049983,40.4220021 44.7253334,40.9539968 44.716,41.598 C44.716,42.26067 44.8863316,42.7973313 45.227,43.208 C45.5676684,43.6186687 46.0226638,43.824 46.592,43.824 C47.1613362,43.824 47.6209982,43.6140021 47.971,43.194 C48.3210018,42.7739979 48.496,42.2466698 48.496,41.612 Z M53.018,35.116 L53.018,45 L51.45,45 L51.45,35.27 L53.018,35.116 Z M60.816,45 L59.962,45 L59.626,44.44 C59.3366652,44.6733345 59.026335,44.8553327 58.695,44.986 C58.363665,45.1166673 58.0440015,45.182 57.736,45.182 C57.0453299,45.182 56.4456692,45.0326682 55.937,44.734 C55.4283308,44.4353318 55.0363347,44.015336 54.761,43.474 C54.4856653,42.932664 54.348,42.3026703 54.348,41.584 C54.348,40.8746631 54.4856653,40.2516694 54.761,39.715 C55.0363347,39.1783306 55.4329974,38.7630015 55.951,38.469 C56.4690026,38.1749985 57.0733299,38.028 57.764,38.028 C57.9786677,38.028 58.2166654,38.0676663 58.478,38.147 C58.7393346,38.2263337 58.9913321,38.3406659 59.234,38.49 L59.234,35.27 L60.816,35.13 L60.816,45 Z M57.764,43.824 C58.0440014,43.824 58.3006655,43.7796671 58.534,43.691 C58.7673345,43.6023329 59.0006655,43.460001 59.234,43.264 L59.234,39.932 C59.0099989,39.735999 58.7813345,39.5936671 58.548,39.505 C58.3146655,39.4163329 58.0533348,39.372 57.764,39.372 C57.2039972,39.372 56.7630016,39.5773313 56.441,39.988 C56.1189984,40.3986687 55.958,40.9259968 55.958,41.57 C55.958,42.2513367 56.1189984,42.7973313 56.441,43.208 C56.7630016,43.6186687 57.2039972,43.824 57.764,43.824 Z" id="Semi-Bold"></path>
                    <path d="M7.714,59.292 L7.98,61 L1.148,61 L1.148,51.48 L7.714,51.48 L7.98,53.202 L3.332,53.202 L3.332,55.344 L6.356,55.344 L6.622,57.066 L3.332,57.066 L3.332,59.292 L7.714,59.292 Z M11.97,59.25 L10.85,61 L8.4,61 L10.654,57.584 L8.526,54.546 L10.612,54 L11.97,56.114 L13.188,54.21 L15.596,54.21 L13.286,57.78 L15.484,61 L13.048,61 L11.97,59.25 Z M19.04,54.364 L20.552,54.364 L20.944,56.072 L19.04,56.072 L19.04,58.34 C19.04,58.6573349 19.1193325,58.913999 19.278,59.11 C19.4366675,59.306001 19.6559986,59.404 19.936,59.404 C20.2253348,59.404 20.5146652,59.3293341 20.804,59.18 L21.434,60.706 C21.2753325,60.8366673 21.0326683,60.9533328 20.706,61.056 C20.3793317,61.1586672 20.0760014,61.21 19.796,61.21 C18.937329,61.21 18.2326694,60.9860022 17.682,60.538 C17.1313306,60.0899978 16.856,59.4553374 16.856,58.634 L16.856,56.072 L15.876,56.072 L15.876,54.364 L16.856,54.364 L16.856,52.642 L19.04,52.306 L19.04,54.364 Z M26.796,55.96 C26.4693317,55.96 26.0936688,56.0509991 25.669,56.233 C25.2443312,56.4150009 24.8640017,56.6506652 24.528,56.94 L24.528,61 L22.33,61 L22.33,54.224 L23.45,54.224 L24.066,55.19 C24.3926683,54.9379987 24.7706645,54.7116677 25.2,54.511 C25.6293355,54.3103323 26.0166649,54.21 26.362,54.21 L26.796,55.96 Z M30.156,55.876 C29.885332,55.876 29.5773351,55.9179996 29.232,56.002 C28.8866649,56.0860004 28.5833346,56.1886661 28.322,56.31 L27.734,54.63 C28.0420015,54.4619992 28.466664,54.3150006 29.008,54.189 C29.549336,54.0629994 30.0346645,54 30.464,54 C31.0333362,54 31.5373311,54.1119989 31.976,54.336 C32.4146689,54.5600011 32.7529988,54.874998 32.991,55.281 C33.2290012,55.687002 33.348,56.1513307 33.348,56.674 L33.348,61 L32.13,61 L31.612,60.286 C31.1079975,60.8646696 30.5526697,61.154 29.946,61.154 C29.1246626,61.154 28.5040021,60.951002 28.084,60.545 C27.6639979,60.138998 27.454,59.5860035 27.454,58.886 C27.454,58.1953299 27.687331,57.6773351 28.154,57.332 C28.620669,56.9866649 29.2599959,56.814 30.072,56.814 L31.136,56.814 C31.1173332,56.5153318 31.0216675,56.2843341 30.849,56.121 C30.6763325,55.9576658 30.4453348,55.876 30.156,55.876 Z M30.086,58.13 C29.8526655,58.13 29.6636674,58.1999993 29.519,58.34 C29.3743326,58.4800007 29.302,58.6573323 29.302,58.872 C29.302,59.0400008 29.3626661,59.1846661 29.484,59.306 C29.6053339,59.4273339 29.763999,59.488 29.96,59.488 C30.3706687,59.488 30.7673314,59.3106684 31.15,58.956 L31.15,58.13 L30.086,58.13 Z M34.44,56.31 L38.248,56.31 L38.388,58.032 L34.594,58.032 L34.44,56.31 Z M47.418,58.172 C47.418,59.1146714 47.0726701,59.8216643 46.382,60.293 C45.6913299,60.7643357 44.8000055,61 43.708,61 L39.956,61 L39.956,51.48 L43.47,51.48 C44.5246719,51.48 45.3763301,51.7016645 46.025,52.145 C46.6736699,52.5883355 46.998,53.2673288 46.998,54.182 C46.998,54.7606696 46.6806698,55.3299972 46.046,55.89 C46.4660021,56.1513346 46.7996654,56.4733314 47.047,56.856 C47.2943346,57.2386686 47.418,57.6773309 47.418,58.172 Z M44.716,54.266 C44.716,53.5846633 44.2400048,53.244 43.288,53.244 L42.14,53.244 L42.14,55.218 L43.092,55.218 C43.5680024,55.218 43.9576652,55.1386675 44.261,54.98 C44.5643349,54.8213325 44.716,54.5833349 44.716,54.266 Z M45.15,58.158 C45.15,57.7846648 45.021668,57.4930011 44.765,57.283 C44.5083321,57.0729989 44.1606689,56.968 43.722,56.968 L42.14,56.968 L42.14,59.25 L43.666,59.25 C44.1140022,59.25 44.473332,59.1543343 44.744,58.963 C45.014668,58.7716657 45.15,58.5033351 45.15,58.158 Z M51.758,61.154 C51.020663,61.154 50.3720028,61.0163347 49.812,60.741 C49.2519972,60.4656653 48.8156682,60.0596694 48.503,59.523 C48.1903318,58.9863306 48.034,58.3400038 48.034,57.584 C48.034,56.8559964 48.1949984,56.221336 48.517,55.68 C48.8390016,55.138664 49.2823305,54.7233348 49.847,54.434 C50.4116695,54.1446652 51.0579964,54 51.786,54 C52.523337,54 53.1743305,54.1423319 53.739,54.427 C54.3036695,54.7116681 54.7423318,55.124664 55.055,55.666 C55.3676682,56.207336 55.524,56.8559962 55.524,57.612 C55.524,58.3400036 55.3630016,58.9699973 55.041,59.502 C54.7189984,60.0340027 54.2733362,60.4423319 53.704,60.727 C53.1346638,61.0116681 52.4860036,61.154 51.758,61.154 Z M53.256,57.612 C53.256,57.0893307 53.1230013,56.6600017 52.857,56.324 C52.5909987,55.9879983 52.2386689,55.82 51.8,55.82 C51.3426644,55.82 50.978668,55.9809984 50.708,56.303 C50.437332,56.6250016 50.302,57.0519973 50.302,57.584 C50.302,58.1160027 50.4349987,58.5429984 50.701,58.865 C50.9670013,59.1870016 51.3239978,59.348 51.772,59.348 C52.2200022,59.348 52.579332,59.1893349 52.85,58.872 C53.120668,58.5546651 53.256,58.1346693 53.256,57.612 Z M58.884,51.116 L58.884,61 L56.7,61 L56.7,51.27 L58.884,51.116 Z M66.976,61 L65.856,61 L65.45,60.454 C65.1699986,60.6686677 64.8666683,60.8389994 64.54,60.965 C64.2133317,61.0910006 63.8773351,61.154 63.532,61.154 C62.4773281,61.154 61.6373365,60.8460031 61.012,60.23 C60.3866635,59.6139969 60.074,58.741339 60.074,57.612 C60.074,56.482661 60.3913302,55.5983365 61.026,54.959 C61.6606698,54.3196635 62.5239945,54 63.616,54 C63.9986686,54 64.385998,54.0933324 64.778,54.28 L64.778,51.27 L66.976,51.116 L66.976,61 Z M63.77,59.404 C64.0780015,59.404 64.4139982,59.2733346 64.778,59.012 L64.778,56.114 C64.4419983,55.8806655 64.0873352,55.764 63.714,55.764 C63.3033313,55.764 62.9720013,55.9319983 62.72,56.268 C62.4679987,56.6040017 62.342,57.0473306 62.342,57.598 C62.342,58.1580028 62.4679987,58.5989984 62.72,58.921 C62.9720013,59.2430016 63.3219978,59.404 63.77,59.404 Z" id="Extra-Bold"></path>
                    <path d="M2.408,21.524 L2.408,29 L1.302,29 L1.302,19.48 L2.184,19.48 L6.818,25.92 L7.392,26.858 L7.392,19.48 L8.512,19.48 L8.512,29 L7.616,29 L2.772,22.154 L2.408,21.524 Z M13.468,29.182 C12.8146634,29.182 12.2453358,29.0303348 11.76,28.727 C11.2746642,28.4236651 10.9036679,27.9990027 10.647,27.453 C10.3903321,26.9069973 10.262,26.2840035 10.262,25.584 C10.2713334,24.8933299 10.4089987,24.2796693 10.675,23.743 C10.9410013,23.2063306 11.3259975,22.7863348 11.83,22.483 C12.3340025,22.1796651 12.9219966,22.028 13.594,22.028 C14.6113384,22.028 15.4093304,22.3523301 15.988,23.001 C16.5666696,23.6496699 16.856,24.5246612 16.856,25.626 C16.856,26.3166701 16.7183347,26.9303307 16.443,27.467 C16.1676653,28.0036693 15.7733359,28.4236651 15.26,28.727 C14.7466641,29.0303348 14.1493367,29.182 13.468,29.182 Z M15.722,25.64 C15.722,24.8373293 15.5353352,24.1910024 15.162,23.701 C14.7886648,23.2109976 14.2613367,22.966 13.58,22.966 C12.9079966,22.966 12.376002,23.2109976 11.984,23.701 C11.591998,24.1910024 11.3913334,24.8139962 11.382,25.57 C11.382,26.3633373 11.5686648,27.0073309 11.942,27.502 C12.3153352,27.9966691 12.8426633,28.244 13.524,28.244 C14.1960034,28.244 14.727998,27.9990024 15.12,27.509 C15.512002,27.0189976 15.7126666,26.3960038 15.722,25.64 Z M21.7,23.092 C21.3266648,23.092 20.9113356,23.2156654 20.454,23.463 C19.9966644,23.7103346 19.6093349,23.9973317 19.292,24.324 L19.292,29 L18.186,29 L18.186,22.21 L18.844,22.21 L19.194,23.302 C19.5020015,23.0406654 19.8706645,22.7933345 20.3,22.56 C20.7293355,22.3266655 21.1073317,22.21 21.434,22.21 L21.7,23.092 Z M32.48,24.394 L32.48,28.986 L31.374,28.986 L31.374,24.548 C31.374,24.0439975 31.2900008,23.6520014 31.122,23.372 C30.9539992,23.0919986 30.6646687,22.952 30.254,22.952 C29.9646652,22.952 29.6310019,23.056999 29.253,23.267 C28.8749981,23.477001 28.5226683,23.7453317 28.196,24.072 L28.21,24.394 L28.21,28.986 L27.104,28.986 L27.104,24.548 C27.104,24.0439975 27.0200008,23.6520014 26.852,23.372 C26.6839992,23.0919986 26.3946687,22.952 25.984,22.952 C25.6853318,22.952 25.333002,23.0686655 24.927,23.302 C24.520998,23.5353345 24.1546683,23.8293316 23.828,24.184 L23.828,29 L22.722,29 L22.722,22.21 L23.548,22.21 L23.73,23.176 C24.0566683,22.8399983 24.4463311,22.5600011 24.899,22.336 C25.3516689,22.1119989 25.7786647,22 26.18,22 C26.6373356,22 27.0176652,22.1026656 27.321,22.308 C27.6243349,22.5133344 27.8506659,22.8026648 28,23.176 C28.3266683,22.8399983 28.7139978,22.5600011 29.162,22.336 C29.6100022,22.1119989 30.0346647,22 30.436,22 C31.1266701,22 31.6399983,22.2169978 31.976,22.651 C32.3120017,23.0850022 32.48,23.6659964 32.48,24.394 Z M36.708,22.994 C36.3066647,22.994 35.9636681,23.0336663 35.679,23.113 C35.3943319,23.1923337 35.0840017,23.3066659 34.748,23.456 L34.426,22.616 C34.6686679,22.4479992 35.0256643,22.3080006 35.497,22.196 C35.9683357,22.0839994 36.3579985,22.028 36.666,22.028 C37.1793359,22.028 37.6366647,22.125999 38.038,22.322 C38.4393353,22.518001 38.7519989,22.7886649 38.976,23.134 C39.2000011,23.4793351 39.312,23.8713311 39.312,24.31 L39.312,29 L38.486,29 L38.346,28.314 C38.0939987,28.5473345 37.7813352,28.7503325 37.408,28.923 C37.0346648,29.0956675 36.6706684,29.182 36.316,29.182 C35.5599962,29.182 34.9836686,28.986002 34.587,28.594 C34.1903313,28.201998 33.992,27.6933365 33.992,27.068 C33.992,26.4146634 34.2159978,25.9060018 34.664,25.542 C35.1120022,25.1779982 35.704663,24.996 36.442,24.996 L38.192,24.996 L38.192,24.618 C38.192,24.1139975 38.0730012,23.7173348 37.835,23.428 C37.5969988,23.1386652 37.2213359,22.994 36.708,22.994 Z M36.414,25.738 C35.9753311,25.738 35.6323346,25.8663321 35.385,26.123 C35.1376654,26.3796679 35.014,26.6946648 35.014,27.068 C35.014,27.3946683 35.1213323,27.6793321 35.336,27.922 C35.5506677,28.1646679 35.8679979,28.286 36.288,28.286 C36.6520018,28.286 36.999665,28.1926676 37.331,28.006 C37.662335,27.8193324 37.9539987,27.5766682 38.206,27.278 L38.206,25.738 L36.414,25.738 Z M42.252,19.116 L42.252,29 L41.146,29 L41.146,19.256 L42.252,19.116 Z" id="Normal"></path>
                </g>
            </g>
            <path d="M191.63,7.96 L190.104,10.074 L189.236,10.2 L187.332,7.806 L187.332,13 L185.148,13 L185.148,3.48 L186.604,3.48 L189.656,7.484 L192.428,3.48 L193.828,3.48 L193.828,13 L191.63,13 L191.63,7.96 Z M195.438,8.282 C195.438,7.32066186 195.640998,6.46200378 196.047,5.706 C196.453002,4.94999622 197.019996,4.35733548 197.748,3.928 C198.476004,3.49866452 199.306662,3.27933338 200.24,3.27 C201.229338,3.27 202.085663,3.48699783 202.809,3.921 C203.532337,4.35500217 204.085331,4.9453296 204.468,5.692 C204.850669,6.4386704 205.042,7.26932876 205.042,8.184 C205.042,9.15467152 204.839002,10.0179962 204.433,10.774 C204.026998,11.5300038 203.460004,12.1203312 202.732,12.545 C202.003996,12.9696688 201.173338,13.1866666 200.24,13.196 C199.259995,13.196 198.408337,12.9790022 197.685,12.545 C196.961663,12.1109978 196.406335,11.5206704 196.019,10.774 C195.631665,10.0273296 195.438,9.19667124 195.438,8.282 Z M200.268,5.104 C199.801331,5.104 199.374335,5.23466536 198.987,5.496 C198.599665,5.75733464 198.289334,6.12833093 198.056,6.609 C197.822665,7.08966907 197.706,7.64266354 197.706,8.268 C197.706,9.18267124 197.932331,9.92699713 198.385,10.501 C198.837669,11.0750029 199.451329,11.362 200.226,11.362 C200.702002,11.362 201.133665,11.2430012 201.521,11.005 C201.908335,10.7669988 202.213999,10.4100024 202.438,9.934 C202.662001,9.45799762 202.774,8.87467012 202.774,8.184 C202.774,7.59599706 202.671334,7.068669 202.466,6.602 C202.260666,6.135331 201.969002,5.76900133 201.591,5.503 C201.212998,5.23699867 200.772003,5.104 200.268,5.104 Z M209.018,13.182 C208.579331,13.182 208.059003,13.1026675 207.457,12.944 C206.854997,12.7853325 206.386002,12.6033344 206.05,12.398 L206.68,10.69 C206.978668,10.8486675 207.349664,10.995666 207.793,11.131 C208.236336,11.266334 208.630665,11.334 208.976,11.334 C209.442669,11.334 209.801999,11.2523341 210.054,11.089 C210.306001,10.9256658 210.432,10.708668 210.432,10.438 C210.432,10.2606658 210.336334,10.0973341 210.145,9.948 C209.953666,9.79866592 209.643335,9.59800126 209.214,9.346 C209.120666,9.2993331 208.980668,9.22000056 208.794,9.108 C208.15933,8.72533142 207.662335,8.40800126 207.303,8.156 C206.943665,7.90399874 206.626335,7.58666858 206.351,7.204 C206.075665,6.82133142 205.938,6.39200238 205.938,5.916 C205.947333,5.41199748 206.089665,4.96166865 206.365,4.565 C206.640335,4.16833135 207.034664,3.85566781 207.548,3.627 C208.061336,3.39833219 208.66333,3.284 209.354,3.284 C209.820669,3.284 210.301331,3.35166599 210.796,3.487 C211.290669,3.62233401 211.724665,3.80199888 212.098,4.026 L211.426,5.622 C210.977998,5.4353324 210.609335,5.30466704 210.32,5.23 C210.030665,5.15533296 209.718002,5.118 209.382,5.118 C209.036665,5.118 208.754334,5.19033261 208.535,5.335 C208.315666,5.47966739 208.206,5.67799874 208.206,5.93 C208.206,6.13533436 208.296999,6.31499923 208.479,6.469 C208.661001,6.62300077 208.952665,6.80733226 209.354,7.022 C209.503334,7.08733366 209.657333,7.17133282 209.816,7.274 C210.488003,7.66600196 211.001332,7.98566543 211.356,8.233 C211.710668,8.48033457 212.023332,8.79299811 212.294,9.171 C212.564668,9.54900189 212.7,9.98066424 212.7,10.466 C212.7,10.9886693 212.553001,11.4553313 212.259,11.866 C211.964999,12.2766687 211.540336,12.5986655 210.985,12.832 C210.429664,13.0653345 209.774004,13.182 209.018,13.182 Z M216.354,10.088 L216.354,13 L214.156,13 L214.156,3.48 L216.354,3.48 L216.354,7.12 L220.33,3.27 L221.996,4.502 L218.734,7.722 L222.598,13 L219.84,13 L217.194,9.248 L216.354,10.088 Z" id="Mosk" fill="#3D3B37"></path>
            <rect id="Rectangle-3" fill="#3D3B37" x="184" y="19" width="210" height="2" rx="1"></rect>
        </g>
    </g>
</svg>