<?xml version="1.0" encoding="UTF-8"?>
<svg width="32px" height="32px" viewBox="0 0 32 32" version="1.1" xmlns="http://www.w3.org/2000/svg" xmlns:xlink="http://www.w3.org/1999/xlink">
    <!-- Generator: Sketch 47.1 (45422) - http://www.bohemiancoding.com/sketch -->
    <title>email</title>
    <desc>Created with Sketch.</desc>
    <defs></defs>
    <g id="Page-2" stroke="none" stroke-width="1" fill="none" fill-rule="evenodd">
        <g id="home-desktop" transform="translate(-652.000000, -1883.000000)" fill-rule="nonzero" fill="#4B5893">
            <g id="Group-11" transform="translate(652.000000, 1883.000000)">
                <path d="M28,0 C30.2,0 32,1.8 32,4 L32,28 C32,30.2 30.2,32 28,32 L4,32 C1.8,32 0,30.2 0,28 L0,4 C0,1.8 1.8,0 4,0 L28,0 Z M23.3333333,9 L8.66666667,9 C8.26666667,9 8,9.26666667 8,9.66666667 L8,11.6666667 C8,11.9333333 8.13333333,12.1333333 8.33333333,12.2666667 L15.6666667,16.2666667 C15.8,16.3333333 15.8666667,16.3333333 16,16.3333333 C16.1333333,16.3333333 16.2,16.3333333 16.3333333,16.2666667 L23.6666667,12.2666667 C23.8666667,12.1333333 24,11.9333333 24,11.6666667 L24,9.66666667 C24,9.26666667 23.7333333,9 23.3333333,9 Z M16.9333333,17.4 C16.6666667,17.6 16.3333333,17.6666667 16,17.6666667 C15.6666667,17.6666667 15.3333333,17.6 15.0666667,17.4 L8,13.6 L8,21.6666667 C8,22.0666667 8.26666667,22.3333333 8.66666667,22.3333333 L23.3333333,22.3333333 C23.7333333,22.3333333 24,22.0666667 24,21.6666667 L24,13.6 L16.9333333,17.4 Z" id="email"></path>
            </g>
        </g>
    </g>
</svg>