<?xml version="1.0" encoding="UTF-8"?>
<svg width="32px" height="32px" viewBox="0 0 32 32" version="1.1" xmlns="http://www.w3.org/2000/svg" xmlns:xlink="http://www.w3.org/1999/xlink">
    <!-- Generator: Sketch 48 (47235) - http://www.bohemiancoding.com/sketch -->
    <title>email</title>
    <desc>Created with Sketch.</desc>
    <defs></defs>
    <g id="Artboard-2" stroke="none" stroke-width="1" fill="none" fill-rule="evenodd" transform="translate(-834.000000, -532.000000)">
        <path d="M862,532 C864.2,532 866,533.8 866,536 L866,560 C866,562.2 864.2,564 862,564 L838,564 C835.8,564 834,562.2 834,560 L834,536 C834,533.8 835.8,532 838,532 L862,532 Z M857.333333,541 L842.666667,541 C842.266667,541 842,541.266667 842,541.666667 L842,543.666667 C842,543.933333 842.133333,544.133333 842.333333,544.266667 L849.666667,548.266667 C849.8,548.333333 849.866667,548.333333 850,548.333333 C850.133333,548.333333 850.2,548.333333 850.333333,548.266667 L857.666667,544.266667 C857.866667,544.133333 858,543.933333 858,543.666667 L858,541.666667 C858,541.266667 857.733333,541 857.333333,541 Z M850.933333,549.4 C850.666667,549.6 850.333333,549.666667 850,549.666667 C849.666667,549.666667 849.333333,549.6 849.066667,549.4 L842,545.6 L842,553.666667 C842,554.066667 842.266667,554.333333 842.666667,554.333333 L857.333333,554.333333 C857.733333,554.333333 858,554.066667 858,553.666667 L858,545.6 L850.933333,549.4 Z" id="email" fill="#292B33" fill-rule="nonzero"></path>
    </g>
</svg>