<?xml version="1.0" encoding="UTF-8"?>
<svg width="32px" height="32px" viewBox="0 0 32 32" version="1.1" xmlns="http://www.w3.org/2000/svg" xmlns:xlink="http://www.w3.org/1999/xlink">
    <!-- Generator: Sketch 48 (47235) - http://www.bohemiancoding.com/sketch -->
    <title>home-two</title>
    <desc>Created with Sketch.</desc>
    <defs></defs>
    <g id="Artboard-2" stroke="none" stroke-width="1" fill="none" fill-rule="evenodd" transform="translate(-771.000000, -532.000000)">
        <path d="M799,532 C801.2,532 803,533.8 803,536 L803,560 C803,562.2 801.2,564 799,564 L775,564 C772.8,564 771,562.2 771,560 L771,536 C771,533.8 772.8,532 775,532 L799,532 Z M794.810909,547.965091 L787.538182,539.965091 C787.249455,539.647273 786.749818,539.647273 786.461818,539.965091 L779.189091,547.965091 C778.995636,548.178182 778.946182,548.485091 779.062545,548.749091 C779.178909,549.012364 779.44,549.181818 779.727273,549.181818 L781.181818,549.181818 L781.181818,555.727273 C781.181818,556.128727 781.507636,556.454545 781.909091,556.454545 L785.545455,556.454545 L785.545455,552.090909 L788.454545,552.090909 L788.454545,556.454545 L792.090909,556.454545 C792.492364,556.454545 792.818182,556.128727 792.818182,555.727273 L792.818182,549.181818 L794.272727,549.181818 C794.560727,549.181818 794.821091,549.012364 794.937455,548.749091 C795.053818,548.485091 795.004364,548.178182 794.810909,547.965091 Z" id="home-two" fill="#292B33" fill-rule="nonzero"></path>
    </g>
</svg>