<?xml version="1.0" encoding="UTF-8"?>
<svg width="32px" height="32px" viewBox="0 0 32 32" version="1.1" xmlns="http://www.w3.org/2000/svg" xmlns:xlink="http://www.w3.org/1999/xlink">
    <!-- Generator: Sketch 48 (47235) - http://www.bohemiancoding.com/sketch -->
    <title>home-three</title>
    <desc>Created with Sketch.</desc>
    <defs></defs>
    <g id="Artboard-2" stroke="none" stroke-width="1" fill="none" fill-rule="evenodd" transform="translate(-685.000000, -530.000000)">
        <path d="M713,530 C715.2,530 717,531.8 717,534 L717,558 C717,560.2 715.2,562 713,562 L689,562 C686.8,562 685,560.2 685,558 L685,534 C685,531.8 686.8,530 689,530 L713,530 Z M701,538.432 L693.218,545.506667 L694.115333,546.493333 L695,545.689333 L695,552.666667 C695,553.035333 695.298667,553.333333 695.666667,553.333333 L699.666667,553.333333 L699.666667,549.333333 L702.333333,549.333333 L702.333333,553.333333 L706.333333,553.333333 C706.701333,553.333333 707,553.035333 707,552.666667 L707,545.689333 L707.884667,546.494 L708.782,545.507333 L701,538.432 Z M702.333333,546.666667 L699.666667,546.666667 L699.666667,544 L702.333333,544 L702.333333,546.666667 Z" id="home-three" fill="#292B33" fill-rule="nonzero"></path>
    </g>
</svg>