<?xml version="1.0" encoding="UTF-8"?>
<svg width="32px" height="32px" viewBox="0 0 32 32" version="1.1" xmlns="http://www.w3.org/2000/svg" xmlns:xlink="http://www.w3.org/1999/xlink">
    <!-- Generator: Sketch 48 (47235) - http://www.bohemiancoding.com/sketch -->
    <title>home-two</title>
    <desc>Created with Sketch.</desc>
    <defs></defs>
    <g id="Artboard-2" stroke="none" stroke-width="1" fill="none" fill-rule="evenodd" transform="translate(-771.000000, -455.000000)">
        <path d="M799,455 C801.2,455 803,456.8 803,459 L803,483 C803,485.2 801.2,487 799,487 L775,487 C772.8,487 771,485.2 771,483 L771,459 C771,456.8 772.8,455 775,455 L799,455 Z M794.810909,470.965091 L787.538182,462.965091 C787.249455,462.647273 786.749818,462.647273 786.461818,462.965091 L779.189091,470.965091 C778.995636,471.178182 778.946182,471.485091 779.062545,471.749091 C779.178909,472.012364 779.44,472.181818 779.727273,472.181818 L781.181818,472.181818 L781.181818,478.727273 C781.181818,479.128727 781.507636,479.454545 781.909091,479.454545 L785.545455,479.454545 L785.545455,475.090909 L788.454545,475.090909 L788.454545,479.454545 L792.090909,479.454545 C792.492364,479.454545 792.818182,479.128727 792.818182,478.727273 L792.818182,472.181818 L794.272727,472.181818 C794.560727,472.181818 794.821091,472.012364 794.937455,471.749091 C795.053818,471.485091 795.004364,471.178182 794.810909,470.965091 Z" id="home-two" fill="#4B5893" fill-rule="nonzero"></path>
    </g>
</svg>