<?xml version="1.0" encoding="UTF-8"?>
<svg width="32px" height="32px" viewBox="0 0 32 32" version="1.1" xmlns="http://www.w3.org/2000/svg" xmlns:xlink="http://www.w3.org/1999/xlink">
    <!-- Generator: Sketch 48 (47235) - http://www.bohemiancoding.com/sketch -->
    <title>home-four</title>
    <desc>Created with Sketch.</desc>
    <defs></defs>
    <g id="Artboard-2" stroke="none" stroke-width="1" fill="none" fill-rule="evenodd" transform="translate(-622.000000, -455.000000)">
        <path d="M650,455 C652.2,455 654,456.8 654,459 L654,483 C654,485.2 652.2,487 650,487 L626,487 C623.8,487 622,485.2 622,483 L622,459 C622,456.8 623.8,455 626,455 L650,455 Z M638,463.432 L634.666667,466.462667 L634.666667,465 L632.666667,465 L632.666667,468.280667 L630.218,470.506667 L631.115333,471.493333 L632,470.689333 L632,477.666667 C632,478.035333 632.298667,478.333333 632.666667,478.333333 L636.666667,478.333333 L636.666667,474.333333 L639.333333,474.333333 L639.333333,478.333333 L643.333333,478.333333 C643.701333,478.333333 644,478.035333 644,477.666667 L644,470.689333 L644.884667,471.494 L645.782,470.507333 L638,463.432 Z M639.333333,471.666667 L636.666667,471.666667 L636.666667,469 L639.333333,469 L639.333333,471.666667 Z" id="home-four" fill="#4B5893" fill-rule="nonzero"></path>
    </g>
</svg>