<?xml version="1.0" encoding="UTF-8"?>
<svg width="32px" height="32px" viewBox="0 0 32 32" version="1.1" xmlns="http://www.w3.org/2000/svg" xmlns:xlink="http://www.w3.org/1999/xlink">
    <!-- Generator: Sketch 48 (47235) - http://www.bohemiancoding.com/sketch -->
    <title>home-four</title>
    <desc>Created with Sketch.</desc>
    <defs></defs>
    <g id="Artboard-2" stroke="none" stroke-width="1" fill="none" fill-rule="evenodd" transform="translate(-622.000000, -532.000000)">
        <path d="M650,532 C652.2,532 654,533.8 654,536 L654,560 C654,562.2 652.2,564 650,564 L626,564 C623.8,564 622,562.2 622,560 L622,536 C622,533.8 623.8,532 626,532 L650,532 Z M638,540.432 L634.666667,543.462667 L634.666667,542 L632.666667,542 L632.666667,545.280667 L630.218,547.506667 L631.115333,548.493333 L632,547.689333 L632,554.666667 C632,555.035333 632.298667,555.333333 632.666667,555.333333 L636.666667,555.333333 L636.666667,551.333333 L639.333333,551.333333 L639.333333,555.333333 L643.333333,555.333333 C643.701333,555.333333 644,555.035333 644,554.666667 L644,547.689333 L644.884667,548.494 L645.782,547.507333 L638,540.432 Z M639.333333,548.666667 L636.666667,548.666667 L636.666667,546 L639.333333,546 L639.333333,548.666667 Z" id="home-four" fill="#292B33" fill-rule="nonzero"></path>
    </g>
</svg>