<?xml version="1.0" encoding="UTF-8"?>
<svg width="315px" height="55px" viewBox="0 0 315 55" version="1.1" xmlns="http://www.w3.org/2000/svg" xmlns:xlink="http://www.w3.org/1999/xlink">
    <!-- Generator: Sketch 47.1 (45422) - http://www.bohemiancoding.com/sketch -->
    <title>form-email</title>
    <desc>Created with Sketch.</desc>
    <defs></defs>
    <g id="Page-2" stroke="none" stroke-width="1" fill="none" fill-rule="evenodd">
        <g id="inscape-desktop" transform="translate(-730.000000, -3139.000000)">
            <g id="form-email" transform="translate(730.000000, 3139.000000)">
                <rect id="Rectangle-2" fill="#FFFFFF" x="0" y="0" width="315" height="55" rx="4"></rect>
                <text id="Preferred-Email" opacity="0.699999988" font-family="MoskExtra-Bold800, Mosk" font-size="14" font-weight="600" fill="#4A4A4A">
                    <tspan x="70" y="33">Preferred Email</tspan>
                </text>
                <g id="ui-24px-glyph-1_email-83" opacity="0.699999988" transform="translate(18.000000, 18.000000)" fill-rule="nonzero" fill="#4A4A4A">
                    <path d="M23,0 L1,0 C0.4,0 0,0.4 0,1 L0,4 C0,4.4 0.2,4.7 0.5,4.9 L11.5,10.9 C11.7,11 11.8,11 12,11 C12.2,11 12.3,11 12.5,10.9 L23.5,4.9 C23.8,4.7 24,4.4 24,4 L24,1 C24,0.4 23.6,0 23,0 Z" id="Shape"></path>
                    <path d="M13.4,12.6 C13,12.9 12.5,13 12,13 C11.5,13 11,12.9 10.6,12.6 L0,6.9 L0,19 C0,19.6 0.4,20 1,20 L23,20 C23.6,20 24,19.6 24,19 L24,6.9 L13.4,12.6 Z" id="Shape"></path>
                </g>
            </g>
        </g>
    </g>
</svg>