<?xml version="1.0" encoding="UTF-8"?>
<svg width="650px" height="55px" viewBox="0 0 650 55" version="1.1" xmlns="http://www.w3.org/2000/svg" xmlns:xlink="http://www.w3.org/1999/xlink">
    <!-- Generator: Sketch 47.1 (45422) - http://www.bohemiancoding.com/sketch -->
    <title>form-title</title>
    <desc>Created with Sketch.</desc>
    <defs></defs>
    <g id="Page-2" stroke="none" stroke-width="1" fill="none" fill-rule="evenodd">
        <g id="inscape-desktop" transform="translate(-395.000000, -3214.000000)">
            <g id="form-title" transform="translate(395.000000, 3214.000000)">
                <rect id="Rectangle-2" fill="#FFFFFF" x="0" y="0" width="650" height="55" rx="4"></rect>
                <text id="Title" opacity="0.699999988" font-family="MoskExtra-Bold800, Mosk" font-size="14" font-weight="600" fill="#4A4A4A">
                    <tspan x="70" y="33">Title</tspan>
                </text>
                <g id="ui-24px-glyph-1_edit-76" opacity="0.699999988" transform="translate(19.000000, 18.000000)" fill-rule="nonzero" fill="#4A4A4A">
                    <path d="M19,22 L1,22 C0.4,22 0,21.6 0,21 L0,3 C0,2.4 0.4,2 1,2 L9,2 C9.6,2 10,2.4 10,3 C10,3.6 9.6,4 9,4 L2,4 L2,20 L18,20 L18,13 C18,12.4 18.4,12 19,12 C19.6,12 20,12.4 20,13 L20,21 C20,21.6 19.6,22 19,22 Z" id="Shape"></path>
                    <path d="M19.7,6.3 L21.3,4.7 C21.7,4.3 21.7,3.7 21.3,3.3 L18.7,0.7 C18.3,0.3 17.7,0.3 17.3,0.7 L15.7,2.3 L19.7,6.3 Z" id="Shape"></path>
                    <path d="M14.3,3.7 L7.3,10.7 C7.1,10.9 7,11.1 7,11.4 L7,14 C7,14.6 7.4,15 8,15 L10.6,15 C10.9,15 11.1,14.9 11.3,14.7 L18.3,7.7 L14.3,3.7 Z" id="Shape"></path>
                </g>
            </g>
        </g>
    </g>
</svg>